<?xml version="1.0" standalone="no"?><!DOCTYPE svg PUBLIC "-//W3C//DTD SVG 1.1//EN" "http://www.w3.org/Graphics/SVG/1.1/DTD/svg11.dtd"><svg class="icon" width="200px" height="200.00px" viewBox="0 0 1024 1024" version="1.1" xmlns="http://www.w3.org/2000/svg"><path d="M249.802105 304.666947a171.52 171.52 0 1 0 343.04 0 171.52 171.52 0 0 0-343.04 0z" fill="#5093F0" /><path d="M707.907368 786.593684c0-124.766316-79.737263-230.912-191.056842-270.255158a13.123368 13.123368 0 0 0-16.168421 6.494316l-66.048 166.426947a14.309053 14.309053 0 0 1-26.597052 0l-66.021053-166.426947a13.204211 13.204211 0 0 0-16.195368-6.467368C214.501053 555.681684 134.736842 661.773474 134.736842 786.539789v15.440843c0 60.523789 181.248 85.665684 286.585263 85.665684 105.364211 0 286.612211-25.141895 286.612211-85.692632v-15.413895z" fill="#C5DDFE" /><path d="M862.315789 229.079579m0 40.421053l0 0q0 40.421053-40.421052 40.421052l-134.736842 0q-40.421053 0-40.421053-40.421052l0 0q0-40.421053 40.421053-40.421053l134.736842 0q40.421053 0 40.421052 40.421053Z" fill="#5093F0" /><path d="M862.315789 363.816421m0 40.421053l0 0q0 40.421053-40.421052 40.421052l-134.736842 0q-40.421053 0-40.421053-40.421052l0 0q0-40.421053 40.421053-40.421053l134.736842 0q40.421053 0 40.421052 40.421053Z" fill="#5093F0" /><path d="M889.263158 498.553263m0 40.421053l0 0q0 40.421053-40.421053 40.421052l-161.68421 0q-40.421053 0-40.421053-40.421052l0 0q0-40.421053 40.421053-40.421053l161.68421 0q40.421053 0 40.421053 40.421053Z" fill="#5093F0" /></svg>