<?xml version="1.0" standalone="no"?><!DOCTYPE svg PUBLIC "-//W3C//DTD SVG 1.1//EN" "http://www.w3.org/Graphics/SVG/1.1/DTD/svg11.dtd"><svg class="icon" width="200px" height="200.00px" viewBox="0 0 1024 1024" version="1.1" xmlns="http://www.w3.org/2000/svg"><path d="M222.854737 304.666947a171.52 171.52 0 1 0 343.04 0 171.52 171.52 0 0 0-343.04 0z" fill="#EFAC15" /><path d="M682.576842 788.911158c0-123.877053-79.979789-229.214316-191.595789-268.261053a13.204211 13.204211 0 0 0-16.249264 6.440421l-66.209684 165.187369a14.416842 14.416842 0 0 1-26.677894 0l-66.209685-165.187369a13.285053 13.285053 0 0 0-16.222315-6.467368C187.769263 559.696842 107.789474 665.061053 107.789474 788.938105v15.306106C107.789474 864.309895 289.522526 889.263158 395.183158 889.263158c105.633684 0 287.393684-24.953263 287.393684-85.045895v-15.306105z" fill="#FEE8B6" /><path d="M830.410105 316.954947C830.410105 246.029474 772.365474 188.631579 700.793263 188.631579a129.886316 129.886316 0 0 0-89.249684 35.301053 210.458947 210.458947 0 0 1-9.701053 175.885473 129.994105 129.994105 0 0 0 98.950737 45.433263c71.599158 0 129.616842-57.451789 129.616842-128.296421zM625.232842 505.640421a317.44 317.44 0 0 1 107.708632 237.918316v14.066526c0 8.353684-1.212632 16.249263-3.449263 23.848421 79.952842-3.826526 187.877053-23.174737 187.877052-63.38021v-11.560421c0-118.298947-96.956632-214.312421-216.576-214.312421-26.597053 0-52.035368 4.769684-75.560421 13.419789z" fill="#EFAC15" /></svg>