<?xml version="1.0" standalone="no"?><!DOCTYPE svg PUBLIC "-//W3C//DTD SVG 1.1//EN" "http://www.w3.org/Graphics/SVG/1.1/DTD/svg11.dtd"><svg t="1690354653488" class="icon" viewBox="0 0 1024 1024" version="1.1" xmlns="http://www.w3.org/2000/svg" p-id="3943" xmlns:xlink="http://www.w3.org/1999/xlink" width="32" height="32"><path d="M817.933474 785.704421a20.156632 20.156632 0 0 1 14.201263 5.443368 19.348211 19.348211 0 0 1 6.117052 13.689264v38.265263a19.644632 19.644632 0 0 1-20.318315 19.213473h-548.109474C224.956632 862.315789 188.631579 828.011789 188.631579 785.704421V211.348211C188.631579 169.040842 225.010526 134.736842 269.824 134.736842h162.411789v363.789474c0 4.122947 1.455158 8.165053 4.069053 11.425684 6.305684 7.787789 17.381053 9.970526 26.246737 5.227789l2.155789-1.347368 129.940211-91.890526 129.913263 91.890526a20.749474 20.749474 0 0 0 12.180211 3.799579 19.887158 19.887158 0 0 0 20.183579-16.869053l0.134736-2.263579V134.736842h60.901053a20.156632 20.156632 0 0 1 14.174316 5.443369 19.348211 19.348211 0 0 1 6.117052 13.689263v536.117894a19.590737 19.590737 0 0 1-17.92 18.970948l-2.398315 0.188631H310.460632c-22.447158 0-40.636632 17.138526-40.636632 38.265264 0 21.153684 18.189474 38.265263 40.636632 38.265263H817.933474z" fill="#EFAC15" p-id="3944"></path><path d="M676.352 134.736842c11.317895 0 20.506947 7.653053 20.506947 17.138526v225.549474c0 9.431579-9.162105 17.084632-20.560842 17.084632a23.309474 23.309474 0 0 1-12.261052-3.422316l-70.790737-30.72-71.437474 30.746947a23.336421 23.336421 0 0 1-28.725895-3.341473 15.333053 15.333053 0 0 1-4.096-10.293895v-225.549474c0-9.485474 9.162105-17.138526 20.506948-17.138526L676.378947 134.736842z" fill="#FEE8B6" p-id="3945"></path></svg>