<?xml version="1.0" standalone="no"?><!DOCTYPE svg PUBLIC "-//W3C//DTD SVG 1.1//EN" "http://www.w3.org/Graphics/SVG/1.1/DTD/svg11.dtd"><svg t="1690354969384" class="icon" viewBox="0 0 1024 1024" version="1.1" xmlns="http://www.w3.org/2000/svg" p-id="5135" xmlns:xlink="http://www.w3.org/1999/xlink" width="32" height="32"><path d="M249.802105 306.256842a171.52 171.52 0 1 0 343.04 0 171.52 171.52 0 0 0-343.04 0z" fill="#3BE4E5" p-id="5136"></path><path d="M501.679158 528.680421a13.204211 13.204211 0 0 1 16.222316-6.467368c28.16 9.862737 54.272 23.929263 77.608421 41.418105a81.785263 81.785263 0 0 0-6.521263 4.688842l-3.098948 3.018105c-5.173895 6.467368-7.410526 14.955789-5.173895 23.066948l2.236632 6.467368 1.266526 6.871579a65.482105 65.482105 0 0 1-47.642947 71.006316l-6.575158 1.239579-3.934316 1.239579a28.645053 28.645053 0 0 0-15.25221 18.405052s-1.077895 6.548211-1.239579 23.444211v10.886737c0 12.584421 0.808421 19.186526 1.131789 21.180631l0.10779 0.646737 1.266526 3.853474c3.503158 7.706947 10.078316 13.743158 18.324211 15.791158l6.197894 1.239579 6.575158 2.209684c13.581474 5.497263 24.926316 15.36 32.336842 27.890526 8.272842 14.551579 10.940632 31.717053 7.006316 47.939369l-1.805474 5.901473-0.835368 3.826527a25.788632 25.788632 0 0 0 1.536 11.506526 901.928421 901.928421 0 0 1-159.258947 14.901895C316.442947 890.853053 134.736842 865.899789 134.736842 805.807158v-15.306105c0-123.877053 79.979789-229.214316 191.59579-268.261053 6.278737-2.155789 13.258105 0.512 16.249263 6.440421l66.209684 165.187368a14.416842 14.416842 0 0 0 26.677895 0z" fill="#BDF6F6" p-id="5137"></path><path d="M649.539368 566.918737a23.956211 23.956211 0 0 1 20.533895 3.314526l2.640842 2.236632 3.718737 3.98821c10.078316 9.539368 24.252632 15.440842 39.612632 15.440842 13.096421 0 25.088-4.473263 34.816-11.425684l4.446315-3.664842 4.096-3.98821c4.069053-5.173895 11.290947-7.302737 18.728422-6.25179l3.368421 0.700632s6.736842 2.479158 21.719579 10.967579c15.252211 8.353684 20.533895 13.204211 20.533894 13.20421a23.390316 23.390316 0 0 1 7.437474 19.05179l-0.727579 3.287579-1.886316 5.173894a55.592421 55.592421 0 0 0 33.603369 64.538948l5.658947 1.886315 5.632 1.050948c6.736842 1.401263 13.069474 7.275789 15.710316 13.527579l1.077895 3.314526s1.077895 6.575158 1.455157 23.902316v9.889684l-0.835368 9.754947c-0.377263 2.964211-0.377263 4.365474-0.377263 4.365474a24.549053 24.549053 0 0 1-13.069474 15.764211l-3.368421 1.077894-5.281684 1.077895a55.376842 55.376842 0 0 0-33.253053 25.653895 52.601263 52.601263 0 0 0-7.087158 35.193263l1.077895 5.874526 1.428211 5.551158c1.940211 6.224842 0 14.605474-4.446316 20.129684l-2.263579 2.586948s-5.173895 4.365474-20.533895 13.20421l-12.395789 6.575158-9.350737 4.365474a23.956211 23.956211 0 0 1-20.533895-3.314526l-2.640842-2.236632-3.718737-3.988211a58.799158 58.799158 0 0 0-39.612631-15.440842c-13.096421 0-25.088 4.473263-34.816 11.425685l-4.446316 4.015157-3.718737 3.988211a23.255579 23.255579 0 0 1-19.806316 6.251789l-3.368421-0.700631s-5.173895-1.886316-17.165474-8.488421l-4.931368-2.586948a118.649263 118.649263 0 0 1-20.533895-13.20421 23.390316 23.390316 0 0 1-7.437473-19.05179l0.727579-3.314526 1.536-5.039158a56.508632 56.508632 0 0 0-5.982316-41.094737 57.397895 57.397895 0 0 0-27.75579-23.902315l-5.632-1.886316-5.281684-1.077895a23.902316 23.902316 0 0 1-15.737263-13.527579l-1.077895-3.287579s-1.077895-5.524211-1.077895-18.728421v-9.647158c0.161684-14.255158 1.077895-19.779368 1.077895-19.779368a24.549053 24.549053 0 0 1 13.096421-15.791158l3.368421-1.050947 5.632-1.077895a56.131368 56.131368 0 0 0 40.825263-60.847158l-1.077894-5.901474-1.913263-5.52421a22.231579 22.231579 0 0 1 4.419368-19.779369l2.640842-2.586947s5.173895-4.365474 20.533895-13.204211l9.242947-4.688842 6.386526-3.287579 1.994106-0.997052 2.829473-1.347369 1.536-0.619789zM714.105263 660.210526c-37.079579 0-67.368421 30.181053-67.368421 67.206737a67.449263 67.449263 0 0 0 67.368421 67.530105c37.079579 0 67.018105-30.073263 67.368421-67.530105a67.368421 67.368421 0 0 0-67.368421-67.206737z" fill="#3BE4E5" p-id="5138"></path></svg>