<?xml version="1.0" standalone="no"?><!DOCTYPE svg PUBLIC "-//W3C//DTD SVG 1.1//EN" "http://www.w3.org/Graphics/SVG/1.1/DTD/svg11.dtd"><svg class="icon" width="200px" height="200.00px" viewBox="0 0 1024 1024" version="1.1" xmlns="http://www.w3.org/2000/svg"><path d="M134.736842 134.736842m97.010526 0l156.294737 0q97.010526 0 97.010527 97.010526l0 183.242106q0 97.010526-97.010527 97.010526l-156.294737 0q-97.010526 0-97.010526-97.010526l0-183.242106q0-97.010526 97.010526-97.010526Z" fill="#FF8080" /><path d="M134.736842 592.842105m97.010526 0l156.294737 0q97.010526 0 97.010527 97.010527l0 102.4q0 97.010526-97.010527 97.010526l-156.294737 0q-97.010526 0-97.010526-97.010526l0-102.4q0-97.010526 97.010526-97.010527Z" fill="#FF8080" /><path d="M538.947368 134.736842m97.010527 0l156.294737 0q97.010526 0 97.010526 97.010526l0 102.4q0 97.010526-97.010526 97.010527l-156.294737 0q-97.010526 0-97.010527-97.010527l0-102.4q0-97.010526 97.010527-97.010526Z" fill="#FF8080" /><path d="M889.263158 552.421053a40.421053 40.421053 0 0 1-40.421053 40.421052h-269.473684a40.421053 40.421053 0 0 1 0-80.842105h269.473684a40.421053 40.421053 0 0 1 40.421053 40.421053zM889.263158 687.157895a40.421053 40.421053 0 0 1-40.421053 40.421052h-269.473684a40.421053 40.421053 0 0 1 0-80.842105h269.473684a40.421053 40.421053 0 0 1 40.421053 40.421053zM889.263158 821.894737a40.421053 40.421053 0 0 1-40.421053 40.421052h-269.473684a40.421053 40.421053 0 0 1 0-80.842105h269.473684a40.421053 40.421053 0 0 1 40.421053 40.421053z" fill="#FFD1D1" /></svg>