<?xml version="1.0" standalone="no"?><!DOCTYPE svg PUBLIC "-//W3C//DTD SVG 1.1//EN" "http://www.w3.org/Graphics/SVG/1.1/DTD/svg11.dtd"><svg class="icon" width="200px" height="200.00px" viewBox="0 0 1024 1024" version="1.1" xmlns="http://www.w3.org/2000/svg"><path d="M134.736842 134.736842m107.789474 0l107.789473 0q107.789474 0 107.789474 107.789474l0 134.736842q0 107.789474-107.789474 107.789474l-107.789473 0q-107.789474 0-107.789474-107.789474l0-134.736842q0-107.789474 107.789474-107.789474Z" fill="#5093F0" /><path d="M134.736842 538.947368m107.789474 0l107.789473 0q107.789474 0 107.789474 107.789474l0 134.736842q0 107.789474-107.789474 107.789474l-107.789473 0q-107.789474 0-107.789474-107.789474l0-134.736842q0-107.789474 107.789474-107.789474Z" fill="#5093F0" /><path d="M485.052632 188.631579m40.421052 0l323.368421 0q40.421053 0 40.421053 40.421053l0 0q0 40.421053-40.421053 40.421052l-323.368421 0q-40.421053 0-40.421052-40.421052l0 0q0-40.421053 40.421052-40.421053Z" fill="#C5DDFE" /><path d="M485.052632 592.842105m40.421052 0l323.368421 0q40.421053 0 40.421053 40.421053l0 0q0 40.421053-40.421053 40.421053l-323.368421 0q-40.421053 0-40.421052-40.421053l0 0q0-40.421053 40.421052-40.421053Z" fill="#C5DDFE" /><path d="M485.052632 323.368421m40.421052 0l323.368421 0q40.421053 0 40.421053 40.421053l0 0q0 40.421053-40.421053 40.421052l-323.368421 0q-40.421053 0-40.421052-40.421052l0 0q0-40.421053 40.421052-40.421053Z" fill="#C5DDFE" /><path d="M485.052632 727.578947m40.421052 0l323.368421 0q40.421053 0 40.421053 40.421053l0 0q0 40.421053-40.421053 40.421053l-323.368421 0q-40.421053 0-40.421052-40.421053l0 0q0-40.421053 40.421052-40.421053Z" fill="#C5DDFE" /></svg>