<?xml version="1.0" standalone="no"?><!DOCTYPE svg PUBLIC "-//W3C//DTD SVG 1.1//EN" "http://www.w3.org/Graphics/SVG/1.1/DTD/svg11.dtd"><svg t="1690354760573" class="icon" viewBox="0 0 1024 1024" version="1.1" xmlns="http://www.w3.org/2000/svg" p-id="4090" xmlns:xlink="http://www.w3.org/1999/xlink" width="32" height="32"><path d="M862.154105 531.536842l-363.735579-72.757895a33.684211 33.684211 0 0 0-39.666526 39.666527l72.757895 363.735579 1.374316 4.931368a33.711158 33.711158 0 0 0 59.688421 7.141053l49.933473-74.967579 53.409684 53.436631a71.302737 71.302737 0 0 0 100.567579 0l55.565474-55.619368a71.356632 71.356632 0 0 0 0-100.621474l-52.789895-53.948631 74.994527-49.933474c24.953263-16.653474 17.327158-55.161263-12.099369-61.062737" fill="#00BCEB" p-id="4091"></path><path d="M376.589474 674.357895a40.421053 40.421053 0 0 1 0 57.155368l-76.234106 76.234105a40.421053 40.421053 0 1 1-57.128421-57.155368l76.207158-76.234105a40.421053 40.421053 0 0 1 57.128421 0zM282.947368 485.052632a40.421053 40.421053 0 0 1 0 80.842105h-107.789473a40.421053 40.421053 0 0 1 0-80.842105h107.789473z m497.852632-214.905264a40.421053 40.421053 0 0 1 0 57.155369l-76.234105 76.234105a40.421053 40.421053 0 1 1-57.128421-57.155368l76.207158-76.234106a40.421053 40.421053 0 0 1 57.128421 0z m-537.6 0a40.421053 40.421053 0 0 1 57.155368 0l76.234106 76.234106a40.421053 40.421053 0 1 1-57.155369 57.128421l-76.234105-76.207158a40.421053 40.421053 0 0 1 0-57.128421zM525.473684 134.736842A40.421053 40.421053 0 0 1 565.894737 175.157895v107.789473a40.421053 40.421053 0 0 1-80.842105 0v-107.789473A40.421053 40.421053 0 0 1 525.473684 134.736842z" fill="#8EE3F8" p-id="4092"></path></svg>