<?xml version="1.0" standalone="no"?><!DOCTYPE svg PUBLIC "-//W3C//DTD SVG 1.1//EN" "http://www.w3.org/Graphics/SVG/1.1/DTD/svg11.dtd"><svg t="1690354855159" class="icon" viewBox="0 0 1024 1024" version="1.1" xmlns="http://www.w3.org/2000/svg" p-id="4534" xmlns:xlink="http://www.w3.org/1999/xlink" width="32" height="32"><path d="M377.263158 134.736842m97.010526 0l75.452632 0q97.010526 0 97.010526 97.010526l0 75.452632q0 97.010526-97.010526 97.010526l-75.452632 0q-97.010526 0-97.010526-97.010526l0-75.452632q0-97.010526 97.010526-97.010526Z" fill="#00BCEB" p-id="4535"></path><path d="M727.578947 471.578947a148.210526 148.210526 0 0 1 148.210527 148.210527v53.894737c0 9.216-0.835368 18.216421-2.425263 26.947368h-84.021895c3.610947-8.245895 5.605053-17.354105 5.605052-26.947368v-53.894737a67.368421 67.368421 0 0 0-67.368421-67.368421H296.421053A67.368421 67.368421 0 0 0 229.052632 619.789474v53.894737c0 9.593263 1.994105 18.701474 5.605052 26.947368H150.662737a149.072842 149.072842 0 0 1-2.452211-26.947368v-53.894737a148.210526 148.210526 0 0 1 148.210527-148.210527z" fill="#8EE3F8" p-id="4536"></path><path d="M53.894737 619.789474m97.010526 0l75.452632 0q97.010526 0 97.010526 97.010526l0 75.452632q0 97.010526-97.010526 97.010526l-75.452632 0q-97.010526 0-97.010526-97.010526l0-75.452632q0-97.010526 97.010526-97.010526Z" fill="#00BCEB" p-id="4537"></path><path d="M377.263158 619.789474m97.010526 0l75.452632 0q97.010526 0 97.010526 97.010526l0 75.452632q0 97.010526-97.010526 97.010526l-75.452632 0q-97.010526 0-97.010526-97.010526l0-75.452632q0-97.010526 97.010526-97.010526Z" fill="#00BCEB" p-id="4538"></path><path d="M700.631579 619.789474m97.010526 0l75.452632 0q97.010526 0 97.010526 97.010526l0 75.452632q0 97.010526-97.010526 97.010526l-75.452632 0q-97.010526 0-97.010526-97.010526l0-75.452632q0-97.010526 97.010526-97.010526Z" fill="#00BCEB" p-id="4539"></path><path d="M471.605895 404.210526h80.842105v215.578948h-80.842105z" fill="#8EE3F8" p-id="4540"></path></svg>