<?xml version="1.0" standalone="no"?><!DOCTYPE svg PUBLIC "-//W3C//DTD SVG 1.1//EN" "http://www.w3.org/Graphics/SVG/1.1/DTD/svg11.dtd"><svg class="icon" width="200px" height="200.00px" viewBox="0 0 1024 1024" version="1.1" xmlns="http://www.w3.org/2000/svg"><path d="M657.866105 134.736842H385.347368c-50.472421 0-97.091368 26.947368-122.314105 70.602105l-136.299789 236.058948a141.177263 141.177263 0 0 0 0 141.20421l136.299789 236.058948A141.177263 141.177263 0 0 0 385.347368 889.263158h272.545685a141.177263 141.177263 0 0 0 122.314105-70.602105l136.245895-236.058948a141.177263 141.177263 0 0 0 0-141.20421l-136.245895-236.058948A141.258105 141.258105 0 0 0 657.866105 134.736842" fill="#9D91FF" /><path d="M485.052632 458.105263m40.421052 0l0 0q40.421053 0 40.421053 40.421053l0 188.631579q0 40.421053-40.421053 40.421052l0 0q-40.421053 0-40.421052-40.421052l0-188.631579q0-40.421053 40.421052-40.421053Z" fill="#E3DFFF" /><path d="M702.790791 355.731184m20.210527 35.005658l0 0q20.210526 35.005658-14.795133 55.216185l-163.359739 94.315789q-35.005658 20.210526-55.216185-14.795132l0 0q-20.210526-35.005658 14.795132-55.216185l163.35974-94.315789q35.005658-20.210526 55.216185 14.795132Z" fill="#E3DFFF" /><path d="M348.16035 355.729005m-20.210526 35.005659l0 0q-20.210526 35.005658 14.795132 55.216184l163.359739 94.31579q35.005658 20.210526 55.216185-14.795132l0 0q20.210526-35.005658-14.795132-55.216185l-163.359739-94.315789q-35.005658-20.210526-55.216185 14.795132Z" fill="#E3DFFF" /></svg>