<?xml version="1.0" standalone="no"?><!DOCTYPE svg PUBLIC "-//W3C//DTD SVG 1.1//EN" "http://www.w3.org/Graphics/SVG/1.1/DTD/svg11.dtd"><svg class="icon" width="32px" height="32.00px" viewBox="0 0 1024 1024" version="1.1" xmlns="http://www.w3.org/2000/svg"><path d="M900.9152 590.592A104.8576 104.8576 0 1 0 752.64 442.3168l-313.7024 313.7024a104.8576 104.8576 0 1 0 148.2752 148.2752l313.7024-313.7024z" fill="#3BE4E5" /><path d="M126.464 590.592a104.8576 104.8576 0 1 1 148.2752-148.2752l313.7024 313.7024a104.8576 104.8576 0 1 1-148.2752 148.2752L126.464 590.592z" fill="#00BCEB" /><path d="M512.9728 51.2m74.14552 74.14552l-0.036204-0.036204q74.14552 74.14552 0 148.29104l-313.670305 313.670306q-74.14552 74.14552-148.29104 0l0.036204 0.036203q-74.14552-74.14552 0-148.29104l313.670305-313.670305q74.14552-74.14552 148.29104 0Z" fill="#00BCEB" /><path d="M587.8784 125.3376a104.8576 104.8576 0 1 0-148.2752 148.2752l313.7024 313.6512a104.8576 104.8576 0 1 0 148.2752-148.224l-313.7024-313.7024z" fill="#3BE4E5" /><path d="M614.4 819.2a102.4 102.4 0 1 1-204.8 0 102.4 102.4 0 0 1 204.8 0z" fill="#25B7DB" /></svg>