<?xml version="1.0" standalone="no"?><!DOCTYPE svg PUBLIC "-//W3C//DTD SVG 1.1//EN" "http://www.w3.org/Graphics/SVG/1.1/DTD/svg11.dtd"><svg class="icon" width="200px" height="200.00px" viewBox="0 0 1024 1024" version="1.1" xmlns="http://www.w3.org/2000/svg"><path d="M123.2 436.8l-3.2 3.2c-40 41.6-38.4 108.8 3.2 148.8s108.8 38.4 148.8-3.2L585.6 272l1.6-1.6c40-41.6 40-107.2-1.6-148.8s-107.2-40-148.8 1.6L123.2 436.8z" fill="#00BCEB" /><path d="M900.8 587.2c41.6-40 43.2-107.2 1.6-148.8s-107.2-43.2-148.8-1.6l-1.6 1.6-312 315.2c-41.6 40-43.2 107.2-1.6 148.8 40 41.6 107.2 43.2 148.8 1.6l1.6-1.6 312-315.2z" fill="#3BE4E5" /><path d="M587.2 123.2C547.2 81.6 480 80 438.4 120s-43.2 107.2-1.6 148.8l1.6 1.6L752 584c40 41.6 105.6 43.2 148.8 3.2s43.2-105.6 3.2-148.8l-3.2-3.2c0 1.6-313.6-312-313.6-312z" fill="#3BE4E5" /><path d="M436.8 900.8l1.6 1.6c41.6 40 107.2 40 148.8-1.6 40-41.6 40-107.2-1.6-148.8L270.4 440l-1.6-1.6c-41.6-40-107.2-40-148.8 1.6s-40 107.2 1.6 148.8l315.2 312z" fill="#00BCEB" /><path d="M617.6 827.2c0 59.2-48 105.6-105.6 105.6-59.2 0-105.6-48-105.6-105.6 0-59.2 48-105.6 105.6-105.6 57.6 0 105.6 48 105.6 105.6z" fill="#25B7DB" /></svg>