<svg xmlns="http://www.w3.org/2000/svg" width="20" height="20" viewBox="0 0 20 20" fill="none">
  <path d="M18.8218 8.12699C18.7853 7.97057 18.7126 7.82497 18.6098 7.70196C18.5069 7.57896 18.3766 7.48199 18.2296 7.4189L17.3074 7.01212C16.947 6.85358 16.6456 6.58465 16.4464 6.24374C16.2471 5.90283 16.1601 5.50736 16.1979 5.11383L16.3104 4.11195C16.3389 3.95052 16.3279 3.78453 16.2782 3.62835C16.2286 3.47216 16.1418 3.33047 16.0255 3.21554C15.1058 2.39722 14.0292 1.77682 12.8618 1.39257C12.7078 1.34435 12.5445 1.33354 12.3855 1.36104C12.2265 1.38854 12.0763 1.45356 11.9472 1.55076L11.13 2.1534C10.8046 2.39558 10.4104 2.52632 10.0055 2.52632C9.60054 2.52632 9.20632 2.39558 8.88094 2.1534L8.10126 1.5583C7.97328 1.46174 7.82433 1.39705 7.66664 1.36955C7.50895 1.34206 7.34702 1.35253 7.19414 1.4001C6.02273 1.77147 4.944 2.39048 4.03045 3.21554C3.91593 3.32588 3.82906 3.46191 3.77693 3.61248C3.72481 3.76305 3.70892 3.92389 3.73057 4.08182L3.84303 5.11383C3.87735 5.50687 3.78894 5.90088 3.59008 6.24109C3.39123 6.5813 3.09182 6.8508 2.73349 7.01212L1.78138 7.4189C1.63916 7.48575 1.51395 7.58425 1.41523 7.70693C1.31652 7.82961 1.24689 7.97326 1.21162 8.12699C0.967222 9.32482 0.967222 10.56 1.21162 11.7579C1.24816 11.9143 1.3208 12.0599 1.42369 12.1829C1.52657 12.3059 1.6568 12.4029 1.80387 12.4659L2.71849 12.8727C3.08346 13.0345 3.38809 13.3082 3.58875 13.6546C3.78941 14.001 3.8758 14.4024 3.83553 14.8012L3.73057 15.8106C3.70892 15.9685 3.72481 16.1293 3.77693 16.2799C3.82906 16.4305 3.91593 16.5665 4.03045 16.6768C4.94567 17.4934 6.01709 18.1137 7.17914 18.4998C7.33318 18.548 7.49641 18.5588 7.65541 18.5313C7.81441 18.5038 7.96464 18.4388 8.09376 18.3416L8.91093 17.7465C9.23485 17.5009 9.62963 17.368 10.0355 17.368C10.4413 17.368 10.8361 17.5009 11.16 17.7465L11.9697 18.3416C12.0984 18.4366 12.2474 18.5002 12.4047 18.5277C12.5621 18.5551 12.7237 18.5456 12.8768 18.4998C14.0425 18.122 15.1155 17.5007 16.0255 16.6768C16.144 16.5687 16.2351 16.4337 16.2912 16.283C16.3473 16.1323 16.3667 15.9703 16.3478 15.8106L16.2354 14.8087C16.1922 14.4105 16.2765 14.0088 16.476 13.662C16.6755 13.3152 16.9799 13.0413 17.3449 12.8803L18.2746 12.4735C18.4218 12.4086 18.552 12.3102 18.6548 12.186C18.7576 12.0618 18.8302 11.9152 18.8668 11.7579C19.0964 10.557 19.0811 9.32177 18.8218 8.12699ZM10.028 13.7993C9.28659 13.7993 8.56187 13.5784 7.94544 13.1645C7.32901 12.7506 6.84856 12.1624 6.56485 11.4742C6.28114 10.7859 6.20691 10.0286 6.35154 9.29802C6.49618 8.5674 6.85318 7.89628 7.37741 7.36953C7.90164 6.84279 8.56955 6.48407 9.29668 6.33874C10.0238 6.19341 10.7775 6.26799 11.4624 6.55307C12.1474 6.83814 12.7328 7.3209 13.1447 7.94029C13.5566 8.55968 13.7764 9.28789 13.7764 10.0328C13.7764 11.0317 13.3815 11.9898 12.6785 12.6961C11.9755 13.4025 11.0221 13.7993 10.028 13.7993Z" fill="#8EA1B3"/>
</svg>