<?xml version="1.0" standalone="no"?><!DOCTYPE svg PUBLIC "-//W3C//DTD SVG 1.1//EN" "http://www.w3.org/Graphics/SVG/1.1/DTD/svg11.dtd"><svg t="1687661431594" class="icon" viewBox="0 0 1024 1024" version="1.1" xmlns="http://www.w3.org/2000/svg" p-id="2237" xmlns:xlink="http://www.w3.org/1999/xlink" width="32" height="32"><path d="M770.238536 0a197.790716 197.790716 0 0 1 196.582219 198.193548v503.54052a322.265932 322.265932 0 0 1-319.043273 322.265932H253.404547A197.790716 197.790716 0 0 1 56.822328 825.403619V322.265932a322.265932 322.265932 0 0 1 319.043273-322.265932z m-258.618411 336.767899a45.922895 45.922895 0 0 0-47.534225 43.908734V483.398899H361.363634a45.520063 45.520063 0 0 0-44.311565 40.283241v5.236821a45.922895 45.922895 0 0 0 44.714398 46.728561h102.722266v101.110936a45.117231 45.117231 0 0 0 42.297403 43.505901h5.236822a45.922895 45.922895 0 0 0 47.937057-43.908734v-100.708103H661.070951a45.520063 45.520063 0 0 0 44.311566-40.283242v-4.833989A45.520063 45.520063 0 0 0 661.070951 483.398899h-101.513768V380.676633a45.520063 45.520063 0 0 0-42.700236-43.505901z" fill="#60A5F7" p-id="2238"></path><path d="M966.820755 527.307632V198.193548A197.790716 197.790716 0 0 0 770.238536 0H375.865601A322.265932 322.265932 0 0 0 56.822328 322.265932v503.54052a197.790716 197.790716 0 0 0 196.582219 198.193548h24.97561a1172.645161 1172.645161 0 0 0 688.440598-496.692368z m-260.229741 6.445318a45.520063 45.520063 0 0 1-44.311565 40.283242h-102.722266v102.722266a45.922895 45.922895 0 0 1-47.937058 43.908733h-5.236821a45.117231 45.117231 0 0 1-42.297404-43.505901v-101.513768H361.363634a45.922895 45.922895 0 0 1-44.714398-46.728561V523.68214a45.520063 45.520063 0 0 1 44.311566-40.283241h102.722266V380.676633a45.922895 45.922895 0 0 1 47.534225-43.908734h5.236821a45.520063 45.520063 0 0 1 42.700236 43.505901V483.398899H661.070951a45.520063 45.520063 0 0 1 44.311566 47.131392z" fill="#87BBF9" p-id="2239"></path><path d="M375.865601 0A322.265932 322.265932 0 0 0 56.822328 322.265932v400.415421a831.043273 831.043273 0 0 0 404.846578-146.630999H361.363634a45.922895 45.922895 0 0 1-44.714398-46.72856V523.68214a45.520063 45.520063 0 0 1 44.311566-40.283241h102.722266V380.676633a45.922895 45.922895 0 0 1 47.534225-43.908734h5.236821a45.520063 45.520063 0 0 1 42.700236 43.505901V483.398899h15.307632A834.668765 834.668765 0 0 0 812.133107 4.833989a201.416208 201.416208 0 0 0-40.283241-4.833989z" fill="#A3CBFC" p-id="2240"></path><path d="M56.822328 322.265932v123.266719A563.965382 563.965382 0 0 0 534.581573 0H375.865601A322.265932 322.265932 0 0 0 56.822328 322.265932z" fill="#BEDBFD" p-id="2241"></path></svg>