<?xml version="1.0" standalone="no"?><!DOCTYPE svg PUBLIC "-//W3C//DTD SVG 1.1//EN" "http://www.w3.org/Graphics/SVG/1.1/DTD/svg11.dtd"><svg t="1687166160136" class="icon" viewBox="0 0 1024 1024" version="1.1" xmlns="http://www.w3.org/2000/svg" p-id="2529" xmlns:xlink="http://www.w3.org/1999/xlink" width="32" height="32"><path d="M439.940741 590.430815s8.229926 71.604148-72.210963 71.604148l140.325926 84.878222 132.133926-90.377481s-57.647407 2.199704-57.647408-66.218667l-142.601481 0.113778z" fill="#E7F0F8" p-id="2530"></path><path d="M687.369481 368.336593l-0.530962 5.044148c-0.227556-1.706667-0.227556-3.375407-0.227556-5.044148h0.758518z m24.651852-125.534815H314.709333v14.411852h-1.024l1.024 4.058074v97.355852c-13.312 6.144-28.785778 19.26637-28.785777 49.265777 0 42.325333 37.432889 53.096296 52.337777 55.751111 13.539556 74.714074 53.892741 154.737778 164.21926 154.737778 123.752296 0 167.291259-76.344889 180.413629-154.206815 13.805037-2.161778 53.816889-12.363852 53.816889-56.054518-0.303407-27.003259-12.781037-40.580741-24.689778-47.331556V242.801778z" fill="#E7F0F8" p-id="2531"></path><path d="M523.794963 53.172148s220.084148-10.315852 218.30163 220.16c0 0 0 69.404444-42.211556 117.94963l-8.836741-110.857482s-186.595556 49.265778-357.338074 3.413334c0 0-14.108444 25.713778-10.619259 117.911703 0 0-64.474074-46.686815-47.521185-159.744 0 0.075852 10.126222-42.325333-29.88563-34.891852 0 0 95.269926-153.979259 278.110815-153.979259z" fill="#8EA1B3" p-id="2532"></path><path d="M510.634667 823.864889s-107.406222-2.427259-178.972445-156.634074c0 0-211.057778 62.767407-238.174815 218.94637 0 0 172.86637 77.141333 417.185186 77.141334s417.185185-77.141333 417.185185-77.141334c-27.154963-156.178963-238.554074-217.429333-238.554074-217.429333-77.103407 141.160296-178.631111 155.117037-178.631111 155.117037z" fill="#BBCEDF" p-id="2533"></path><path d="M366.857481 626.763852a388.171852 388.171852 0 0 1 149.010963 121.818074s-69.859556 30.833778-110.174814 80.668444a268.591407 268.591407 0 0 0-92.994371-155.420444l54.158222-47.066074z" fill="#8EA1B3" p-id="2534"></path><path d="M647.926519 626.194963s-87.495111 41.832296-147.304297 123.790222c0 0 70.238815 30.037333 111.236741 79.189334a267.870815 267.870815 0 0 1 90.832593-156.596149l-54.765037-46.383407z" fill="#8EA1B3" p-id="2535"></path></svg>