<?xml version="1.0" standalone="no"?><!DOCTYPE svg PUBLIC "-//W3C//DTD SVG 1.1//EN" "http://www.w3.org/Graphics/SVG/1.1/DTD/svg11.dtd"><svg class="icon" width="200px" height="81.27px" viewBox="0 0 2520 1024" version="1.1" xmlns="http://www.w3.org/2000/svg"><path d="M1908.52948455 221.86666667c153.6 0 290.13333333 136.53333334 290.13333332 290.13333333s-136.53333334 290.13333333-290.13333332 290.13333333H611.46281788c-153.6 0-290.13333333-136.53333334-290.13333334-290.13333333s136.53333334-290.13333333 290.13333334-290.13333333h1297.06666667m0-256H611.46281788C304.26281788-34.13333333 65.32948455 204.8 65.32948455 512s238.93333333 546.13333333 546.13333333 546.13333333h1297.06666667C2215.72948455 1058.13333333 2454.66281788 819.2 2454.66281788 512S2215.72948455-34.13333333 1908.52948455-34.13333333z" fill="#00BCEB" /><path d="M713.86281786 512m-136.53333332 0a136.53333334 136.53333334 0 1 0 273.06666666 0 136.53333334 136.53333334 0 1 0-273.06666666 0Z" fill="#00BCEB" /><path d="M1038.12948454 512m-136.53333333 0a136.53333334 136.53333334 0 1 0 273.06666666 0 136.53333334 136.53333334 0 1 0-273.06666666 0Z" fill="#00BCEB" /><path d="M1379.46281788 512m-136.53333335 0a136.53333334 136.53333334 0 1 0 273.06666667 0 136.53333334 136.53333334 0 1 0-273.06666667 0Z" fill="#00BCEB" /></svg>