<svg xmlns="http://www.w3.org/2000/svg" width="20" height="20" viewBox="0 0 20 20" fill="none">
  <path fill-rule="evenodd" clip-rule="evenodd" d="M11 1H9C4.6 1 1 4.6 1 9V11C1 15.4 4.6 19 9 19H11C15.4 19 19 15.4 19 11V9C19 4.6 15.4 1 11 1ZM14.3 13.7C14.3 13.9 14.2 14 14.1 14.1C14 14.2 13.9 14.3 13.7 14.3H11.8C11.6 14.3 11.5 14.2 11.3 14.1C11.2 14 11 13.9 11 13.7L7.8 8.6V13.7C7.8 13.9 7.7 14 7.6 14.1C7.5 14.2 7.4 14.3 7.2 14.3H6.2C6 14.3 5.9 14.2 5.8 14.1C5.7 14 5.6 13.9 5.6 13.7V6.2C5.6 6 5.7 5.9 5.8 5.8C5.9 5.7 6 5.7 6.2 5.7H7.9C8 5.7 8.2 5.8 8.3 5.9C8.5 6 8.6 6.1 8.7 6.3L12.2 11.9V6.2C12.2 6 12.3 5.9 12.4 5.8C12.5 5.7 12.6 5.6 12.8 5.6H13.8C14 5.6 14.1 5.7 14.2 5.8C14.3 5.9 14.4 6 14.4 6.2V13.7H14.3Z" fill="#8EA1B3"/>
</svg>