<?xml version="1.0" standalone="no"?><!DOCTYPE svg PUBLIC "-//W3C//DTD SVG 1.1//EN" "http://www.w3.org/Graphics/SVG/1.1/DTD/svg11.dtd"><svg t="1690526360414" class="icon" viewBox="0 0 1024 1024" version="1.1" xmlns="http://www.w3.org/2000/svg" p-id="4140" xmlns:xlink="http://www.w3.org/1999/xlink" width="32" height="32"><path d="M512 465.59375c46.40625-33.75 101.25-50.625 156.09375-50.625 143.4375 0 261.5625 118.125 261.5625 261.5625S815.75 933.875 672.3125 933.875c-54.84375 0-113.90625-16.875-156.09375-50.625-50.625 33.75-105.46875 50.625-160.3125 50.625C208.25 933.875 90.125 815.75 90.125 672.3125s118.125-261.5625 261.5625-261.5625c59.0625 0 113.90625 21.09375 160.3125 54.84375z" fill="#BBCEDF" p-id="4141"></path><path d="M617.46875 672.3125c0 46.40625-12.65625 92.8125-33.75 130.78125 25.3125 16.875 54.84375 25.3125 88.59375 25.3125 88.59375 0 156.09375-71.71875 156.09375-156.09375s-71.71875-156.09375-156.09375-156.09375c-29.53125 0-63.28125 8.4375-88.59375 25.3125 21.09375 42.1875 33.75 84.375 33.75 130.78125z" fill="#FFFFFF" p-id="4142"></path><path d="M250.4375 351.6875c0 143.4375 118.125 261.5625 261.5625 261.5625s261.5625-118.125 261.5625-261.5625S655.4375 90.125 512 90.125 250.4375 208.25 250.4375 351.6875z" fill="#8EA1B3" p-id="4143"></path></svg>