<svg t="1697681566344" class="icon" viewBox="0 0 1024 1024" version="1.1" xmlns="http://www.w3.org/2000/svg" p-id="5142" width="20" height="20"><path d="M377.7536 512c-0.71680001 66.7648-11.9808 127.3856-17.5104 170.24-6.5536 50.2784 64.8704 82.0736 106.1888 40.448 18.944-18.944 54.784-52.0704 74.5984-70.912a4161.3824 4161.3824 0 0 1 104.704-94.72c13.312-11.5712 19.5584-30.20800001 19.9168-45.3632-0.3584-15.1552-6.6048-33.792-19.9168-45.3632a4158.976 4158.976 0 0 1-104.704-94.5664c-19.8656-18.944-55.7056-52.48-74.5984-71.5264-41.3184-41.5232-112.7424-9.728-106.1888 40.4992 5.5296 42.9056 16.7936 104.55040001 17.5104 171.264z" fill="#556677" p-id="5143"></path></svg>