<svg xmlns="http://www.w3.org/2000/svg" width="20" height="20" viewBox="0 0 20 20" fill="none">
  <path fill-rule="evenodd" clip-rule="evenodd" d="M10 1C5 1 1 5 1 10C1 15 5 19 10 19C15 19 19 15 19 10C19 5 15 1 10 1ZM14.3 12.5C14.1 12.9 13.6 13 13.2 12.8L10.8 11.4V14.2C10.8 14.6 10.4 15 10 15C9.6 15 9.2 14.6 9.2 14.2V11.4L6.8 12.8C6.4 13 5.9 12.9 5.7 12.5C5.5 12.1 5.6 11.6 6 11.4L8.4 10L6 8.6C5.6 8.4 5.4 7.9 5.7 7.5C5.9 7.1 6.4 7 6.8 7.2L9.2 8.6V5.8C9.2 5.4 9.6 5 10 5C10.4 5 10.8 5.4 10.8 5.8V8.6L13.2 7.2C13.6 7 14.1 7.1 14.3 7.5C14.5 7.9 14.4 8.4 14 8.6L11.6 10L14 11.4C14.4 11.6 14.6 12.1 14.3 12.5Z" fill="#8EA1B3"/>
</svg>