<?xml version="1.0" standalone="no"?><!DOCTYPE svg PUBLIC "-//W3C//DTD SVG 1.1//EN" "http://www.w3.org/Graphics/SVG/1.1/DTD/svg11.dtd"><svg t="1687163261487" class="icon" viewBox="0 0 1024 1024" version="1.1" xmlns="http://www.w3.org/2000/svg" p-id="2631" xmlns:xlink="http://www.w3.org/1999/xlink" width="32" height="32"><path d="M0 0m292.571429 0l438.857142 0q292.571429 0 292.571429 292.571429l0 438.857142q0 292.571429-292.571429 292.571429l-438.857142 0q-292.571429 0-292.571429-292.571429l0-438.857142q0-292.571429 292.571429-292.571429Z" fill="#E7F0F8" p-id="2632"></path><path d="M511.926857 768a27.428571 27.428571 0 0 1 27.428572 27.428571v54.857143a27.428571 27.428571 0 1 1-54.857143 0v-54.857143a27.428571 27.428571 0 0 1 27.428571-27.428571z m-181.174857-74.934857a27.428571 27.428571 0 0 1 2.669714 35.730286l-2.669714 3.072-38.802286 38.838857a27.428571 27.428571 0 0 1-41.472-35.730286l2.669715-3.072 38.838857-38.838857a27.428571 27.428571 0 0 1 38.765714 0z m400.896 0l38.802286 38.838857a27.428571 27.428571 0 0 1-38.765715 38.765714l-38.838857-38.802285a27.428571 27.428571 0 1 1 38.765715-38.765715zM512 329.142857a182.857143 182.857143 0 1 1 0 365.714286 182.857143 182.857143 0 0 1 0-365.714286z m0 54.857143a128 128 0 1 0 0 256 128 128 0 0 0 0-256z m338.285714 100.571429a27.428571 27.428571 0 1 1 0 54.857142h-54.930285a27.428571 27.428571 0 1 1 0-54.857142h54.893714z m-622.08-0.146286a27.428571 27.428571 0 1 1 0 54.857143h-54.857143a27.428571 27.428571 0 0 1 0-54.857143h54.857143z m542.244572-231.277714a27.428571 27.428571 0 0 1 2.669714 35.730285l-2.669714 3.072-38.765715 38.765715a27.428571 27.428571 0 0 1-41.472-35.693715l2.669715-3.072 38.765714-38.765714a27.428571 27.428571 0 0 1 38.802286 0z m-478.500572 0l38.765715 38.802285a27.428571 27.428571 0 0 1-38.765715 38.765715l-38.802285-38.765715a27.428571 27.428571 0 1 1 38.765714-38.765714zM511.926857 146.285714a27.428571 27.428571 0 0 1 27.428572 27.428572v54.857143a27.428571 27.428571 0 1 1-54.857143 0v-54.857143a27.428571 27.428571 0 0 1 27.428571-27.428572z" fill="#5B748B" p-id="2633"></path></svg>