<?xml version="1.0" standalone="no"?><!DOCTYPE svg PUBLIC "-//W3C//DTD SVG 1.1//EN" "http://www.w3.org/Graphics/SVG/1.1/DTD/svg11.dtd"><svg t="1687253718555" class="icon" viewBox="0 0 1024 1024" version="1.1" xmlns="http://www.w3.org/2000/svg" p-id="2502" width="32" height="32" xmlns:xlink="http://www.w3.org/1999/xlink"><path d="M156.2112 854.016a356.0448 356.0448 0 0 1 356.7616-356.7616 356.0448 356.0448 0 0 1 356.7616 356.7616l-249.7024 57.6512a469.9136 469.9136 0 0 1-214.0672 0L156.16 854.016z" fill="#BBCEDF" p-id="2503"></path><path d="M265.984 351.7952a246.9888 246.9888 0 1 0 493.9776 0 246.9888 246.9888 0 0 0-493.9776 0z" fill="#8EA1B3" p-id="2504"></path><path d="M513.024 653.6704a42.1888 42.1888 0 0 1-41.216-41.1648v-82.3296c0-21.9648 19.2-41.1648 41.1648-41.1648 21.9648 0 41.1648 19.2 41.1648 41.1648v82.3296a42.1888 42.1888 0 0 1-41.1648 41.1648z" fill="#FFFFFF" p-id="2505"></path></svg>