<svg t="1701345932404" class="icon" viewBox="0 0 1024 1024" version="1.1" xmlns="http://www.w3.org/2000/svg" p-id="8419" width="20" height="20"><path d="M0 0m303.407407 0l417.185186 0q303.407407 0 303.407407 303.407407l0 417.185186q0 303.407407-303.407407 303.407407l-417.185186 0q-303.407407 0-303.407407-303.407407l0-417.185186q0-303.407407 303.407407-303.407407Z" fill="#E7F0F8" p-id="8420"></path><path d="M500.242963 591.644444L409.979259 493.037037l90.263704-98.607407a33.374815 33.374815 0 0 0 0-43.994074 26.927407 26.927407 0 0 0-40.201482 0l-110.364444 120.604444a33.374815 33.374815 0 0 0 0 43.994074l110.364444 120.604445a26.927407 26.927407 0 0 0 40.201482 0 33.374815 33.374815 0 0 0 0-43.994075M674.322963 591.644444L584.059259 493.037037l90.263704-98.607407a33.374815 33.374815 0 0 0 0-43.994074 26.927407 26.927407 0 0 0-40.201482 0l-110.364444 120.604444a33.374815 33.374815 0 0 0 0 43.994074l110.364444 120.604445a26.927407 26.927407 0 0 0 40.201482 0 33.374815 33.374815 0 0 0 0-43.994075" fill="#5B748B" p-id="8421"></path></svg>