<?xml version="1.0" standalone="no"?><!DOCTYPE svg PUBLIC "-//W3C//DTD SVG 1.1//EN" "http://www.w3.org/Graphics/SVG/1.1/DTD/svg11.dtd"><svg t="1687163870141" class="icon" viewBox="0 0 1024 1024" version="1.1" xmlns="http://www.w3.org/2000/svg" p-id="2932" width="32" height="32" xmlns:xlink="http://www.w3.org/1999/xlink"><path d="M0 0m292.571429 0l438.857142 0q292.571429 0 292.571429 292.571429l0 438.857142q0 292.571429-292.571429 292.571429l-438.857142 0q-292.571429 0-292.571429-292.571429l0-438.857142q0-292.571429 292.571429-292.571429Z" fill="#E7F0F8" p-id="2933"></path><path d="M512 218.916571c11.52 0 22.857143 0.658286 34.011429 1.938286a182.857143 182.857143 0 1 0 256.585142 256.658286A292.571429 292.571429 0 1 1 512 218.916571z m-78.262857 68.059429l-2.998857 1.024a237.714286 237.714286 0 1 0 304.713143 304.713143l1.024-2.998857a237.641143 237.641143 0 0 1-68.096 12.982857l-10.093715 0.219428a237.714286 237.714286 0 0 1-228.059428-304.932571l3.510857-11.008z" fill="#5B748B" p-id="2934"></path></svg>