<?xml version="1.0" standalone="no"?><!DOCTYPE svg PUBLIC "-//W3C//DTD SVG 1.1//EN" "http://www.w3.org/Graphics/SVG/1.1/DTD/svg11.dtd"><svg t="1690527125338" class="icon" viewBox="0 0 1280 1024" version="1.1" xmlns="http://www.w3.org/2000/svg" p-id="5026" xmlns:xlink="http://www.w3.org/1999/xlink" width="40" height="32"><path d="M311.3 511.70000029c0.52499971-43.49999971 8.775-82.95000029 12.89999971-110.85000029 4.79999971-32.69999971-47.77499971-53.39999971-78.14999971-26.39999971-13.87500029 12.44999971-40.275 33.975-54.9 46.19999971-18.60000029 15.75-57.30000029 46.50000029-77.02499971 61.72499971A39.44999971 39.44999971 0 0 0 99.50000029 511.84999971a39.6 39.6 0 0 0 14.625 29.55000058c19.72500029 15.14999971 58.5 45.9 77.02499971 61.57499942 14.625 12.30000029 41.02499971 34.2 54.9 46.50000029 30.375 27.15000029 82.95000029 6.37499971 78.14999971-26.25000029-4.12499971-27.97499971-12.375-68.10000029-12.89999971-111.52499942z" p-id="5027"></path><path d="M99.50000029 62m59.99999942 0l930.00000058 0q60.00000029 0 59.99999942 60.00000029l0 0q0 60.00000029-59.99999942 59.99999942l-930.00000058 0q-60.00000029 0-59.99999942-59.99999942l0 0q0-60.00000029 59.99999942-60.00000029Z" p-id="5028"></path><path d="M159.49999971 842.00000029h930.00000058a60.00000029 60.00000029 0 1 1 0 119.99999971H159.49999971a60.00000029 60.00000029 0 1 1 0-119.99999971zM492.49999971 451.77499971h597.00000058a60.00000029 60.00000029 0 1 1 0 120.00000058H492.49999971a60.00000029 60.00000029 0 1 1 0-120.00000058z" p-id="5029"></path></svg>