<svg t="1697681801598" class="icon" viewBox="0 0 1024 1024" version="1.1" xmlns="http://www.w3.org/2000/svg" p-id="4993" width="20" height="20"><path d="M512 377.7536c-66.7648-0.71680001-127.3856-11.9808-170.24-17.5104-50.2784-6.5536-82.0736 64.8704-40.448 106.1888 18.944 18.944 52.0704 54.784 70.912 74.5984a4161.3824 4161.3824 0 0 1 94.72 104.704c11.5712 13.312 30.20800001 19.5584 45.3632 19.9168 15.1552-0.3584 33.792-6.6048 45.3632-19.9168a4158.976 4158.976 0 0 1 94.5664-104.704c18.944-19.8656 52.48-55.7056 71.5264-74.5984 41.5232-41.3184 9.728-112.7424-40.4992-106.1888-42.9056 5.5296-104.55040001 16.7936-171.264 17.5104z" fill="#556677" p-id="4994"></path></svg>