<?xml version="1.0" standalone="no"?><!DOCTYPE svg PUBLIC "-//W3C//DTD SVG 1.1//EN" "http://www.w3.org/Graphics/SVG/1.1/DTD/svg11.dtd"><svg t="1694141839062" class="icon" viewBox="0 0 1024 1024" version="1.1" xmlns="http://www.w3.org/2000/svg" p-id="4993" xmlns:xlink="http://www.w3.org/1999/xlink" width="200" height="200"><path d="M844.88126949 733.92084673h-665.76253898C118.09049683 733.92084673 68.15830653 680.6598439 68.15830653 615.54826718V230.91505593C68.15830653 165.80347919 118.09049683 112.54247636 179.11873051 112.54247636h665.76253898C905.90950317 112.54247636 955.84169347 165.80347919 955.84169347 230.91505593v384.63321125C955.84169347 680.6598439 905.90950317 733.92084673 844.88126949 733.92084673z" fill="#8EA1B3" p-id="4994"></path><path d="M335.92800051 784.65195244C297.26938939 837.33596054 334.86278079 911.45752364 400.10750969 911.45752364h222.45345659c65.28911254 0 102.8381203-74.16594674 64.22389282-126.8055712l-111.22672829-151.35001805a79.66958356 79.66958356 0 0 0-128.403402 0l-111.2267283 151.35001805z" fill="#BBCEDF" p-id="4995"></path><path d="M512 497.22007127c-23.65676172 0-44.38416983-20.7274069-44.38416983-44.38416861V334.4633231c0-23.65676172 20.7274069-44.38416983 44.38416983-44.38416983 23.65676172 0 44.38416983 20.7274069 44.38416983 44.38416983v118.37257956c0 23.65676172-20.7274069 44.38416983-44.38416983 44.38416861z" fill="#FFFFFF" p-id="4996"></path></svg>