<?xml version="1.0" standalone="no"?><!DOCTYPE svg PUBLIC "-//W3C//DTD SVG 1.1//EN" "http://www.w3.org/Graphics/SVG/1.1/DTD/svg11.dtd"><svg t="1687253771988" class="icon" viewBox="0 0 1024 1024" version="1.1" xmlns="http://www.w3.org/2000/svg" p-id="2902" xmlns:xlink="http://www.w3.org/1999/xlink" width="32" height="32"><path d="M153.6 153.6v716.8h614.4c50.432 0 102.4-51.968 102.4-102.4V153.6H153.6z" fill="#8EA1B3" p-id="2903"></path><path d="M511.3856 317.2352c21.9136 0 41.1648 19.2 41.1648 41.1648a42.1888 42.1888 0 0 1-41.1648 41.1648h-38.5024l0.0512 106.24a42.1888 42.1888 0 0 1-41.1648 41.1648 42.1888 42.1888 0 0 1-41.1648-41.1648V399.5648h-37.888A42.1888 42.1888 0 0 1 311.6032 358.4c0-21.9648 19.2512-41.1648 41.216-41.1648h158.6176z" fill="#FFFFFF" p-id="2904"></path><path d="M472.9344 791.552c0 27.2896 3.072 54.5792 12.1344 78.848h279.1424C821.8624 870.4 870.4 821.8624 870.4 764.2112v-242.688c-33.3824-15.2064-69.7856-21.2992-106.1888-21.2992a291.328 291.328 0 0 0-291.2768 291.328z" fill="#AABDCF" p-id="2905"></path></svg>