<svg t="1701346056596" class="icon" viewBox="0 0 1024 1024" version="1.1" xmlns="http://www.w3.org/2000/svg" p-id="8569" width="20" height="20"><path d="M0 0m303.407407 0l417.185186 0q303.407407 0 303.407407 303.407407l0 417.185186q0 303.407407-303.407407 303.407407l-417.185186 0q-303.407407 0-303.407407-303.407407l0-417.185186q0-303.407407 303.407407-303.407407Z" fill="#E7F0F8" p-id="8570"></path><path d="M523.757037 591.644444a33.374815 33.374815 0 0 0 0 43.994075 26.927407 26.927407 0 0 0 40.201482 0l110.364444-120.604445a33.374815 33.374815 0 0 0 0-43.994074l-110.364444-120.604444a26.927407 26.927407 0 0 0-40.201482 0 33.374815 33.374815 0 0 0 0 43.994074l90.263704 98.607407-90.263704 98.607407M349.677037 591.644444a33.374815 33.374815 0 0 0 0 43.994075 26.927407 26.927407 0 0 0 40.201482 0l110.364444-120.604445a33.374815 33.374815 0 0 0 0-43.994074l-110.364444-120.604444a26.927407 26.927407 0 0 0-40.201482 0 33.374815 33.374815 0 0 0 0 43.994074L439.940741 493.037037l-90.263704 98.607407" fill="#5B748B" p-id="8571"></path></svg>