<?xml version="1.0" standalone="no"?><!DOCTYPE svg PUBLIC "-//W3C//DTD SVG 1.1//EN" "http://www.w3.org/Graphics/SVG/1.1/DTD/svg11.dtd"><svg t="1687253784630" class="icon" viewBox="0 0 1024 1024" version="1.1" xmlns="http://www.w3.org/2000/svg" p-id="3050" xmlns:xlink="http://www.w3.org/1999/xlink" width="32" height="32"><path d="M337.92 409.6V322.56c0-87.04 71.68-153.6 168.96-153.6 92.16 0 158.72 66.56 158.72 153.6v10.24c5.12 20.48 20.48 30.72 40.96 25.6 10.24-5.12 20.48-15.36 25.6-25.6v-10.24c0-61.44-20.48-117.76-66.56-158.72-40.96-40.96-97.28-61.44-158.72-61.44-61.44 0-117.76 20.48-163.84 61.44-46.08 40.96-71.68 97.28-71.68 158.72v92.16c-66.56 15.36-112.64 76.8-112.64 143.36v215.04C158.72 855.04 225.28 921.6 307.2 921.6h414.72c81.92 0 148.48-66.56 148.48-148.48v-215.04C865.28 476.16 798.72 409.6 716.8 409.6H337.92z" fill="#8EA1B3" p-id="3051"></path><path d="M506.88 102.4c56.32 0 117.76 20.48 158.72 61.44 40.96 40.96 66.56 102.4 66.56 158.72v10.24c0 15.36-10.24 25.6-25.6 25.6-20.48 5.12-35.84-5.12-40.96-25.6v-10.24c0-87.04-66.56-153.6-158.72-153.6s-168.96 66.56-168.96 153.6V409.6h-10.24c-20.48 0-40.96 0-56.32 5.12V322.56c0-61.44 25.6-117.76 71.68-158.72 46.08-40.96 102.4-61.44 163.84-61.44z" fill="#BBCEDF" p-id="3052"></path><path d="M517.12 742.4c-20.48 0-40.96-20.48-40.96-40.96v-81.92c0-20.48 20.48-40.96 40.96-40.96s40.96 20.48 40.96 40.96v81.92c0 20.48-15.36 40.96-40.96 40.96z" fill="#FFFFFF" p-id="3053"></path></svg>