<?xml version="1.0" standalone="no"?><!DOCTYPE svg PUBLIC "-//W3C//DTD SVG 1.1//EN" "http://www.w3.org/Graphics/SVG/1.1/DTD/svg11.dtd"><svg class="icon" width="200px" height="200.00px" viewBox="0 0 1024 1024" version="1.1" xmlns="http://www.w3.org/2000/svg"><path d="M693.39627331 377.03062633V267.34915863H330.60372669v105.46295004c-8.43703611 4.21851763-25.31110748 16.8740722-25.3111075 46.40369732 0 37.96666206 33.74814358 50.62221579 46.40369734 50.6222158 8.43703611 54.84073343 33.74814358 109.68146768 92.80739547 130.77405753-4.21851763 21.09258983-12.65555374 50.62221579-63.27776953 50.62221578l126.55553989 80.15184174 122.33702142-84.37035937s-46.40369814 0-50.62221579-50.6222158c59.05925189-25.31110748 80.15184173-75.93332327 88.58887702-130.77405752 12.65555374 0 50.62221579-12.65555374 50.62221579-50.62221579-4.21851763-21.09258983-12.65555374-33.74814358-25.31110749-37.96666205z m-21.09258984 8.43703608v-4.21851764 4.21851764z" fill="#E7F0F8" /><path d="M520.43703611 90.17140378s198.27034553-8.43703611 198.2703447 202.48886316c0 0 0 63.27776953-37.96666123 109.68146768L676.52220111 301.09730304s-168.74071958 46.40369814-324.82588458 4.21851764c0 0-12.65555374 25.31110748-8.43703611 109.68146768 0 0-59.05925189-42.18517969-42.18517968-147.64812973 0 0 8.43703611-37.96666206-25.31110749-33.74814359-8.43703611 0 80.15184173-143.42961127 244.67404286-143.42961126z" fill="#8EA1B3" /><path d="M512 803.10094247s-97.02591394-4.21851763-164.52220111-143.42961126c0 0-194.05182706 59.05925189-215.1444169 202.48886315 0 0 156.08516501 71.71480564 379.66661801 71.71480564s379.66661801-71.71480564 379.66661801-71.71480564c-25.31110748-143.42961127-215.14441689-202.48886316-215.1444169-202.48886315-71.71480564 130.77405753-164.52220111 143.42961127-164.52220111 143.42961126z" fill="#BBCEDF" /><path d="M634.33702143 621.70466916s-71.71480564 37.96666206-126.55553907 105.46295004C474.03333794 680.76392105 427.62964062 647.01577747 377.00742483 621.70466916l-50.62221578 42.18517969c42.18517969 37.96666206 75.93332327 88.58887783 84.37035936 143.42961209 29.52962595-37.96666206 75.93332327-63.27776953 92.80739548-71.71480647 16.8740722 8.43703611 63.27776953 33.74814358 97.02591394 71.71480647 8.43703611-54.84073343 37.96666206-105.46294922 84.37035938-143.42961209l-50.62221578-42.18517969z" fill="#8EA1B3" /></svg>