<?xml version="1.0" standalone="no"?><!DOCTYPE svg PUBLIC "-//W3C//DTD SVG 1.1//EN" "http://www.w3.org/Graphics/SVG/1.1/DTD/svg11.dtd"><svg t="1698756081449" class="icon" viewBox="0 0 1024 1024" version="1.1" xmlns="http://www.w3.org/2000/svg" p-id="1334" xmlns:xlink="http://www.w3.org/1999/xlink" width="32" height="32"><path d="M512 51.2c-256 0-460.8 204.8-460.8 460.8s204.8 460.8 460.8 460.8 460.8-204.8 460.8-460.8-204.8-460.8-460.8-460.8z m220.16 588.8c-10.24 20.48-35.84 25.6-56.32 15.36l-122.88-71.68v143.36c0 20.48-20.48 40.96-40.96 40.96s-40.96-20.48-40.96-40.96v-143.36l-122.88 71.68c-20.48 10.24-46.08 5.12-56.32-15.36-10.24-20.48-5.12-46.08 15.36-56.32L430.08 512 307.2 440.32c-20.48-10.24-30.72-35.84-15.36-56.32 10.24-20.48 35.84-25.6 56.32-15.36l122.88 71.68V296.96c0-20.48 20.48-40.96 40.96-40.96s40.96 20.48 40.96 40.96v143.36l122.88-71.68c20.48-10.24 46.08-5.12 56.32 15.36s5.12 46.08-15.36 56.32L593.92 512l122.88 71.68c20.48 10.24 30.72 35.84 15.36 56.32z" p-id="1335"></path></svg>