<?xml version="1.0" standalone="no"?><!DOCTYPE svg PUBLIC "-//W3C//DTD SVG 1.1//EN" "http://www.w3.org/Graphics/SVG/1.1/DTD/svg11.dtd"><svg t="1698756105741" class="icon" viewBox="0 0 1024 1024" version="1.1" xmlns="http://www.w3.org/2000/svg" p-id="1642" xmlns:xlink="http://www.w3.org/1999/xlink" width="32" height="32"><path d="M563.2 51.2H460.8C235.52 51.2 51.2 235.52 51.2 460.8v102.4c0 225.28 184.32 409.6 409.6 409.6h102.4c225.28 0 409.6-184.32 409.6-409.6V460.8c0-225.28-184.32-409.6-409.6-409.6z m168.96 650.24c0 10.24-5.12 15.36-10.24 20.48-5.12 5.12-10.24 10.24-20.48 10.24h-97.28c-10.24 0-15.36-5.12-25.6-10.24-5.12-5.12-15.36-10.24-15.36-20.48L399.36 440.32v261.12c0 10.24-5.12 15.36-10.24 20.48-5.12 5.12-10.24 10.24-20.48 10.24h-51.2c-10.24 0-15.36-5.12-20.48-10.24-5.12-5.12-10.24-10.24-10.24-20.48V317.44c0-10.24 5.12-15.36 10.24-20.48 5.12-5.12 10.24-5.12 20.48-5.12h87.04c5.12 0 15.36 5.12 20.48 10.24 10.24 5.12 15.36 10.24 20.48 20.48l179.2 286.72V317.44c0-10.24 5.12-15.36 10.24-20.48 5.12-5.12 10.24-10.24 20.48-10.24h51.2c10.24 0 15.36 5.12 20.48 10.24 5.12 5.12 10.24 10.24 10.24 20.48l-5.12 384z" p-id="1643"></path></svg>