<svg t="1701332015311" class="icon" viewBox="0 0 1024 1024" version="1.1" xmlns="http://www.w3.org/2000/svg" p-id="7819" width="20" height="20"><path d="M380.001524 327.046095a48.761905 48.761905 0 0 1 68.949333 0l126.098286 126.098286a48.761905 48.761905 0 0 1 0 68.949333l-126.098286 126.098286a48.761905 48.761905 0 0 1-68.949333 0l-126.098286-126.098286a48.761905 48.761905 0 0 1 0-68.949333l126.098286-126.098286z" fill="#FBD070" p-id="7820"></path><path d="M550.66819 302.08a48.761905 48.761905 0 0 1 68.949334 0l150.479238 150.479238a48.761905 48.761905 0 0 1 0 68.949333l-150.479238 150.479239a48.761905 48.761905 0 0 1-68.949334 0l-150.479238-150.479239a48.761905 48.761905 0 0 1 0-68.949333l150.479238-150.479238z" fill="#3BE4E5" p-id="7821"></path></svg>