<svg id="图层_1" data-name="图层 1" xmlns="http://www.w3.org/2000/svg" viewBox="0 0 20 20"><defs><style>.cls-1{fill:#ddf1f5;fill-rule:evenodd;}.cls-2{fill:#e5e5e5;}.cls-3{fill:#b0b0b0;}.cls-4{fill:#606060;}</style></defs><path id="Fill_1" data-name="Fill 1" class="cls-1" d="M10,19c5,0,9-.84,9-1.94s-4.12-1.93-9-1.93S1,16,1,17.06,5,19,10,19Z"/><ellipse class="cls-2" cx="10" cy="17.06" rx="9.01" ry="1.94"/><path class="cls-3" d="M2.43,9.65A2.27,2.27,0,0,0,.15,11.93V14.2a2.26,2.26,0,0,0,2.28,2.27H17.58a2.26,2.26,0,0,0,2.28-2.27V11.93a2.27,2.27,0,0,0-2.28-2.28Z"/><path class="cls-4" d="M10,1a5.34,5.34,0,0,1,5.41,5.48c0,2.27-3.06,6.19-4.62,8.07a1.11,1.11,0,0,1-1.73,0c-1.49-1.8-4.54-5.8-4.54-8.07A5.45,5.45,0,0,1,10,1ZM8.36,4.68a.51.51,0,0,0-.47.47v3.6A.55.55,0,0,0,9,8.75V5.15A.67.67,0,0,0,8.36,4.68Zm2.74,0h-1a.46.46,0,0,0-.47.47v3.6a.45.45,0,0,0,.47.47h.08a.45.45,0,0,0,.47-.47V7.81h.78c1.1-.08,1.72-.55,1.72-1.56S12.43,4.68,11.1,4.68Zm-.16.86c.71,0,1,.24,1,.71s-.31.78-1,.7h-.31V5.54Z"/></svg>