<svg id="图层_1" data-name="图层 1" xmlns="http://www.w3.org/2000/svg" viewBox="0 0 20 20"><defs><style>.cls-1{fill:#e5e5e5;}.cls-2{fill:#b0b0b0;}.cls-2,.cls-3{fill-rule:evenodd;}.cls-3{fill:#606060;}</style></defs><path id="路径" class="cls-1" d="M1,17.23c0,1.1,4,1.94,9,1.94s9-.84,9-1.94-4.12-1.93-9-1.93-9,.84-9,1.93Z"/><path class="cls-2" d="M15.34,4.78H12.73a2.41,2.41,0,0,1-2.16-1.31L10.33,3a2.43,2.43,0,0,0-2.16-1.3H4.74A2.45,2.45,0,0,0,2.3,4.12V13.9a2.45,2.45,0,0,0,2.44,2.45h10.6a2.45,2.45,0,0,0,2.44-2.45V7.22A2.45,2.45,0,0,0,15.34,4.78Zm-8.07.06H5.48A.82.82,0,0,1,4.66,4a.82.82,0,0,1,.82-.82H7.27A.82.82,0,0,1,8.09,4,.82.82,0,0,1,7.27,4.84Z"/><path id="Union" class="cls-3" d="M7.15,8.11a.82.82,0,1,0,0,1.63h5.7a.82.82,0,1,0,0-1.63Zm0,3.26a.82.82,0,1,0,0,1.63h5.7a.82.82,0,1,0,0-1.63Z"/></svg>