<svg id="图层_1" data-name="图层 1" xmlns="http://www.w3.org/2000/svg" viewBox="0 0 20 20"><defs><style>.cls-1{fill:#e5e5e5;}.cls-2{fill:#606060;}.cls-3{fill:#b0b0b0;fill-rule:evenodd;}</style></defs><path class="cls-1" d="M1.06,17c0,1.09,4,2,9,2s9-.88,9-2h0c0-1.08-4-2-9-2S1.06,16,1.06,17Z"/><path id="Vector" class="cls-2" d="M4.58,4.73V2.27a1,1,0,0,1,1.06-.91h8.81a1,1,0,0,1,1.07.91V4.73Z"/><path id="Subtract" class="cls-3" d="M3.94,3.89H16.16A1.9,1.9,0,0,1,18,5.76v8.87a1.9,1.9,0,0,1-1.88,1.87H3.94a1.89,1.89,0,0,1-1.88-1.87V5.76A1.89,1.89,0,0,1,3.94,3.89ZM14.1,6.3a2.45,2.45,0,0,0-.81-.54,2.45,2.45,0,0,0-1.89,0,2.31,2.31,0,0,0-.8.54L9.92,7a.56.56,0,0,0,.79.79l.68-.68a1.35,1.35,0,0,1,1-.41,1.37,1.37,0,0,1,.76.24,1.32,1.32,0,0,1,.5.62,1.33,1.33,0,0,1,.08.79,1.39,1.39,0,0,1-.37.71l-1.62,1.61a1.32,1.32,0,0,1-1,.42,1.38,1.38,0,0,1-1-.42.59.59,0,0,0-.79,0,.52.52,0,0,0-.16.37.51.51,0,0,0,.13.37l0,0a2.46,2.46,0,0,0,1.75.73,2.6,2.6,0,0,0,.95-.19,2.57,2.57,0,0,0,.8-.54L14.1,9.8a2.47,2.47,0,0,0,0-3.5ZM9.54,12.8l-.68.68a1.34,1.34,0,0,1-1.73.17,1.32,1.32,0,0,1-.5-.62,1.33,1.33,0,0,1-.08-.79,1.36,1.36,0,0,1,.37-.7L8.54,9.92a1.29,1.29,0,0,1,1-.41,1.37,1.37,0,0,1,1,.41.59.59,0,0,0,.79,0,.59.59,0,0,0,0-.8,2.52,2.52,0,0,0-2.7-.54,2.57,2.57,0,0,0-.8.54L6.15,10.74a2.57,2.57,0,0,0-.54.8,2.6,2.6,0,0,0-.19,1,2.46,2.46,0,0,0,.73,1.75A2.46,2.46,0,0,0,7.9,15a2.37,2.37,0,0,0,.95-.19,2.41,2.41,0,0,0,.8-.54l.68-.67a.59.59,0,0,0,0-.8.61.61,0,0,0-.79,0Z"/></svg>