<svg id="图层_1" data-name="图层 1" xmlns="http://www.w3.org/2000/svg" viewBox="0 0 20 20"><defs><style>.cls-1{fill:#e5e5e5;}.cls-2{fill:#606060;}.cls-3{fill:#b0b0b0;}</style></defs><path class="cls-1" d="M1,17c0,1.1,4,2,9,2s9-.9,9-2h0c0-1.1-4-2-9-2S1,15.9,1,17Z"/><path class="cls-2" d="M4.46,1.44A.77.77,0,0,1,5.16,1H8.47a.77.77,0,0,1,.77.77h0V5.55a.76.76,0,0,1-.77.76H3.53a.76.76,0,0,1-.7-1.06Zm6.3.3A.77.77,0,0,1,11.53,1h3.31a.77.77,0,0,1,.7.47l1.63,3.81a.76.76,0,0,1-.4,1,.77.77,0,0,1-.3.06H11.53a.76.76,0,0,1-.77-.76Z"/><path class="cls-3" d="M3.9,7.08H16.1A1.53,1.53,0,0,1,17.63,8.6h0v6.1a1.54,1.54,0,0,1-1.53,1.53H3.9A1.54,1.54,0,0,1,2.37,14.7h0V8.6A1.53,1.53,0,0,1,3.9,7.08Zm7.42,5.33A2.41,2.41,0,1,0,8,13a2.44,2.44,0,0,0,2.8,0l1.39,1.39a.4.4,0,0,0,.57,0,.41.41,0,0,0,0-.57l0,0-1.4-1.39ZM11,11a1.61,1.61,0,0,1-3.22.07V11A1.61,1.61,0,0,1,11,11Z"/></svg>