<svg id="图层_1" data-name="图层 1" xmlns="http://www.w3.org/2000/svg" viewBox="0 0 20 20"><defs><style>.cls-1{fill:#ddf1f5;}.cls-2{fill:#8ee3f8;}.cls-3{fill:#00bceb;}</style></defs><path class="cls-1" d="M1,17c0,1.1,4,2,9,2s9-.9,9-2h0c0-1.1-4-2-9-2S1,15.9,1,17Z"/><path class="cls-2" d="M8,5H12a.85.85,0,0,0,.85-.85V2.67A.85.85,0,0,0,12,1.82h-.12a.25.25,0,0,1-.2-.09l-.33-.37A1.11,1.11,0,0,0,10.5,1H9.6a1.12,1.12,0,0,0-.81.35l-.35.38a.28.28,0,0,1-.2.09H8a.88.88,0,0,0-.61.25.84.84,0,0,0-.25.6v1.5A.86.86,0,0,0,8,5Z"/><path class="cls-3" d="M14.55,3.28h-.71V4.35A1.59,1.59,0,0,1,12.25,6H7.76a1.6,1.6,0,0,1-1.59-1.6V3.28H5.46A1.72,1.72,0,0,0,3.74,5v9.55a1.72,1.72,0,0,0,1.72,1.72h9.09a1.72,1.72,0,0,0,1.72-1.72V5A1.72,1.72,0,0,0,14.55,3.28ZM6.76,7.66h3.55a.62.62,0,0,1,0,1.24H6.76a.62.62,0,0,1,0-1.24Zm6.3,6.18H6.76a.62.62,0,0,1-.62-.62.61.61,0,0,1,.62-.61h6.3a.61.61,0,0,1,.61.61A.61.61,0,0,1,13.06,13.84Zm0-2.34H6.76a.61.61,0,0,1-.62-.61.62.62,0,0,1,.62-.62h6.3a.61.61,0,0,1,.61.62A.61.61,0,0,1,13.06,11.5Z"/></svg>