<svg id="图层_1" data-name="图层 1" xmlns="http://www.w3.org/2000/svg" viewBox="0 0 20 20"><defs><style>.cls-1{fill:#e5e5e5;}.cls-2{fill:#606060;}.cls-3{fill:#b0b0b0;}</style></defs><path class="cls-1" d="M1,17c0,1.1,4,2,9,2s9-.9,9-2h0c0-1.1-4-2-9-2S1,15.9,1,17Z"/><path class="cls-2" d="M8,5H12a.85.85,0,0,0,.85-.85V2.67a.84.84,0,0,0-.25-.6.86.86,0,0,0-.6-.25h-.13a.27.27,0,0,1-.2-.09l-.33-.37A1.08,1.08,0,0,0,10.5,1H9.59a1.14,1.14,0,0,0-.81.35l-.35.38a.25.25,0,0,1-.2.09H8a.86.86,0,0,0-.6.25.84.84,0,0,0-.25.6v1.5A.85.85,0,0,0,8,5Z"/><path class="cls-3" d="M14.55,3.28h-.71V4.35A1.6,1.6,0,0,1,12.24,6H7.76a1.6,1.6,0,0,1-1.6-1.6V3.28H5.45A1.73,1.73,0,0,0,3.73,5v9.55a1.73,1.73,0,0,0,1.72,1.72h9.1a1.73,1.73,0,0,0,1.72-1.72V5A1.73,1.73,0,0,0,14.55,3.28ZM6.76,7.66H10.3a.62.62,0,0,1,0,1.24H6.76a.62.62,0,0,1,0-1.24Zm6.29,6.18H6.76a.62.62,0,1,1,0-1.23h6.29a.61.61,0,0,1,.62.61A.62.62,0,0,1,13.05,13.84Zm0-2.34H6.76a.61.61,0,0,1-.62-.61.62.62,0,0,1,.62-.62h6.29a.62.62,0,0,1,.62.62A.61.61,0,0,1,13.05,11.5Z"/></svg>