<svg id="图层_1" data-name="图层 1" xmlns="http://www.w3.org/2000/svg" viewBox="0 0 20 20"><defs><style>.cls-1{fill:#ddf1f5;}.cls-2{fill:#00bceb;}.cls-3{fill:#8ee3f8;}</style></defs><path class="cls-1" d="M1,17c0,1.1,4,2,9,2s9-.9,9-2h0c0-1.1-4-2-9-2S1,15.9,1,17Z"/><rect class="cls-2" x="2.48" y="9.34" width="7" height="7" rx="2.07"/><path class="cls-3" d="M11.57,9.46a.64.64,0,0,1,.63.64v5.49a.63.63,0,0,1-.57.63h-.06a.64.64,0,0,1-.64-.63V10.1a.63.63,0,0,1,.58-.63Z"/><path class="cls-3" d="M17.06,11.15a.64.64,0,0,1,.63.64v3.8a.62.62,0,0,1-.57.63h-.06a.63.63,0,0,1-.63-.63v-3.8a.62.62,0,0,1,.57-.63Z"/><path class="cls-3" d="M14.31,12a.63.63,0,0,1,.63.57v3a.63.63,0,0,1-.58.63h-.06a.63.63,0,0,1-.63-.57v-3a.63.63,0,0,1,.57-.63Z"/><path class="cls-2" d="M7.73,1A1.75,1.75,0,0,1,9.48,2.77h0v3.5A1.75,1.75,0,0,1,7.73,8H4.23A1.75,1.75,0,0,1,2.48,6.27h0V3.09A2.07,2.07,0,0,1,4.55,1Z"/><rect class="cls-2" x="10.69" y="1.02" width="7" height="7" rx="2.07"/></svg>