<svg id="图层_1" data-name="图层 1" xmlns="http://www.w3.org/2000/svg" viewBox="0 0 20 20"><defs><style>.cls-1{fill:#ddf1f5;}.cls-1,.cls-2,.cls-3{fill-rule:evenodd;}.cls-2{fill:#8ee3f8;}.cls-3{fill:#00bceb;}</style></defs><path id="Fill_1" data-name="Fill 1" class="cls-1" d="M10,19c5,0,9-.86,9-2s-4.12-2-9-2-9,.86-9,2S5,19,10,19Z"/><path id="Union" class="cls-2" d="M10,9H5.38v1.87a.4.4,0,0,1-.43.42.4.4,0,0,1-.42-.42V8.53A.39.39,0,0,1,5,8.11H9.58V6.59a.42.42,0,0,1,.84,0V8.11h4.63a.39.39,0,0,1,.42.42v2.29a.4.4,0,0,1-.42.42.39.39,0,0,1-.42-.42V9Z"/><path class="cls-3" d="M3.9,16.52H7.6a1.06,1.06,0,0,0,1.05-1.07V11.7A1.06,1.06,0,0,0,7.6,10.64H3.9a1.06,1.06,0,0,0-1,1.06v3.75A1.07,1.07,0,0,0,3.9,16.52Z"/><path class="cls-3" d="M12.4,16.52h3.7a1.06,1.06,0,0,0,1-1.07V11.7a1.06,1.06,0,0,0-1-1.06H12.4a1.06,1.06,0,0,0-1.05,1.06v3.75A1,1,0,0,0,12.4,16.52Z"/><path class="cls-3" d="M11.85,1H8.15A1.06,1.06,0,0,0,7.1,2.06V5.82A1.06,1.06,0,0,0,8.15,6.88h3.7A1.06,1.06,0,0,0,12.9,5.82V2.06A1.06,1.06,0,0,0,11.85,1Zm-1,3.67H9.16a.83.83,0,0,1-.84-.81A.83.83,0,0,1,9.16,3h1.68a.83.83,0,0,1,.84.82A.83.83,0,0,1,10.84,4.67Z"/></svg>