<svg id="图层_1" data-name="图层 1" xmlns="http://www.w3.org/2000/svg" viewBox="0 0 20 20"><defs><style>.cls-1{fill:#ddf1f5;}.cls-1,.cls-2{fill-rule:evenodd;}.cls-2{fill:#8ee3f8;}.cls-3{fill:#00bceb;}</style></defs><path id="Fill_1" data-name="Fill 1" class="cls-1" d="M10,19c5,0,9-.84,9-1.94s-4.13-1.93-9-1.93S1,16,1,17.06,5,19,10,19Z"/><path id="Fill-3" class="cls-2" d="M16.2,5.37H3.79V2.54A1.13,1.13,0,0,1,4.92,1.42H15.07A1.13,1.13,0,0,1,16.2,2.54Z"/><path class="cls-3" d="M2.1,4.12V14a2.2,2.2,0,0,0,2.21,2.2H15.63a2.26,2.26,0,0,0,2.26-2.25V4.12ZM13,13.7a1.49,1.49,0,0,1-1.09-.47,3.5,3.5,0,0,1-3.84,0A1.52,1.52,0,0,1,7,13.7a1.5,1.5,0,0,1-.45-2.93c0-.14,0-.27,0-.41a3.52,3.52,0,0,1,2-3.14v0a1.5,1.5,0,0,1,3,0s0,0,0,.07a3.51,3.51,0,0,1,1.92,3.1,2.58,2.58,0,0,1,0,.39A1.5,1.5,0,0,1,13,13.7Z"/><path class="cls-3" d="M12.82,10.72c0-.12,0-.23,0-.35a2.84,2.84,0,0,0-1.49-2.5,1.5,1.5,0,0,1-2.67,0,2.81,2.81,0,0,0-1.5,2.48c0,.12,0,.25,0,.37A1.5,1.5,0,0,1,8.5,12.2a1.45,1.45,0,0,1-.09.47A2.81,2.81,0,0,0,10,13.2a2.88,2.88,0,0,0,1.56-.47,1.39,1.39,0,0,1-.1-.53A1.48,1.48,0,0,1,12.82,10.72Z"/></svg>