<svg id="图层_1" data-name="图层 1" xmlns="http://www.w3.org/2000/svg" viewBox="0 0 20 20"><defs><style>.cls-1{fill:#e5e5e5;}.cls-2{fill:#606060;}.cls-3{fill:#b0b0b0;}</style></defs><path class="cls-1" d="M1,17c0,1.1,4,2,9,2s9-.9,9-2h0c0-1.1-4-2-9-2S1,15.9,1,17Z"/><rect class="cls-2" x="3.72" y="0.97" width="12.55" height="10.19" rx="4"/><path class="cls-3" d="M16.29,7.71H13.6a2.58,2.58,0,0,1-2-1l-.08-.1a4.89,4.89,0,0,0-1.05-1,3.71,3.71,0,0,0-2.35-.84H2.22v8.51a3,3,0,0,0,3,3h9.62a3,3,0,0,0,3-3V7.71ZM9.07,13.26H5.74a.48.48,0,0,1-.55-.55.49.49,0,0,1,.55-.56H9.07a.5.5,0,0,1,.56.56A.49.49,0,0,1,9.07,13.26Z"/></svg>