<svg id="图层_1" data-name="图层 1" xmlns="http://www.w3.org/2000/svg" viewBox="0 0 20 20"><defs><style>.cls-1{fill:#e5e5e5;}.cls-1,.cls-3{fill-rule:evenodd;}.cls-2{fill:#b0b0b0;}.cls-3{fill:#606060;}</style></defs><g id="æ_æ_-é_ä_" data-name="æ°æ®-éä¸­"><path id="Fill_1" data-name="Fill 1" class="cls-1" d="M10,19c5,0,9-.84,9-1.94s-4.13-1.94-9-1.94S1,16,1,17.05,5,19,10,19Z"/><path id="Rectangle_21" data-name="Rectangle 21" class="cls-2" d="M3.15,6.2c-.75-.43-.74-1.14,0-1.59L8.85,1.34a3,3,0,0,1,2.75,0l5.53,3.19c.76.44.74,1.15,0,1.59L11.43,9.38a3,3,0,0,1-2.75,0Z"/><path id="Subtract" class="cls-3" d="M3.43,8.05l-.18.11c-.76.44-.78,1.14,0,1.57l5.47,3.16a3,3,0,0,0,2.73,0L17,9.64c.76-.44.78-1.15,0-1.58l-.21-.12-5.43,3.13a3,3,0,0,1-2.73,0Z"/><path id="Subtract_2" data-name="Subtract 2" class="cls-3" d="M3.26,11.55h0c-.76.44-.78,1.15,0,1.58l5.47,3.16a3,3,0,0,0,2.73,0L17,13c.76-.44.78-1.14,0-1.57l-.16-.1-5.6,3.23a3,3,0,0,1-2.73,0Z"/></g></svg>