<svg id="图层_1" data-name="图层 1" xmlns="http://www.w3.org/2000/svg" viewBox="0 0 20 20"><defs><style>.cls-1{fill:#e5e5e5;}.cls-2{fill:#b0b0b0;}.cls-3{fill:#606060;}</style></defs><path id="路径" class="cls-1" d="M1,17.07C1,18.16,5,19,10,19s9-.84,9-1.93-4.12-1.94-9-1.94S1,16,1,17.07Z"/><path class="cls-2" d="M16.24,9.35l-.34-.17h0V8l.34-.17.09-.08a1.91,1.91,0,0,0,.59-2.53l-.59-1L16.24,4a1.89,1.89,0,0,0-2.53-.59l-.34.16-.16-.08c-.26-.17-.51-.25-.76-.42V2.94A1.91,1.91,0,0,0,10.51,1H9.16A1.93,1.93,0,0,0,7.39,2.94v.17c-.09.08-.34.25-.59.42l-.26.08-.25-.16a1.7,1.7,0,0,0-1.43-.17,1.61,1.61,0,0,0-1.18.92l-.6,1L3,5.3a2,2,0,0,0,.76,2.53L4.1,8h0V9.18l-.34.17A1.91,1.91,0,0,0,3.08,12l.6,1,.08.08.08.08a2,2,0,0,0,2.53.51l.34-.17.09.17c.25.17.5.25.75.42v.34a1.78,1.78,0,0,0,1.94,1.77h1.44a1.81,1.81,0,0,0,1.68-1.77v-.34a3,3,0,0,0,.76-.42l.26-.17.08.17a1.75,1.75,0,0,0,1.44.17,1.89,1.89,0,0,0,1.18-.93l.59-1L17,11.8A1.93,1.93,0,0,0,16.24,9.35Zm-6.16,2.19a3,3,0,1,1,3-2.95A2.94,2.94,0,0,1,10.08,11.54Z"/><path class="cls-3" d="M10,5.55a3,3,0,1,0,3,3A3,3,0,0,0,10,5.55Zm0,4.73a1.69,1.69,0,1,1,1.69-1.69A1.69,1.69,0,0,1,10,10.28Z"/></svg>