<svg id="图层_1" data-name="图层 1" xmlns="http://www.w3.org/2000/svg" viewBox="0 0 20 20"><defs><style>.cls-1{fill:#ddf1f5;}.cls-2{fill:#00bceb;}.cls-3{fill:#8ee3f8;}</style></defs><path class="cls-1" d="M1,17c0,1.1,4,2,9,2s9-.9,9-2h0c0-1.1-4-2-9-2S1,15.9,1,17Z"/><path class="cls-2" d="M8.71,9l.2,0L10,9.27,11.07,9a.86.86,0,0,1,.39,0l.7.17V7H7.84V9.15L8.51,9A.69.69,0,0,1,8.71,9Z"/><path class="cls-3" d="M12.27,2.59l.83,4a.54.54,0,0,1,.05.21V7H17.9a2.89,2.89,0,0,0,0-.29h0v0a1.76,1.76,0,0,0-.21-.58L15.48,2.73a1.2,1.2,0,0,0-1-.54H11.78A.5.5,0,0,1,12.27,2.59Z"/><polygon class="cls-3" points="12.16 6.88 11.38 3.18 8.61 3.18 7.84 6.88 7.84 6.89 7.84 6.96 12.16 6.96 12.16 6.89 12.16 6.88"/><path class="cls-3" d="M6.85,7V6.78a.52.52,0,0,1,0-.21l.84-4a.5.5,0,0,1,.48-.4H5.51a1.18,1.18,0,0,0-1,.54L2.36,6.07a1.83,1.83,0,0,0-.21.53s0,.05,0,.07h0A1.45,1.45,0,0,0,2.1,7Z"/><path class="cls-2" d="M13.15,7V9.42a.78.78,0,0,1-.78.78.58.58,0,0,1-.19,0L11.27,10l-1.07.29a.68.68,0,0,1-.4,0L8.7,10l-.88.22a.78.78,0,0,1-1-.56,1.37,1.37,0,0,1,0-.19V7H2.1v7.45a2.22,2.22,0,0,0,2.2,2.2H15.6a2.33,2.33,0,0,0,2.3-2.3V7Zm2.52,7.4h-3a.49.49,0,0,1-.5-.49.5.5,0,0,1,.5-.5h3a.5.5,0,0,1,.49.5A.49.49,0,0,1,15.67,14.36Z"/></svg>