<svg id="图层_1" data-name="图层 1" xmlns="http://www.w3.org/2000/svg" viewBox="0 0 20 20"><defs><style>.cls-1{fill:#ddf1f5;}.cls-1,.cls-3{fill-rule:evenodd;}.cls-2{fill:#8ee3f8;}.cls-3{fill:#00bceb;}</style></defs><path id="Fill_1" data-name="Fill 1" class="cls-1" d="M10,19c5,0,9-.84,9-1.94s-4.12-1.93-9-1.93S1,16,1,17.06,5,19,10,19Z"/><path id="Vector" class="cls-2" d="M15.33,9.19H4.67V1h4c3.67,0,6.69,2.59,6.69,5.73Z"/><path id="Subtract" class="cls-3" d="M2.22,10,9.38,4.48a1,1,0,0,1,1.19,0L17.78,10v4.41a2.15,2.15,0,0,1-2.07,2.21H4.29a2.15,2.15,0,0,1-2.07-2.21Zm7,3.34a.82.82,0,0,0,1.64,0V10a.82.82,0,1,0-1.64,0Z"/></svg>