<svg id="图层_1" data-name="图层 1" xmlns="http://www.w3.org/2000/svg" viewBox="0 0 20 20"><defs><style>.cls-1{fill:#ddf1f5;}.cls-2{fill:#8ee3f8;}.cls-3{fill:#00bceb;fill-rule:evenodd;}</style></defs><path class="cls-1" d="M1,17c0,1.09,4,2,9,2s9-.88,9-2h0c0-1.08-4-2-9-2S1,16,1,17Z"/><path class="cls-2" d="M2.18,16.22H4.37V6H3.45A1.3,1.3,0,0,0,2.18,7.29Z"/><path class="cls-3" d="M4.37,1.06V16.22H15.83a2.11,2.11,0,0,0,2-2.27V1.06Zm10.73,11a1,1,0,0,1-.56-.18l-2.31.93a1.18,1.18,0,0,1-2.32-.08L7.6,11.88a1,1,0,0,1-.56.18A1.05,1.05,0,1,1,7,10a1,1,0,0,1,.35.08l2.5-4.22a1.5,1.5,0,1,1,2.69-.9,1.45,1.45,0,0,1-.34.93L14.79,10A1.08,1.08,0,0,1,15.1,10a1.05,1.05,0,1,1,0,2.1Z"/><path class="cls-3" d="M7.83,10.35a1,1,0,0,1,.26.66,1.3,1.3,0,0,1,0,.21L10,12a1.18,1.18,0,0,1,.73-.58v-5a1.77,1.77,0,0,1-.38-.15Z"/><path class="cls-3" d="M11.79,6.23a1.47,1.47,0,0,1-.43.16v5a1.15,1.15,0,0,1,.75.57l2-.69a1.26,1.26,0,0,1,0-.28,1,1,0,0,1,.26-.67Z"/></svg>