<svg id="图层_1" data-name="图层 1" xmlns="http://www.w3.org/2000/svg" viewBox="0 0 20 20"><defs><style>.cls-1,.cls-2{fill:#ddf1f5;}.cls-1,.cls-3,.cls-4{fill-rule:evenodd;}.cls-3{fill:#8ee3f8;}.cls-4{fill:#00bceb;}</style></defs><path id="Fill_1" data-name="Fill 1" class="cls-1" d="M10,19c5,0,9-.84,9-1.94s-4.13-1.93-9-1.93S1,16,1,17.06,5,19,10,19Z"/><ellipse class="cls-2" cx="10.01" cy="17.06" rx="9.01" ry="1.94"/><path class="cls-3" d="M9.84,1,3.58,3.67a.38.38,0,0,0,0,.7L9.84,7.15a.39.39,0,0,0,.3,0l6.27-2.78a.38.38,0,0,0,0-.7L10.14,1A.39.39,0,0,0,9.84,1Z"/><path class="cls-4" d="M9.28,8,2.81,5.23a.28.28,0,0,0-.4.26v8.18a.3.3,0,0,0,.17.26l6.47,2.79a.29.29,0,0,0,.4-.26V8.28A.27.27,0,0,0,9.28,8Z"/><path class="cls-3" d="M17.17,5.23,10.7,8a.27.27,0,0,0-.17.26v8.18a.29.29,0,0,0,.4.26l6.47-2.79a.3.3,0,0,0,.17-.26V5.49A.28.28,0,0,0,17.17,5.23Z"/></svg>