<svg id="图层_1" data-name="图层 1" xmlns="http://www.w3.org/2000/svg" viewBox="0 0 20 20"><defs><style>.cls-1{fill:#e5e5e5;}.cls-2{fill:#b0b0b0;}.cls-3{fill:#606060;}</style></defs><path class="cls-1" d="M1,17c0,1.1,4,2,9,2s9-.9,9-2h0c0-1.1-4-2-9-2S1,15.9,1,17Z"/><path class="cls-2" d="M3.7,1V4.86h.72a2.7,2.7,0,0,1,.67.07,1.38,1.38,0,0,1,.59.32,1.64,1.64,0,0,1,.46.67,2.73,2.73,0,0,1,.15.94,2.2,2.2,0,0,1-.46,1.49,1.76,1.76,0,0,1-1.39.53H3.7v7.35H15.43A2.18,2.18,0,0,0,17.56,14V1Zm6.79,7.87h-1L8,6.46h0V8.88H7v-4H8L9.52,7.31h0V4.86h1Zm3.69-.32A1.79,1.79,0,0,1,12.92,9c-1.13,0-1.72-.47-1.78-1.39l1-.07a.73.73,0,0,0,.78.71.89.89,0,0,0,.49-.13.43.43,0,0,0,.19-.35.34.34,0,0,0-.19-.32,4.7,4.7,0,0,0-.85-.26,1.88,1.88,0,0,1-1-.47,1,1,0,0,1-.31-.74,1,1,0,0,1,.45-.84,2,2,0,0,1,1.12-.3c1,0,1.55.4,1.62,1.21l-1,0a.59.59,0,0,0-.65-.55.87.87,0,0,0-.42.09.29.29,0,0,0-.16.26.28.28,0,0,0,.19.27,3.6,3.6,0,0,0,.65.19,5.24,5.24,0,0,1,.75.23,1.25,1.25,0,0,1,.52.38,1,1,0,0,1,.23.71A1.19,1.19,0,0,1,14.18,8.56Z"/><path class="cls-2" d="M5.11,7.7a1.89,1.89,0,0,0,.14-.82,1.75,1.75,0,0,0-.15-.83.63.63,0,0,0-.38-.33,2,2,0,0,0-.6-.07H3.78V8.09h.45A1.58,1.58,0,0,0,4.76,8,.63.63,0,0,0,5.11,7.7Z"/><path class="cls-3" d="M1,4.21V9.53H15.37V4.21ZM5.83,8.35a1.76,1.76,0,0,1-1.39.53H2.76v-4H4.42a2.7,2.7,0,0,1,.67.07,1.38,1.38,0,0,1,.59.32,1.64,1.64,0,0,1,.46.67,2.73,2.73,0,0,1,.15.94A2.2,2.2,0,0,1,5.83,8.35Zm4.66.53h-1L8,6.46h0V8.88H7v-4H8L9.52,7.31h0V4.86h1Zm3.69-.32A1.79,1.79,0,0,1,12.92,9c-1.13,0-1.72-.47-1.78-1.39l1-.07a.73.73,0,0,0,.78.71.89.89,0,0,0,.49-.13.43.43,0,0,0,.19-.35.34.34,0,0,0-.19-.32,4.7,4.7,0,0,0-.85-.26,1.88,1.88,0,0,1-1-.47,1,1,0,0,1-.31-.74,1,1,0,0,1,.45-.84,2,2,0,0,1,1.12-.3c1,0,1.55.4,1.62,1.21l-1,0a.59.59,0,0,0-.65-.55.87.87,0,0,0-.42.09.29.29,0,0,0-.16.26.28.28,0,0,0,.19.27,3.6,3.6,0,0,0,.65.19,5.24,5.24,0,0,1,.75.23,1.25,1.25,0,0,1,.52.38,1,1,0,0,1,.23.71A1.19,1.19,0,0,1,14.18,8.56Z"/><path class="cls-3" d="M4.72,5.72a2,2,0,0,0-.6-.07H3.78V8.09h.45A1.58,1.58,0,0,0,4.76,8a.63.63,0,0,0,.35-.32,1.89,1.89,0,0,0,.14-.82,1.75,1.75,0,0,0-.15-.83A.63.63,0,0,0,4.72,5.72Z"/></svg>