<svg id="图层_1" data-name="图层 1" xmlns="http://www.w3.org/2000/svg" viewBox="0 0 20 20"><defs><style>.cls-1{fill:#e5e5e5;}.cls-2{fill:#606060;}.cls-3{fill:#b0b0b0;}</style></defs><path class="cls-1" d="M1,17c0,1.1,4,2,9,2s9-.9,9-2h0c0-1.1-4-2-9-2S1,15.9,1,17Z"/><path class="cls-2" d="M17,1.39H5a2,2,0,0,0-2,2v7.29a2,2,0,0,0,2,2H17a2,2,0,0,0,2-2V3.39A2,2,0,0,0,17,1.39Zm-5.13,9.92H6.17a.86.86,0,0,1-.8-.8.86.86,0,0,1,.8-.8h5.7a.86.86,0,0,1,.8.8A.86.86,0,0,1,11.87,11.31Zm0-3.2H6.17a.86.86,0,0,1-.8-.8.86.86,0,0,1,.8-.8h5.7a.86.86,0,0,1,.8.8A.86.86,0,0,1,11.87,8.11Z"/><path class="cls-3" d="M15,3.33H3a2,2,0,0,0-2,2v7.28a2,2,0,0,0,2,2H6.34l2.43,1.55a.69.69,0,0,0,.73,0h0l2.42-1.55h3a2,2,0,0,0,2-2V5.33A2,2,0,0,0,15,3.33Zm-3.09,8H6.17a.86.86,0,0,1-.8-.8.86.86,0,0,1,.8-.8h5.7a.86.86,0,0,1,.8.8A.86.86,0,0,1,11.87,11.31Zm0-3.2H6.17a.86.86,0,0,1-.8-.8.86.86,0,0,1,.8-.8h5.7a.86.86,0,0,1,.8.8A.86.86,0,0,1,11.87,8.11Z"/></svg>