<svg id="图层_1" data-name="图层 1" xmlns="http://www.w3.org/2000/svg" viewBox="0 0 20 20"><defs><style>.cls-1{fill:#e5e5e5;}.cls-2{fill:#b0b0b0;}.cls-3{fill:#606060;}</style></defs><path class="cls-1" d="M1,17c0,1.1,4,2,9,2s9-.9,9-2h0c0-1.1-4-2-9-2S1,15.91,1,17Z"/><path class="cls-2" d="M8.71,9a.68.68,0,0,1,.2,0L10,9.28,11.07,9a.86.86,0,0,1,.39,0l.7.17V7H7.84V9.16L8.52,9A.58.58,0,0,1,8.71,9Z"/><path class="cls-3" d="M12.27,2.6l.83,4a.54.54,0,0,1,.05.21V7H17.9a1.35,1.35,0,0,0,0-.28h0a1.63,1.63,0,0,0-.22-.58L15.48,2.74a1.18,1.18,0,0,0-1-.54h-2.7A.5.5,0,0,1,12.27,2.6Z"/><polygon class="cls-3" points="12.16 6.89 11.38 3.19 8.62 3.19 7.84 6.89 7.84 6.9 7.84 6.97 12.16 6.97 12.16 6.9 12.16 6.89"/><path class="cls-3" d="M6.85,7V6.79a.54.54,0,0,1,.05-.21l.83-4a.5.5,0,0,1,.48-.4H5.51a1.18,1.18,0,0,0-1,.54L2.36,6.09a1.63,1.63,0,0,0-.21.53s0,0,0,.06h0A1.45,1.45,0,0,0,2.1,7Z"/><path class="cls-2" d="M13.15,7V9.43a.78.78,0,0,1-.78.78l-.19,0-.9-.23-1.08.29a.68.68,0,0,1-.4,0L8.71,10l-.89.22a.78.78,0,0,1-1-.56,1.23,1.23,0,0,1,0-.19V7H2.1v7.45a2.22,2.22,0,0,0,2.2,2.2H15.6a2.33,2.33,0,0,0,2.3-2.3V7Zm2.52,7.4h-3a.49.49,0,1,1,0-1h3a.49.49,0,0,1,0,1Z"/></svg>