<svg id="图层_1" data-name="图层 1" xmlns="http://www.w3.org/2000/svg" viewBox="0 0 20 20"><defs><style>.cls-1{fill:#e5e5e5;}.cls-1,.cls-2,.cls-3{fill-rule:evenodd;}.cls-2{fill:#606060;}.cls-3{fill:#b0b0b0;}</style></defs><path id="Fill_1" data-name="Fill 1" class="cls-1" d="M10,19c5,0,9-.86,9-2s-4.11-2-9-2-9,.86-9,2S5,19,10,19Z"/><path id="Union" class="cls-2" d="M14.2,14.59a.83.83,0,0,1,.3,1.17.86.86,0,0,1-1.16.3L10,14.12,6.65,16.06a.85.85,0,0,1-.86-1.47l3.75-2.15a.84.84,0,0,1,.48-.13.83.83,0,0,1,.47.13Z"/><path class="cls-3" d="M7.24,6.17a1.23,1.23,0,0,0-.78.31,1,1,0,0,0-.3.77,1.28,1.28,0,0,0,.3.78,1.08,1.08,0,0,0,.78.3A1.28,1.28,0,0,0,8,8a1.08,1.08,0,0,0,.3-.78A1.23,1.23,0,0,0,8,6.48,1,1,0,0,0,7.24,6.17Z"/><path class="cls-3" d="M2.67,1V13.07H14.74a2.6,2.6,0,0,0,2.59-2.59V1ZM8.88,8.89a2.49,2.49,0,0,1-1.64.73A2.9,2.9,0,0,1,5.9,9.28a2.39,2.39,0,0,1-.9-1,2.49,2.49,0,0,1-.17-1.38,2.35,2.35,0,0,1,.64-1.25,2.72,2.72,0,0,1,1.21-.69,2.58,2.58,0,0,1,1.38.13,2.4,2.4,0,0,1,1.08.86,2.44,2.44,0,0,1,.39,1.34A2.33,2.33,0,0,1,8.88,8.89Zm3.66-.13a1,1,0,0,1,0,.34,1.19,1.19,0,0,1-.17.31,1,1,0,0,1-.26.17,1.17,1.17,0,0,1-.35,0,.82.82,0,0,1-.6-.26.84.84,0,0,1-.26-.6V6.6a.86.86,0,0,1,.26-.6.79.79,0,0,1,.6-.26.85.85,0,0,1,.35,0,.52.52,0,0,1,.26.17,1.6,1.6,0,0,1,.17.3.91.91,0,0,1,0,.34Zm2.59,0a.84.84,0,0,1-.26.6.82.82,0,0,1-.6.26.84.84,0,0,1-.61-.26.83.83,0,0,1-.25-.6V4.45a.83.83,0,0,1,.25-.6,1,1,0,0,1,.65-.26.8.8,0,0,1,.6.26.8.8,0,0,1,.26.6V8.76Z"/></svg>