<svg id="图层_1" data-name="图层 1" xmlns="http://www.w3.org/2000/svg" viewBox="0 0 20 20"><defs><style>.cls-1{fill:#ddf1f5;}.cls-2{fill:#00bceb;}.cls-3{fill:#8ee3f8;}</style></defs><path class="cls-1" d="M1,17c0,1.1,4,2,9,2s9-.9,9-2h0c0-1.1-4-2-9-2S1,15.9,1,17Z"/><rect class="cls-2" x="8.3" y="1" width="9.27" height="5.98" rx="1.5"/><rect class="cls-2" x="2.44" y="10.3" width="9.27" height="5.98" rx="1.5"/><path class="cls-3" d="M18.21,9.22,16.8,7.76a.81.81,0,0,0-1.07-.07L14.18,8.9A.8.8,0,0,0,14,10h0a.8.8,0,0,0,1.12.14l.17-.13a4.2,4.2,0,0,1-.08.47,3.59,3.59,0,0,1-2.46,2.56.81.81,0,0,0-.47,1,.8.8,0,0,0,.75.52.69.69,0,0,0,.28,0,5.18,5.18,0,0,0,3.58-4.36l.13.13a.82.82,0,0,0,.57.24.79.79,0,0,0,.58-1.35Z"/><path class="cls-3" d="M4.17,9.73a.79.79,0,0,0,.55-.22L6.15,8.16A.8.8,0,0,0,6.18,7,.79.79,0,0,0,5.05,7l-.16.15c0-.16,0-.32,0-.48a3.62,3.62,0,0,1,2.2-2.79A.81.81,0,0,0,7.5,2.81a.8.8,0,0,0-1.07-.37A5.2,5.2,0,0,0,3.28,7.13L3.15,7A.81.81,0,0,0,2,7.1a.8.8,0,0,0,.09,1.13L3.65,9.54A.78.78,0,0,0,4.17,9.73Z"/></svg>