<svg id="图层_1" data-name="图层 1" xmlns="http://www.w3.org/2000/svg" viewBox="0 0 20 20"><defs><style>.cls-1{fill:#ddf1f5;}.cls-2{fill:#8ee3f8;}.cls-3{fill:#00bceb;fill-rule:evenodd;}</style></defs><path class="cls-1" d="M1,17c0,1.09,4,2,9,2s9-.88,9-2h0c0-1.08-4-2-9-2S1,16,1,17Z"/><path id="Vector" class="cls-2" d="M4.55,4.73V2.27a1,1,0,0,1,1.06-.91h8.82a1,1,0,0,1,1.06.91V4.73Z"/><path id="Subtract" class="cls-3" d="M3.91,3.89H16.13A1.9,1.9,0,0,1,18,5.76v8.87a1.9,1.9,0,0,1-1.88,1.87H3.91A1.9,1.9,0,0,1,2,14.63V5.76A1.9,1.9,0,0,1,3.91,3.89ZM14.07,6.3a2.41,2.41,0,0,0-.8-.54,2.44,2.44,0,0,0-.95-.19,2.37,2.37,0,0,0-1,.19,2.41,2.41,0,0,0-.8.54L9.89,7a.56.56,0,0,0,.79.79l.68-.68a1.34,1.34,0,0,1,1.73-.17,1.32,1.32,0,0,1,.5.62,1.26,1.26,0,0,1,.08.79A1.39,1.39,0,0,1,13.3,9l-1.62,1.61a1.3,1.3,0,0,1-1,.42,1.38,1.38,0,0,1-1-.42.59.59,0,0,0-.79,0,.57.57,0,0,0-.16.37.56.56,0,0,0,.13.37l0,0a2.46,2.46,0,0,0,1.75.73,2.6,2.6,0,0,0,1-.19,2.57,2.57,0,0,0,.8-.54L14.07,9.8a2.47,2.47,0,0,0,0-3.5ZM9.51,12.8l-.68.68a1.35,1.35,0,0,1-1,.41,1.37,1.37,0,0,1-.76-.24A1.38,1.38,0,0,1,6.6,13a1.42,1.42,0,0,1-.08-.79,1.36,1.36,0,0,1,.37-.7L8.51,9.92a1.31,1.31,0,0,1,1-.41,1.37,1.37,0,0,1,1,.41.59.59,0,0,0,.79,0,.59.59,0,0,0,0-.8A2.39,2.39,0,0,0,9.49,8.4a2.53,2.53,0,0,0-.94.18,2.5,2.5,0,0,0-.81.54L6.12,10.74a2.57,2.57,0,0,0-.54.8,2.6,2.6,0,0,0-.19,1,2.46,2.46,0,0,0,.73,1.75,2.41,2.41,0,0,0,.8.54,2.44,2.44,0,0,0,1,.19,2.37,2.37,0,0,0,1-.19,2.41,2.41,0,0,0,.8-.54l.68-.67a.59.59,0,0,0,0-.8.61.61,0,0,0-.79,0Z"/></svg>