<svg id="图层_1" data-name="图层 1" xmlns="http://www.w3.org/2000/svg" viewBox="0 0 20 20"><defs><style>.cls-1{fill:#e5e5e5;}.cls-2{fill:#606060;}.cls-3{fill:#b0b0b0;}</style></defs><path class="cls-1" d="M1,17c0,1.09,4,2,9,2s9-.88,9-2-4-2-9-2S1,15.94,1,17Z"/><path class="cls-2" d="M13.66,16.18H6.34a.86.86,0,0,1-.84-.84.87.87,0,0,1,.84-.85h7.32a.87.87,0,0,1,.84.85A.86.86,0,0,1,13.66,16.18Z"/><path class="cls-3" d="M16.75,1.56H3.25A2.25,2.25,0,0,0,1,3.81v7.31a2.26,2.26,0,0,0,2.25,2.25h13.5A2.25,2.25,0,0,0,19,11.12V3.81A2.25,2.25,0,0,0,16.75,1.56ZM10.94,8.44a.94.94,0,0,1-1.88,0V5.94a.94.94,0,0,1,1.88,0Z"/></svg>