<svg id="图层_1" data-name="图层 1" xmlns="http://www.w3.org/2000/svg" viewBox="0 0 20 20"><defs><style>.cls-1{fill:#ddf1f5;}.cls-2{fill:#00bceb;}.cls-3{fill:#8ee3f8;}</style></defs><path id="路径" class="cls-1" d="M1,17.07C1,18.16,5,19,10,19s9-.84,9-1.93-4.12-1.94-9-1.94S1,16,1,17.07Z"/><path class="cls-2" d="M16.23,9.35l-.33-.17h0V8l.33-.17.09-.08a1.91,1.91,0,0,0,.59-2.53l-.59-1L16.23,4a1.89,1.89,0,0,0-2.53-.59l-.33.16-.17-.08c-.26-.17-.51-.25-.76-.42V2.94A1.91,1.91,0,0,0,10.5,1H9.15A1.93,1.93,0,0,0,7.38,2.94v.17c-.09.08-.34.25-.59.42l-.26.08-.25-.16a1.7,1.7,0,0,0-1.43-.17,1.61,1.61,0,0,0-1.18.92l-.59,1L3,5.3a2,2,0,0,0,.76,2.53L4.09,8h0V9.18l-.34.17A1.9,1.9,0,0,0,3.08,12l.59,1,.08.08.09.08a2,2,0,0,0,2.53.51l.33-.17.09.17c.25.17.5.25.76.42v.34a1.77,1.77,0,0,0,1.94,1.77h1.43a1.82,1.82,0,0,0,1.69-1.77v-.34a3.41,3.41,0,0,0,.76-.42l.25-.17.08.17a1.76,1.76,0,0,0,1.44.17,1.89,1.89,0,0,0,1.18-.93l.59-1L17,11.8A1.92,1.92,0,0,0,16.23,9.35Zm-6.15,2.19A2.95,2.95,0,1,1,13,8.59,2.94,2.94,0,0,1,10.08,11.54Z"/><path class="cls-3" d="M10,5.55a3,3,0,1,0,3,3A3,3,0,0,0,10,5.55Zm0,4.73a1.69,1.69,0,1,1,1.69-1.69A1.69,1.69,0,0,1,10,10.28Z"/></svg>