<svg id="图层_1" data-name="图层 1" xmlns="http://www.w3.org/2000/svg" viewBox="0 0 20 20"><defs><style>.cls-1{fill:#e5e5e5;}.cls-2{fill:#b0b0b0;}.cls-3{fill:#606060;}</style></defs><path class="cls-1" d="M1,17c0,1.09,4,2,9,2s9-.88,9-2h0c0-1.08-4-2-9-2S1,16,1,17Z"/><path class="cls-2" d="M3.75,1.48V16H14.36a1.91,1.91,0,0,0,1.94-1.9V1.48ZM5.46,7.79H8.32a.74.74,0,0,1,.74.74.75.75,0,0,1-.74.75H5.46a.75.75,0,0,1-.74-.75A.74.74,0,0,1,5.46,7.79Zm5.31,4.39H5.46a.74.74,0,0,1,0-1.48h5.31a.74.74,0,1,1,.16,1.48Z"/><path class="cls-3" d="M14.19,5.41,13.45,5A.61.61,0,0,0,13,5l-.73.4a.49.49,0,0,1-.68-.19A.48.48,0,0,1,11.51,5V1H14.9V5a.45.45,0,0,1-.36.5A.48.48,0,0,1,14.19,5.41Z"/></svg>