<svg id="图层_1" data-name="图层 1" xmlns="http://www.w3.org/2000/svg" viewBox="0 0 20 20"><defs><style>.cls-1,.cls-2{fill:#ddf1f5;}.cls-1{fill-rule:evenodd;}.cls-3{fill:#8ee3f8;}.cls-4{fill:#00bceb;}</style></defs><path id="Fill_1" data-name="Fill 1" class="cls-1" d="M10,19c5,0,9-.86,9-2s-4.12-2-9-2-9,.86-9,2S5,19,10,19Z"/><path class="cls-2" d="M1,17c0,1.09,4,2,9,2s9-.88,9-2-4-2-9-2S1,15.94,1,17Z"/><path class="cls-3" d="M12.08,2.34H4.23A1.78,1.78,0,0,0,2.47,4.1V12a.87.87,0,0,0,.32.69L7.6,16.32a.81.81,0,0,0,1.07,0l4.8-3.68a1.12,1.12,0,0,0,.37-.69V4.1A1.78,1.78,0,0,0,12.08,2.34ZM13.53,11a.79.79,0,0,1-1.12,0L10.19,8.8l-.62.61A.73.73,0,0,1,8.34,9L7.8,6.14a1.22,1.22,0,0,1,0-.27.73.73,0,0,1,.86-.57l2.9.56a.67.67,0,0,1,.38.2.73.73,0,0,1,0,1l-.61.6L13.53,9.9A.81.81,0,0,1,13.53,11Z"/><path class="cls-4" d="M15.45,1H6.1A2.08,2.08,0,0,0,4,3.08v9.35a1,1,0,0,0,.43.8l5.71,4.37a1.11,1.11,0,0,0,1.28,0l5.71-4.37a1,1,0,0,0,.38-.8V3.08A2.08,2.08,0,0,0,15.45,1ZM13.53,11a.79.79,0,0,1-1.12,0L10.19,8.8l-.62.61A.73.73,0,0,1,8.34,9L7.8,6.14a1.22,1.22,0,0,1,0-.27.73.73,0,0,1,.86-.57l2.9.56a.67.67,0,0,1,.38.2.73.73,0,0,1,0,1l-.61.6L13.53,9.9A.81.81,0,0,1,13.53,11Z"/></svg>