<svg id="图层_1" data-name="图层 1" xmlns="http://www.w3.org/2000/svg" viewBox="0 0 20 20"><defs><style>.cls-1{fill:#ddf1f5;}.cls-1,.cls-2,.cls-3{fill-rule:evenodd;}.cls-2{fill:#8ee3f8;}.cls-3{fill:#00bceb;}</style></defs><path id="Fill_1" data-name="Fill 1" class="cls-1" d="M10,19c5,0,9-.86,9-2s-4.12-2-9-2-9,.86-9,2S5,19,10,19Z"/><path id="Union" class="cls-2" d="M14.2,14.59a.83.83,0,0,1,.3,1.17.86.86,0,0,1-1.16.3L10,14.12,6.66,16.06a.85.85,0,1,1-.86-1.47l3.75-2.15a.91.91,0,0,1,.94,0Z"/><path class="cls-3" d="M7.24,6.17a1.18,1.18,0,0,0-.77.31,1,1,0,0,0-.3.77,1.28,1.28,0,0,0,.3.78,1,1,0,0,0,.77.3A1.25,1.25,0,0,0,8,8a1,1,0,0,0,.3-.78A1.23,1.23,0,0,0,8,6.48,1,1,0,0,0,7.24,6.17Z"/><path class="cls-3" d="M2.67,1V13.07H14.75a2.59,2.59,0,0,0,2.58-2.59V1ZM8.88,8.89a2.49,2.49,0,0,1-1.64.73,2.85,2.85,0,0,1-1.33-.34,2.41,2.41,0,0,1-.91-1,2.49,2.49,0,0,1-.17-1.38,2.37,2.37,0,0,1,.65-1.25,2.63,2.63,0,0,1,1.2-.69,2.57,2.57,0,0,1,1.38.13,2.4,2.4,0,0,1,1.08.86,2.44,2.44,0,0,1,.39,1.34A2.33,2.33,0,0,1,8.88,8.89Zm3.67-.13a.78.78,0,0,1-.05.34,1,1,0,0,1-.17.31.83.83,0,0,1-.26.17,1.14,1.14,0,0,1-.34,0,.84.84,0,0,1-.61-.26.83.83,0,0,1-.25-.6V6.6a.85.85,0,0,1,.25-.6.82.82,0,0,1,.61-.26.8.8,0,0,1,.34,0c.09,0,.22.08.26.17a1.6,1.6,0,0,1,.17.3.74.74,0,0,1,.05.34Zm2.58,0a.89.89,0,0,1-.86.86.82.82,0,0,1-.6-.26.84.84,0,0,1-.26-.6V4.45a.84.84,0,0,1,.26-.6,1,1,0,0,1,.64-.26.83.83,0,0,1,.61.26.84.84,0,0,1,.26.6V8.76Z"/></svg>