<svg id="图层_1" data-name="图层 1" xmlns="http://www.w3.org/2000/svg" viewBox="0 0 20 20"><defs><style>.cls-1{fill:#e5e5e5;}.cls-1,.cls-2{fill-rule:evenodd;}.cls-2{fill:#606060;}.cls-3{fill:#b0b0b0;}</style></defs><path id="Fill_1" data-name="Fill 1" class="cls-1" d="M10,19c5,0,9-.84,9-1.94s-4.12-1.93-9-1.93S1,16,1,17.06,5,19,10,19Z"/><path id="Fill-3" class="cls-2" d="M16.2,5.37H3.8V2.54A1.13,1.13,0,0,1,4.93,1.42H15.08A1.12,1.12,0,0,1,16.2,2.54Z"/><path class="cls-3" d="M2.1,4.12V14a2.2,2.2,0,0,0,2.21,2.2H15.64a2.27,2.27,0,0,0,2.26-2.25V4.12ZM13,13.7a1.5,1.5,0,0,1-1.09-.47,3.5,3.5,0,0,1-3.84,0A1.52,1.52,0,0,1,7,13.7a1.5,1.5,0,0,1-.44-2.93,2.85,2.85,0,0,1,0-.41,3.49,3.49,0,0,1,2-3.14v0a1.5,1.5,0,0,1,3,0s0,0,0,.07a3.47,3.47,0,0,1,1.92,3.1c0,.13,0,.26,0,.39A1.5,1.5,0,0,1,13,13.7Z"/><path class="cls-3" d="M12.82,10.72c0-.12,0-.23,0-.35a2.8,2.8,0,0,0-1.49-2.5,1.49,1.49,0,0,1-2.66,0,2.82,2.82,0,0,0-1.51,2.48,2.33,2.33,0,0,0,0,.37A1.5,1.5,0,0,1,8.5,12.2a1.45,1.45,0,0,1-.08.47,2.78,2.78,0,0,0,1.63.53,2.85,2.85,0,0,0,1.55-.47,1.61,1.61,0,0,1-.1-.53A1.49,1.49,0,0,1,12.82,10.72Z"/></svg>