<svg id="图层_1" data-name="图层 1" xmlns="http://www.w3.org/2000/svg" viewBox="0 0 20 20"><defs><style>.cls-1{fill:#ddf1f5;}.cls-2{fill:#00bceb;}.cls-2,.cls-3{fill-rule:evenodd;}.cls-3{fill:#8ee3f8;}</style></defs><path id="路径" class="cls-1" d="M1,17.07C1,18.16,5,19,10,19s9-.84,9-1.93-4.13-1.94-9-1.94S1,16,1,17.07Z"/><path class="cls-2" d="M15.29,4.78H12.68a2.42,2.42,0,0,1-2.16-1.31L10.28,3a2.42,2.42,0,0,0-2.16-1.3H4.7A2.45,2.45,0,0,0,2.25,4.12V13.9A2.45,2.45,0,0,0,4.7,16.35H15.29a2.45,2.45,0,0,0,2.45-2.45V7.22A2.45,2.45,0,0,0,15.29,4.78Zm-8.07.06H5.43A.81.81,0,0,1,4.62,4a.82.82,0,0,1,.81-.82H7.22A.82.82,0,0,1,8,4,.82.82,0,0,1,7.22,4.84Z"/><path id="Union" class="cls-3" d="M7.14,8.11a.82.82,0,0,0,0,1.63h5.71a.82.82,0,0,0,0-1.63Zm0,3.26a.82.82,0,0,0,0,1.63h5.71a.82.82,0,0,0,0-1.63Z"/></svg>