<svg id="图层_1" data-name="图层 1" xmlns="http://www.w3.org/2000/svg" viewBox="0 0 20 20"><defs><style>.cls-1,.cls-2{fill:#ddf1f5;}.cls-1{fill-rule:evenodd;}.cls-3{fill:#8ee3f8;}.cls-4{fill:#00bceb;}</style></defs><path id="Fill_1" data-name="Fill 1" class="cls-1" d="M10,19c5,0,9-.84,9-1.94s-4.13-1.93-9-1.93S1,16,1,17.06,5,19,10,19Z"/><ellipse class="cls-2" cx="10.01" cy="17.06" rx="9.01" ry="1.94"/><path class="cls-3" d="M2.43,9.65A2.26,2.26,0,0,0,.16,11.93V14.2a2.26,2.26,0,0,0,2.27,2.27H17.59a2.26,2.26,0,0,0,2.27-2.27V11.93a2.26,2.26,0,0,0-2.27-2.28Z"/><path class="cls-4" d="M10,1a5.33,5.33,0,0,1,5.4,5.48c0,2.27-3.05,6.19-4.62,8.07a1.1,1.1,0,0,1-1.72,0c-1.49-1.8-4.54-5.8-4.54-8.07A5.44,5.44,0,0,1,10,1ZM8.36,4.68a.51.51,0,0,0-.47.47v3.6a.52.52,0,0,0,.55.47A.52.52,0,0,0,9,8.75V5.15A.69.69,0,0,0,8.36,4.68Zm2.74,0h-1a.45.45,0,0,0-.47.47v3.6a.45.45,0,0,0,.47.47h.07a.45.45,0,0,0,.47-.47V7.81h.79c1.09-.08,1.72-.55,1.72-1.56S12.44,4.68,11.1,4.68ZM11,5.54c.7,0,1,.24,1,.71S11.65,7,11,7h-.32V5.54Z"/></svg>