<svg id="图层_1" data-name="图层 1" xmlns="http://www.w3.org/2000/svg" viewBox="0 0 20 20"><defs><style>.cls-1{fill:#e5e5e5;}.cls-2{fill:#b0b0b0;}.cls-3{fill:#606060;}</style></defs><path class="cls-1" d="M1,17c0,1.1,4,2,9,2s9-.9,9-2h0c0-1.1-4-2-9-2S1,15.9,1,17Z"/><rect class="cls-2" x="8.29" y="1" width="9.27" height="5.98" rx="1.5"/><rect class="cls-2" x="2.43" y="10.3" width="9.27" height="5.98" rx="1.5"/><path class="cls-3" d="M18.2,9.22,16.8,7.76a.81.81,0,0,0-1.07-.07L14.17,8.9A.81.81,0,0,0,14,10h0a.81.81,0,0,0,1.13.14l.17-.13a4.3,4.3,0,0,1-.09.47,3.58,3.58,0,0,1-2.45,2.56.8.8,0,0,0-.47,1,.79.79,0,0,0,.75.52.65.65,0,0,0,.27,0,5.19,5.19,0,0,0,3.59-4.36l.13.13a.8.8,0,0,0,.57.24.81.81,0,0,0,.56-.22A.8.8,0,0,0,18.2,9.22Z"/><path class="cls-3" d="M4.17,9.73a.76.76,0,0,0,.54-.22L6.15,8.16A.8.8,0,0,0,6.18,7,.79.79,0,0,0,5.05,7l-.16.15a2.59,2.59,0,0,1,0-.48A3.58,3.58,0,0,1,7.12,3.88a.8.8,0,0,0-.69-1.44A5.18,5.18,0,0,0,3.28,7.13L3.14,7a.8.8,0,0,0-1,1.22L3.65,9.54A.76.76,0,0,0,4.17,9.73Z"/></svg>