<?xml version="1.0" standalone="no"?><!DOCTYPE svg PUBLIC "-//W3C//DTD SVG 1.1//EN" "http://www.w3.org/Graphics/SVG/1.1/DTD/svg11.dtd"><svg t="1687231915492" class="icon" viewBox="0 0 1024 1024" version="1.1" xmlns="http://www.w3.org/2000/svg" p-id="2469" width="32" height="32" xmlns:xlink="http://www.w3.org/1999/xlink"><path d="M358.4 921.6h153.6V460.8H102.4v227.84C102.4 834.56 198.656 921.6 358.4 921.6zM789.504 546.304L614.4 512a43.008 43.008 0 0 0-51.2 51.2l32.256 173.056a43.52 43.52 0 0 0 73.728 23.04l36.864-36.352 133.632 133.12a47.616 47.616 0 1 0 67.072-67.072l-132.608-132.608 36.864-36.352a44.032 44.032 0 0 0-21.504-73.728zM683.52 102.4h-343.04C191.488 102.4 102.4 197.632 102.4 358.4v51.2h819.2V358.4c0-160.768-89.088-256-238.08-256z" fill="#60A5F7" p-id="2470"></path><path d="M921.6 358.4c0-159.744-89.088-256-238.08-256h-343.04C191.488 102.4 102.4 197.632 102.4 358.4v51.2h819.2s0-4.608 2.56-7.168zM789.504 546.304L614.4 512a43.008 43.008 0 0 0-51.2 51.2l32.256 173.056a42.496 42.496 0 0 0 29.184 33.28 832.512 832.512 0 0 0 197.632-193.024 44.032 44.032 0 0 0-32.768-30.208zM512 460.8H102.4v227.84a211.968 211.968 0 0 0 164.352 220.672A811.008 811.008 0 0 0 512 835.584z" fill="#87BBF9" p-id="2471"></path><path d="M102.4 637.44c16.896 0 33.792 2.56 51.2 2.56a548.352 548.352 0 0 0 358.4-132.608V460.8H102.4zM705.536 102.4H340.48C191.488 102.4 102.4 197.632 102.4 358.4v51.2h499.2a549.376 549.376 0 0 0 103.936-307.2z" fill="#A3CBFC" p-id="2472"></path><path d="M482.816 102.4H340.48C191.488 102.4 102.4 197.632 102.4 358.4v51.2h122.368a329.728 329.728 0 0 0 258.048-307.2z" fill="#BEDBFD" p-id="2473"></path></svg>