<?xml version="1.0" standalone="no"?><!DOCTYPE svg PUBLIC "-//W3C//DTD SVG 1.1//EN" "http://www.w3.org/Graphics/SVG/1.1/DTD/svg11.dtd"><svg t="1694510544189" class="icon" viewBox="0 0 1024 1024" version="1.1" xmlns="http://www.w3.org/2000/svg" p-id="8724" xmlns:xlink="http://www.w3.org/1999/xlink" width="200" height="200"><path d="M837.12 343.04L640 115.2c-15.36-7.68-17.92-12.8-38.4-12.8H325.12C230.4 102.4 153.6 184.32 153.6 284.16V742.4c0 99.84 76.8 181.76 171.52 181.76h376.32c94.72 0 168.96-81.92 168.96-181.76V417.28c0-33.28-7.68-51.2-33.28-74.24zM358.4 358.4c0-28.16 23.04-51.2 51.2-51.2s51.2 23.04 51.2 51.2-23.04 51.2-51.2 51.2-51.2-23.04-51.2-51.2z m217.6 384h-128c-20.48 0-38.4-17.92-38.4-38.4s17.92-38.4 38.4-38.4h128c20.48 0 38.4 17.92 38.4 38.4s-17.92 38.4-38.4 38.4z" p-id="8725"></path></svg>