<?xml version="1.0" standalone="no"?><!DOCTYPE svg PUBLIC "-//W3C//DTD SVG 1.1//EN" "http://www.w3.org/Graphics/SVG/1.1/DTD/svg11.dtd"><svg class="icon" width="32px" height="32.00px" viewBox="0 0 1024 1024" version="1.1" xmlns="http://www.w3.org/2000/svg"><path d="M204.8 102.4a102.4 102.4 0 0 0-102.4 102.4v179.2a102.4 102.4 0 0 0 102.4 102.4h179.2a102.4 102.4 0 0 0 102.4-102.4V204.8a102.4 102.4 0 0 0-102.4-102.4H204.8z m0 435.2a102.4 102.4 0 0 0-102.4 102.4V819.2a102.4 102.4 0 0 0 102.4 102.4h179.2a102.4 102.4 0 0 0 102.4-102.4v-179.2a102.4 102.4 0 0 0-102.4-102.4H204.8z m332.8 64a38.4 38.4 0 0 1 38.4-38.4h307.2a38.4 38.4 0 0 1 0 76.8h-307.2a38.4 38.4 0 0 1-38.4-38.4z m38.4 89.6a38.4 38.4 0 0 0 0 76.8h230.4a38.4 38.4 0 0 0 0-76.8h-230.4z m-38.4 166.4a38.4 38.4 0 0 1 38.4-38.4h153.6a38.4 38.4 0 0 1 0 76.8h-153.6a38.4 38.4 0 0 1-38.4-38.4zM640 102.4a102.4 102.4 0 0 0-102.4 102.4v179.2a102.4 102.4 0 0 0 102.4 102.4H819.2a102.4 102.4 0 0 0 102.4-102.4V204.8a102.4 102.4 0 0 0-102.4-102.4h-179.2z" /></svg>