<?xml version="1.0" standalone="no"?><!DOCTYPE svg PUBLIC "-//W3C//DTD SVG 1.1//EN" "http://www.w3.org/Graphics/SVG/1.1/DTD/svg11.dtd"><svg class="icon" width="200px" height="200.00px" viewBox="0 0 1024 1024" version="1.1" xmlns="http://www.w3.org/2000/svg"><path d="M748.17072838 225.40652798H550.5398495a51.01797478 51.01797478 0 0 1-40.0491105-16.96347678L460.5568964 158.4454364A99.35750519 99.35750519 0 0 0 390.27963671 129.3651909H272.81075032A164.72428531 164.72428531 0 0 0 108.08646501 294.08947622v435.88481977A164.72428531 164.72428531 0 0 0 272.81075032 894.6348091h475.35997806a164.72428531 164.72428531 0 0 0 164.72428532-164.66051311V391.78889772a164.78805753 164.78805753 0 0 0-164.72428532-166.38236974zM642.2446585 583.9353441L532.42846827 703.57249417a26.33802961 26.33802961 0 0 1-19.76946487 8.29042136 30.73832992 30.73832992 0 0 1-19.76946565-8.29042136L383.13712053 583.9353441a25.82784962 25.82784962 0 0 1 19.76946488-43.93923081h57.07635877l-2.74221589-131.17996657a26.33802961 26.33802961 0 0 1 24.67994519-23.59581372h54.90809512a26.33802961 26.33802961 0 0 1 26.91198182 26.33802961v131.17996731h54.84432213a26.33802961 26.33802961 0 0 1 23.59581372 41.19701418z" /></svg>