<?xml version="1.0" standalone="no"?><!DOCTYPE svg PUBLIC "-//W3C//DTD SVG 1.1//EN" "http://www.w3.org/Graphics/SVG/1.1/DTD/svg11.dtd"><svg class="icon" width="32px" height="32.00px" viewBox="0 0 1024 1024" version="1.1" xmlns="http://www.w3.org/2000/svg"><path d="M135.7312 376.9344c0.0512-26.368 4.5056-28.7744 28.7744-15.2576 100.0448 55.3472 199.68 111.36 299.6736 166.656 15.4624 8.5504 21.76 19.5584 21.504 36.8128-0.768 55.1936-0.3072 110.5408-0.3072 165.7856-0.1024 56.1664 0.2048 112.3328-0.3072 168.448-0.2048 24.9344-4.864 27.3408-27.1872 14.848-100.608-56.1152-200.9088-112.8448-301.6704-168.8064-14.6432-8.0384-20.8896-18.0224-20.7872-34.1504 0.3584-111.4112 0-222.9248 0.3072-334.336z m733.2864-14.3872c27.136-14.9504 30.4128-12.7488 30.5664 17.92 0.3072 54.3232 0.0512 108.7488 0.0512 163.072 0 55.296-0.512 110.4896 0.3584 165.7344 0.2048 17.152-5.9904 27.8528-21.504 36.5056-99.1232 54.9376-197.632 110.848-296.7552 165.888-28.3648 15.8208-31.6928 13.5168-31.744-18.8416-0.1536-108.6976 0.2048-217.4464-0.256-326.144-0.1024-16.5376 3.6864-28.672 19.7632-37.4784 100.0448-55.2448 199.5776-111.36 299.52-166.6048v-0.0512zM496.64 108.8512c14.2336-8.0384 26.2656-8.9088 40.96-0.6144a37371.904 37371.904 0 0 0 303.616 169.984c20.992 11.6224 16.6912 17.7152-1.28 27.648-100.8128 55.6032-201.1136 112.0256-301.6192 168.0384-6.2976 3.4816-13.0048 6.2976-19.8656 9.728-6.4-2.816-12.4928-4.8128-17.92-7.7824C398.336 418.9184 296.3456 361.6768 194.048 305.152c-17.152-9.5232-20.3264-15.616-1.024-26.2656A46264.1152 46264.1152 0 0 0 496.64 108.8512z" /></svg>