<?xml version="1.0" standalone="no"?><!DOCTYPE svg PUBLIC "-//W3C//DTD SVG 1.1//EN" "http://www.w3.org/Graphics/SVG/1.1/DTD/svg11.dtd"><svg t="1691565661341" class="icon" viewBox="0 0 1025 1024" version="1.1" xmlns="http://www.w3.org/2000/svg" p-id="3610" xmlns:xlink="http://www.w3.org/1999/xlink" width="32.03125" height="32"><path d="M171.82573355 500.89329111a329.31013567 329.31013567 0 1 0 658.62027136 0 329.31013567 329.31013567 0 0 0-658.62027136 0z m656.35461804 248.53694622l89.67773639 89.67773557a55.48217129 55.48217129 0 0 1-78.50753696 78.50753696l-89.67773556-89.67773639A410.82098098 410.82098098 0 1 1 501.13586923 90.125a410.71560123 410.71560123 0 0 1 410.76829111 410.76829111 409.18760293 409.18760293 0 0 1-83.72380875 248.53694622z m-151.42997296-315.29469671a39.51721665 39.51721665 0 0 0-55.85099881-55.85099964l-145.9502526 145.89756272L384.90256333 434.18822969a39.51721665 39.51721665 0 0 0-55.85099882 55.90368868L446.97093836 608.06398209a39.51721665 39.51721665 0 0 0 57.27361898-1.47531007l172.45313141-172.4531314z" p-id="3611"></path></svg>