<?xml version="1.0" standalone="no"?><!DOCTYPE svg PUBLIC "-//W3C//DTD SVG 1.1//EN" "http://www.w3.org/Graphics/SVG/1.1/DTD/svg11.dtd"><svg class="icon" width="32px" height="32.00px" viewBox="0 0 1024 1024" version="1.1" xmlns="http://www.w3.org/2000/svg"><path d="M880.64 102.4H501.76c-25.6 0-40.96 15.36-40.96 40.96s15.36 40.96 40.96 40.96h348.16v348.16c0 20.48 15.36 40.96 40.96 40.96s40.96-15.36 40.96-40.96V143.36c-10.24-25.6-25.6-40.96-51.2-40.96zM665.6 256H204.8c-56.32 0-102.4 46.08-102.4 102.4v460.8c0 56.32 46.08 102.4 102.4 102.4h460.8c56.32 0 102.4-46.08 102.4-102.4V358.4c0-56.32-46.08-102.4-102.4-102.4zM445.44 373.76l25.6 76.8-66.56 5.12-30.72-71.68 71.68-10.24z m204.8 409.6H225.28v-51.2h174.08v-87.04H266.24v-51.2h138.24v-66.56H245.76V471.04h378.88v56.32h-153.6v66.56h133.12v51.2H471.04v87.04h179.2v51.2z" /></svg>