<?xml version="1.0" standalone="no"?><!DOCTYPE svg PUBLIC "-//W3C//DTD SVG 1.1//EN" "http://www.w3.org/Graphics/SVG/1.1/DTD/svg11.dtd"><svg t="1687855394608" class="icon" viewBox="0 0 1024 1024" version="1.1" xmlns="http://www.w3.org/2000/svg" p-id="6756" xmlns:xlink="http://www.w3.org/1999/xlink" width="200" height="200"><path d="M791.8592 240.9472a39.6288 39.6288 0 0 0-9.5744 55.1936 328.2944 328.2944 0 0 1 60.416 190.4128 330.752 330.752 0 0 1-330.3424 330.3424 330.7008 330.7008 0 0 1-330.2912-330.3424c0-102.912 49.0496-200.192 129.8944-262.2464l42.1376 75.8784a254.5152 254.5152 0 0 0-94.9248 197.3248 253.44 253.44 0 0 0 253.184 253.184 253.44 253.44 0 0 0 253.1328-253.184 251.3408 251.3408 0 0 0-46.2848-145.92 39.5776 39.5776 0 1 0-64.768 45.7728c20.8384 29.3376 31.744 64 31.744 100.1472a174.08 174.08 0 0 1-173.824 173.8752A174.1312 174.1312 0 0 1 338.432 497.5104c0-48.128 20.6336-93.7984 55.04-126.3616L448 469.3504a76.8 76.8 0 0 0-13.2096 43.1616c0 42.752 34.816 77.568 77.568 77.568 42.752 0 77.5168-34.816 77.5168-77.568 0-40.0896-30.72-72.7552-69.8368-76.6976L361.0112 149.2992a39.5264 39.5264 0 0 0-39.9872-19.8144 38.5024 38.5024 0 0 0-18.176 5.0688 411.7504 411.7504 0 0 0-200.0896 352c0 225.8432 183.7568 409.6 409.6 409.6s409.6-183.7568 409.6-409.6a407.04 407.04 0 0 0-74.8544-236.1344 39.68 39.68 0 0 0-55.2448-9.472z" p-id="6757"></path></svg>