<?xml version="1.0" standalone="no"?><!DOCTYPE svg PUBLIC "-//W3C//DTD SVG 1.1//EN" "http://www.w3.org/Graphics/SVG/1.1/DTD/svg11.dtd"><svg class="icon" width="200px" height="200.00px" viewBox="0 0 1024 1024" version="1.1" xmlns="http://www.w3.org/2000/svg"><path d="M512 921.6c225.28 0 409.6-184.32 409.6-409.6s-184.32-409.6-409.6-409.6-409.6 184.32-409.6 409.6 184.32 409.6 409.6 409.6z m40.96-245.76c0 20.48-15.36 40.96-40.96 40.96-20.48 0-40.96-15.36-40.96-40.96v-128H348.16c-25.6 0-40.96-15.36-40.96-35.84 0-20.48 15.36-40.96 40.96-40.96h128V343.04c-5.12-20.48 15.36-35.84 35.84-35.84 20.48 0 40.96 15.36 40.96 40.96v128h128c20.48 0 40.96 15.36 40.96 40.96 0 20.48-15.36 35.84-40.96 35.84h-128v122.88z" /></svg>