<?xml version="1.0" standalone="no"?><!DOCTYPE svg PUBLIC "-//W3C//DTD SVG 1.1//EN" "http://www.w3.org/Graphics/SVG/1.1/DTD/svg11.dtd"><svg class="icon" width="200px" height="200.00px" viewBox="0 0 1024 1024" version="1.1" xmlns="http://www.w3.org/2000/svg"><path d="M348.16 129.70666667a218.45333333 218.45333333 0 0 0-218.45333333 218.45333333v327.68a218.45333333 218.45333333 0 0 0 218.45333333 218.45333333h327.68a218.45333333 218.45333333 0 0 0 218.45333333-218.45333333V348.16a218.45333333 218.45333333 0 0 0-218.45333333-218.45333333H348.16z m204.8 557.60213333a40.96 40.96 0 0 1-81.92 0v-136.53333333h-136.53333333a40.96 40.96 0 0 1 0-81.92h136.53333333v-136.53333334a40.96 40.96 0 1 1 81.92 0v136.53333334h136.53333333a40.96 40.96 0 0 1 0 81.92h-136.53333333v136.53333333z" /></svg>