<?xml version="1.0" standalone="no"?><!DOCTYPE svg PUBLIC "-//W3C//DTD SVG 1.1//EN" "http://www.w3.org/Graphics/SVG/1.1/DTD/svg11.dtd"><svg class="icon" width="200px" height="199.80px" viewBox="0 0 1025 1024" version="1.1" xmlns="http://www.w3.org/2000/svg"><path d="M906.24 829.44L819.2 742.4c51.2-71.68 81.92-153.6 81.92-240.64 0-107.52-40.96-209.92-117.76-281.6C706.56 143.36 609.28 102.4 501.76 102.4 281.6 102.4 102.4 281.6 102.4 501.76s179.2 399.36 399.36 399.36c87.04 0 174.08-30.72 240.64-81.92l87.04 87.04c20.48 20.48 56.32 20.48 76.8 0 20.48-20.48 20.48-56.32 0-76.8z m-266.24-245.76c15.36 15.36 15.36 40.96 0 56.32-15.36 15.36-40.96 15.36-56.32 0l-92.16-92.16-92.16 92.16c-15.36 15.36-40.96 15.36-56.32 0-15.36-15.36-15.36-40.96 0-56.32l92.16-92.16-87.04-87.04c-15.36-15.36-15.36-40.96 0-56.32s40.96-15.36 56.32 0l92.16 92.16 92.16-92.16c15.36-15.36 40.96-15.36 56.32 0s15.36 40.96 0 56.32l-92.16 92.16 87.04 87.04z" /></svg>