<?xml version="1.0" standalone="no"?><!DOCTYPE svg PUBLIC "-//W3C//DTD SVG 1.1//EN" "http://www.w3.org/Graphics/SVG/1.1/DTD/svg11.dtd"><svg t="1697512581481" class="icon" viewBox="0 0 1024 1024" version="1.1" xmlns="http://www.w3.org/2000/svg" p-id="8897" xmlns:xlink="http://www.w3.org/1999/xlink" width="200" height="200"><path d="M512 441.57711803c-39.35396347 0-70.42288197 31.06891852-70.42288197 70.42288197s31.06891852 70.42288197 70.42288197 70.42288197 70.42288197-31.06891852 70.42288197-70.42288197-31.06891852-70.42288197-70.42288197-70.42288197z" p-id="8898"></path><path d="M965.60621037 460.21846914c-6.2137837-12.42756741-134.63198025-306.54666272-453.60621037-306.54666272-318.97423013 0-449.4636879 294.11909531-453.60621037 304.47540148-16.57008987 31.06891852-16.57008987 76.63666569-2.07126124 103.56306173 8.28504494 20.71261235 130.48945778 306.54666272 455.67747161 306.54666272 333.47305876 0 455.67747161-304.47540148 455.67747161-306.54666272 14.49882864-28.99765728 12.42756741-74.56540445-2.07126124-101.49180049zM512 675.62963753c-89.06423309 0-163.62963753-72.4941432-163.62963753-163.62963753 0-89.06423309 72.4941432-163.62963753 163.62963753-163.62963753 89.06423309 0 163.62963753 72.4941432 163.62963753 163.62963753 0 89.06423309-74.56540445 163.62963753-163.62963753 163.62963753z" p-id="8899"></path></svg>