<?xml version="1.0" standalone="no"?><!DOCTYPE svg PUBLIC "-//W3C//DTD SVG 1.1//EN" "http://www.w3.org/Graphics/SVG/1.1/DTD/svg11.dtd"><svg class="icon" width="200px" height="200.00px" viewBox="0 0 1024 1024" version="1.1" xmlns="http://www.w3.org/2000/svg"><path d="M880 102.4H502.4c-25.6 0-41.6 16-41.6 41.6s16 41.6 41.6 41.6h348.8v348.8c0 19.2 16 41.6 41.6 41.6s41.6-16 41.6-41.6V144c-3.2-28.8-28.8-41.6-54.4-41.6zM665.6 256H204.8c-57.6 0-102.4 44.8-102.4 102.4v460.8c0 57.6 44.8 102.4 102.4 102.4h460.8c57.6 0 102.4-44.8 102.4-102.4V358.4C768 300.8 723.2 256 665.6 256z m-208 176h137.6c9.6 0 16 6.4 16 16v19.2c0 9.6-6.4 16-16 16H448l-9.6 35.2h204.8c9.6 0 16 6.4 16 16v25.6c0 9.6-6.4 16-16 16h-214.4l-6.4 28.8H576c12.8 0 19.2 16 12.8 25.6-16 25.6-38.4 48-60.8 70.4-9.6 9.6-6.4 22.4 6.4 25.6 16 6.4 32 12.8 51.2 19.2-6.4 6.4-9.6 16-19.2 32-9.6 9.6-16 19.2-16 25.6-112-51.2-185.6-70.4-214.4-67.2-9.6 0-16 0-16-6.4 6.4-25.6 16-41.6 25.6-51.2 0 0 6.4 0 19.2 6.4 32 3.2 60.8 9.6 73.6 12.8 6.4 0 9.6 0 16-3.2l38.4-38.4h-131.2c-9.6 0-19.2-9.6-16-19.2l12.8-48c3.2-9.6-3.2-19.2-16-19.2h-96c-9.6 0-16-6.4-16-16v-19.2c0-9.6 6.4-16 16-16h128l9.6-35.2H288c-9.6 0-16-6.4-16-16V448c0-9.6 6.4-16 16-16h92.8c6.4 0 12.8-6.4 16-12.8 3.2-9.6 3.2-16 6.4-25.6 0-6.4 6.4-12.8 6.4-12.8 9.6 0 32 0 60.8 6.4 9.6 0 9.6 12.8 6.4 16" /></svg>