<svg t="1699932130314" class="icon" viewBox="0 0 1024 1024" version="1.1" xmlns="http://www.w3.org/2000/svg" p-id="5773" width="20" height="20"><path d="M512 90.125Q90.125 90.125 90.125 512t421.875 421.875q421.875 0 421.875-421.875T512 90.125z m-31.0921875 220.05a30.375 30.375 0 0 1 9.0703125-22.021875 29.53125 29.53125 0 0 1 21.76875-9.3234375 29.86875 29.86875 0 0 1 22.275 9.3234375 30.375 30.375 0 0 1 9.0703125 22.021875v186.13125a29.53125 29.53125 0 0 1-9.0703125 21.8109375 30.290625 30.290625 0 0 1-22.275 9.0703125 30.965625 30.965625 0 0 1-30.8390625-30.88125z m232.9171875 301.0078125a221.3578125 221.3578125 0 0 1-116.60625 116.60625 217.35 217.35 0 0 1-170.4375 0A226.0828125 226.0828125 0 0 1 356.9609375 680.75a218.025 218.025 0 0 1-46.996875-69.5671875 218.953125 218.953125 0 0 1-11.053125-136.3921875 224.775 224.775 0 0 1 17.4234375-47.5453125 208.8703125 208.8703125 0 0 1 27.8859375-42.1875 239.79375 239.79375 0 0 1 37.2515625-35.26875 30.1640625 30.1640625 0 0 1 23.2453125-5.8640625 30.628125 30.628125 0 0 1 20.334375 12.234375 29.19375 29.19375 0 0 1 5.90625 23.034375 30.8390625 30.8390625 0 0 1-12.2765625 20.5453125 151.875 151.875 0 0 0-47.25 55.35 159.046875 159.046875 0 0 0-4.21875 131.540625 158.5828125 158.5828125 0 0 0 33.75 49.95 160.3125 160.3125 0 0 0 49.9921875 33.75 155.165625 155.165625 0 0 0 121.9640625 0 159.1734375 159.1734375 0 0 0 83.7421875-83.7421875 151.3265625 151.3265625 0 0 0 12.65625-61.003125A154.490625 154.490625 0 0 0 651.21875 453.4859375a152.9296875 152.9296875 0 0 0-49.4859375-56.109375 29.53125 29.53125 0 0 1-12.9515625-20.08125 30.7125 30.7125 0 0 1 5.146875-23.4984375 29.86875 29.86875 0 0 1 20.08125-12.65625 30.88125 30.88125 0 0 1 23.4984375 5.146875 220.2609375 220.2609375 0 0 1 39.1921875 35.4796875 234.7734375 234.7734375 0 0 1 29.53125 42.8625 213.3421875 213.3421875 0 0 1 18.6046875 48.76875 217.265625 217.265625 0 0 1 6.5390625 52.3125 212.2453125 212.2453125 0 0 1-17.55 85.471875z" p-id="5774"></path></svg>