<?xml version="1.0" standalone="no"?><!DOCTYPE svg PUBLIC "-//W3C//DTD SVG 1.1//EN" "http://www.w3.org/Graphics/SVG/1.1/DTD/svg11.dtd"><svg t="1697596408416" class="icon" viewBox="0 0 1024 1024" version="1.1" xmlns="http://www.w3.org/2000/svg" p-id="9152" xmlns:xlink="http://www.w3.org/1999/xlink" width="200" height="200"><path d="M660.48 483.84l87.04-87.04c15.36-15.36 40.96-15.36 58.88 0 7.68 7.68 10.24 17.92 12.8 28.16v46.08h64c23.04 0 40.96 17.92 40.96 40.96 0 23.04-17.92 40.96-40.96 40.96H819.2V601.6c0 10.24-5.12 20.48-12.8 28.16-15.36 15.36-40.96 15.36-58.88 0l-87.04-87.04c-2.56-2.56-2.56-5.12-5.12-7.68-10.24-15.36-7.68-38.4 5.12-51.2z" p-id="9153"></path><path d="M483.84 102.4h56.32C581.12 102.4 614.4 135.68 614.4 176.64v670.72c0 40.96-33.28 74.24-74.24 74.24h-56.32c-40.96 0-74.24-33.28-74.24-74.24V176.64C409.6 135.68 442.88 102.4 483.84 102.4z" p-id="9154"></path><path d="M363.52 483.84l-87.04-87.04c-15.36-15.36-40.96-15.36-58.88 0-7.68 7.68-10.24 17.92-12.8 28.16v46.08H143.36c-23.04 0-40.96 17.92-40.96 40.96 0 23.04 17.92 40.96 40.96 40.96h64V601.6c0 10.24 5.12 20.48 12.8 28.16 15.36 15.36 40.96 15.36 58.88 0l87.04-87.04c2.56-2.56 2.56-5.12 5.12-7.68 7.68-15.36 5.12-38.4-7.68-51.2z" p-id="9155"></path></svg>