<svg t="1699931409998" class="icon" viewBox="0 0 1024 1024" version="1.1" xmlns="http://www.w3.org/2000/svg" p-id="5326" width="20" height="20"><path d="M512 90.125Q90.125 90.125 90.125 512t421.875 421.875q421.875 0 421.875-421.875T512 90.125z m-5.3578125 646.1015625a216.2953125 216.2953125 0 0 1-202.5-141.58125h0.253125a27.9703125 27.9703125 0 0 1-3.1640625-12.65625 28.4765625 28.4765625 0 0 1 28.4765625-28.434375 28.0546875 28.0546875 0 0 1 26.6625 19.74375h0.421875A159.3 159.3 0 1 0 506.6421875 360.546875a157.2328125 157.2328125 0 0 0-54.3375 9.95625l12.65625 23.9203125a24.7640625 24.7640625 0 0 1-22.9921875 36.2390625l-105.215625-4.21875a24.7640625 24.7640625 0 0 1-19.8703125-37.96875l56.278125-89.184375a24.7640625 24.7640625 0 0 1 42.8625 1.771875l9.6609375 18.4359375a216.2109375 216.2109375 0 1 1 80.9578125 416.6859375zM468.0828125 486.6875a25.3125 25.3125 0 0 1 37.96875-21.853125l56.9109375 32.90625a25.3125 25.3125 0 0 1 0 43.6640625l-56.9109375 32.8640625a25.3125 25.3125 0 0 1-37.96875-21.853125z" p-id="5327"></path></svg>