<?xml version="1.0" standalone="no"?><!DOCTYPE svg PUBLIC "-//W3C//DTD SVG 1.1//EN" "http://www.w3.org/Graphics/SVG/1.1/DTD/svg11.dtd"><svg class="icon" width="200px" height="199.80px" viewBox="0 0 1025 1024" version="1.1" xmlns="http://www.w3.org/2000/svg"><path d="M819.3536 743.0656l87.1424 87.1424a53.9136 53.9136 0 0 1-76.288 76.288l-87.1424-87.1424A399.2064 399.2064 0 1 1 501.5552 102.4a399.104 399.104 0 0 1 399.1552 399.1552 397.6192 397.6192 0 0 1-81.3568 241.5104z m-113.7664-369.2544a40.96 40.96 0 0 0-57.9072 1.3824L471.296 552.96l-93.184-99.8912-4.4544-4.096A40.96 40.96 0 0 0 318.208 508.928l122.88 131.6864 4.2496 3.9424a40.96 40.96 0 0 0 55.3472-3.6864l206.336-209.152 3.84-4.7104a40.96 40.96 0 0 0-5.2736-53.248z" /></svg>