<?xml version="1.0" standalone="no"?><!DOCTYPE svg PUBLIC "-//W3C//DTD SVG 1.1//EN" "http://www.w3.org/Graphics/SVG/1.1/DTD/svg11.dtd"><svg class="icon" width="200px" height="200.00px" viewBox="0 0 1024 1024" version="1.1" xmlns="http://www.w3.org/2000/svg"><path d="M743.87786866 233.90856933H553.16894508a49.25308252 49.25308252 0 0 1-38.62380957-16.43829369l-48.20251465-48.20251465A95.84884643 95.84884643 0 0 0 398.42651392 141.21142578H285.15060449A158.88290406 158.88290406 0 0 0 126.26770044 300.09432984v420.59783958a158.88290406 158.88290406 0 0 0 158.88290405 158.94470191h458.72726417a158.88290406 158.88290406 0 0 0 158.94470191-158.94470191v-326.29394531A158.88290406 158.88290406 0 0 0 743.87786866 233.90856933zM622.56820703 551.7361753H569.60723878V678.23687768a25.9552002 25.9552002 0 0 1-29.66308594 27.56195021h-52.96096826a25.9552002 25.9552002 0 0 1-25.9552002-25.9552002l2.6573186-126.56249952H406.46026613a24.90463233 24.90463233 0 0 1-19.09561158-42.39349389l105.98373437-115.50064087a27.00576806 27.00576806 0 0 1 19.03381299-7.41577148 22.80349732 22.80349732 0 0 1 19.09561158 7.41577148l105.92193651 115.50064087a25.39901734 25.39901734 0 0 1-14.83154296 39.7361753v1.05056786z" /></svg>