<?xml version="1.0" standalone="no"?><!DOCTYPE svg PUBLIC "-//W3C//DTD SVG 1.1//EN" "http://www.w3.org/Graphics/SVG/1.1/DTD/svg11.dtd"><svg class="icon" width="32px" height="32.00px" viewBox="0 0 1024 1024" version="1.1" xmlns="http://www.w3.org/2000/svg"><path d="M394.752 798.72c-10.24 10.24-25.6 20.48-35.84 20.48l-158.72 20.48c-5.12 0-15.36-5.12-15.36-10.24v-5.12l20.48-158.72c0-15.36 10.24-25.6 20.48-35.84l-56.32-56.32c-20.48 20.48-35.84 51.2-40.96 81.92l-25.6 158.72c-5.12 51.2 25.6 97.28 76.8 107.52h25.6l158.72-20.48c30.72-5.12 61.44-20.48 81.92-40.96l430.08-430.08c56.32-56.32 56.32-148.48 0-204.8l-76.8-76.8c-56.32-56.32-148.48-56.32-204.8 0l-71.68 71.68-353.28 353.28 56.32 56.32" /></svg>