<svg t="1699932280217" class="icon" viewBox="0 0 1024 1024" version="1.1" xmlns="http://www.w3.org/2000/svg" p-id="6369" width="20" height="20"><path d="M512 90.125Q90.125 90.125 90.125 512t421.875 421.875q421.875 0 421.875-421.875T512 90.125z m126.8578125 466.2140625L493.859375 651.9359375a49.7390625 49.7390625 0 0 1-27.0421875 8.4375 47.671875 47.671875 0 0 1-22.3171875-5.9484375A55.6875 55.6875 0 0 1 416.1921875 604.8125V413.8296875A55.85625 55.85625 0 0 1 443.65625 364.34375a47.6296875 47.6296875 0 0 1 49.696875 2.4890625l146.30625 95.34375a54.84375 54.84375 0 0 1 24.553125 46.40625 56.446875 56.446875 0 0 1-25.3546875 47.75625z" p-id="6370"></path></svg>