<?xml version="1.0" standalone="no"?><!DOCTYPE svg PUBLIC "-//W3C//DTD SVG 1.1//EN" "http://www.w3.org/Graphics/SVG/1.1/DTD/svg11.dtd"><svg t="1687855390701" class="icon" viewBox="0 0 1024 1024" version="1.1" xmlns="http://www.w3.org/2000/svg" p-id="6621" xmlns:xlink="http://www.w3.org/1999/xlink" width="200" height="200"><path d="M665.4464 102.6048A205.568 205.568 0 0 1 870.4 307.5584v169.5232c0 21.0944-17.3056 38.4-38.4 38.4a38.5024 38.5024 0 0 1-38.4-38.4v-169.472a128.3072 128.3072 0 0 0-128.1536-128.2048H358.5024A128.256 128.256 0 0 0 230.4 307.5584v408.832a128.256 128.256 0 0 0 128.1024 128.1536h218.4192c21.1456 0 38.4 17.3056 38.4 38.4s-17.2544 38.4-38.4 38.4H358.5024A205.5168 205.5168 0 0 1 153.6 716.3904V307.5584a205.5168 205.5168 0 0 1 204.9024-204.9536z m24.1664 522.9568c21.1456 0 38.4 17.3056 38.4 38.4v78.848h78.7968c21.1456 0 38.4 17.2544 38.4 38.4 0 21.0432-17.2544 38.4-38.4 38.4h-117.248a38.5536 38.5536 0 0 1-38.4-38.4v-117.248c0-21.0944 17.3056-38.4 38.4-38.4zM507.9552 373.8624l101.12 110.2848h100.6592a38.4 38.4 0 0 1 0 76.8h-117.5552a38.4 38.4 0 0 1-28.3136-12.4416L488.0896 465.8176l-39.6288 74.752a38.4 38.4 0 0 1-33.9456 20.3776h-100.352a38.4 38.4 0 1 1 0-76.8h77.2608l54.3232-102.3488a38.7072 38.7072 0 0 1 29.0816-20.1216 38.912 38.912 0 0 1 33.1776 12.1856z" p-id="6622"></path></svg>