<?xml version="1.0" standalone="no"?><!DOCTYPE svg PUBLIC "-//W3C//DTD SVG 1.1//EN" "http://www.w3.org/Graphics/SVG/1.1/DTD/svg11.dtd"><svg class="icon" width="200px" height="200.00px" viewBox="0 0 1024 1024" version="1.1" xmlns="http://www.w3.org/2000/svg"><path d="M880 102.4H502.4c-25.6 0-41.6 16-41.6 41.6s16 41.6 41.6 41.6h348.8v348.8c0 19.2 16 41.6 41.6 41.6s41.6-16 41.6-41.6V144c0-28.8-28.8-41.6-54.4-41.6zM665.6 256H204.8c-57.6 0-102.4 44.8-102.4 102.4v460.8c0 57.6 44.8 102.4 102.4 102.4h460.8c57.6 0 102.4-44.8 102.4-102.4V358.4C768 300.8 723.2 256 665.6 256z m-275.2 124.8l41.6-6.4c6.4 0 12.8 3.2 16 9.6l16 51.2c3.2 9.6-3.2 16-12.8 19.2l-38.4 3.2c-6.4 0-9.6-3.2-12.8-9.6l-19.2-48c-3.2-6.4 3.2-16 9.6-19.2zM652.8 768c0 9.6-9.6 16-19.2 16H240c-9.6 0-16-6.4-16-16v-22.4c0-9.6 6.4-16 16-16H384c9.6 0 16-6.4 16-16v-57.6c0-9.6-6.4-16-16-16H281.6c-9.6 0-16-6.4-16-16V608c0-9.6 6.4-16 16-16h108.8c9.6 0 16-6.4 16-16v-38.4c0-9.6-6.4-16-16-16h-128c-9.6 0-16-6.4-16-16V480c0-9.6 6.4-16 16-16h348.8c9.6 0 16 6.4 16 16v25.6c0 9.6-6.4 16-16 16h-124.8c-9.6 0-16 6.4-16 16V576c0 9.6 6.4 16 16 16h102.4c9.6 0 16 6.4 16 16v16c0 9.6-6.4 16-16 16h-102.4c-9.6 0-16 6.4-16 16v57.6c0 9.6 6.4 16 16 16h150.4c9.6 0 16 6.4 16 16" /></svg>