<svg t="1699932059895" class="icon" viewBox="0 0 1024 1024" version="1.1" xmlns="http://www.w3.org/2000/svg" p-id="5624" width="20" height="20"><path d="M512 90.125C230.609375 90.125 90.125 231.03125 90.125 512s140.484375 421.875 421.875 421.875 421.875-140.484375 421.875-421.875S793.390625 90.125 512 90.125z m-5.484375 646.3125c-92.8125 0-172.125-59.0625-202.5-141.75h0.421875c-2.109375-3.796875-2.953125-8.015625-3.375-12.65625 0-15.609375 12.65625-28.265625 28.265625-28.265625 12.234375 0 23.203125 8.015625 26.578125 19.828125h0.421875c21.9375 61.59375 81 106.3125 150.1875 106.3125 88.171875 0 159.46875-71.296875 159.46875-159.46875s-71.296875-159.46875-159.46875-159.46875c-18.5625 0-37.125 3.375-54.421875 10.125l12.65625 24.046875c8.859375 16.875-3.796875 37.125-23.203125 36.28125l-105.046875-4.640625c-18.984375-0.84375-29.953125-21.9375-19.828125-37.96875l56.53125-89.015625c10.125-16.03125 34.171875-15.1875 43.03125 1.6875l9.703125 18.5625c25.734375-10.546875 53.15625-16.03125 81-16.03125 119.390625 0 216.421875 97.03125 216.421875 216.421875s-97.453125 216-216.84375 216z" p-id="5625"></path></svg>