<?xml version="1.0" standalone="no"?><!DOCTYPE svg PUBLIC "-//W3C//DTD SVG 1.1//EN" "http://www.w3.org/Graphics/SVG/1.1/DTD/svg11.dtd"><svg t="1687854043635" class="icon" viewBox="0 0 1024 1024" version="1.1" xmlns="http://www.w3.org/2000/svg" p-id="2784" xmlns:xlink="http://www.w3.org/1999/xlink" width="200" height="200"><path d="M573.44 839.68H337.92c-61.44 0-107.52-51.2-107.52-112.64V296.96c0-61.44 46.08-112.64 107.52-112.64h348.16c61.44 0 107.52 51.2 107.52 112.64v128c0 20.48 15.36 35.84 40.96 35.84s35.84-20.48 35.84-35.84V281.6c0-102.4-76.8-179.2-168.96-179.2H322.56C230.4 102.4 153.6 184.32 153.6 281.6v455.68c0 102.4 76.8 179.2 168.96 179.2h250.88c20.48 0 46.08-10.24 46.08-40.96 0-25.6-25.6-35.84-46.08-35.84z" p-id="2785"></path><path d="M844.8 609.28h-133.12v-66.56c0-15.36-10.24-15.36-20.48-10.24L552.96 665.6c-10.24 10.24-10.24 25.6 0 35.84l143.36 133.12c10.24 10.24 20.48 5.12 20.48-10.24v-66.56h133.12c15.36 0 25.6-10.24 25.6-25.6v-102.4c-5.12-10.24-15.36-20.48-30.72-20.48z" p-id="2786"></path></svg>