<?xml version="1.0" standalone="no"?><!DOCTYPE svg PUBLIC "-//W3C//DTD SVG 1.1//EN" "http://www.w3.org/Graphics/SVG/1.1/DTD/svg11.dtd"><svg class="icon" width="32px" height="32.00px" viewBox="0 0 1024 1024" version="1.1" xmlns="http://www.w3.org/2000/svg"><path d="M849.8688 236.032h-153.6l-51.2-79.36A122.88 122.88 0 0 0 540.6208 102.4h-82.944a122.368 122.368 0 0 0-102.4 54.784l-51.2 78.848h-163.84a42.496 42.496 0 0 0 0 84.48h40.96V716.8a204.8 204.8 0 0 0 204.8 204.8h218.624a204.8 204.8 0 0 0 204.8-204.8V320.512h41.472a42.496 42.496 0 0 0 0-84.48h-1.024z m-432.128-35.84a56.832 56.832 0 0 1 45.568-20.992h73.216a56.832 56.832 0 0 1 45.568 20.992l27.648 35.84h-217.088l25.088-35.84z m47.616 434.688a38.4 38.4 0 1 1-76.8 0V506.88a38.4 38.4 0 0 1 76.8 0v128z m145.92 0a38.4 38.4 0 1 1-76.8 0V506.88a38.4 38.4 0 0 1 76.8 0v128z" /></svg>
