<?xml version="1.0" standalone="no"?><!DOCTYPE svg PUBLIC "-//W3C//DTD SVG 1.1//EN" "http://www.w3.org/Graphics/SVG/1.1/DTD/svg11.dtd"><svg class="icon" width="32px" height="32.00px" viewBox="0 0 1024 1024" version="1.1" xmlns="http://www.w3.org/2000/svg"><path d="M870.4 261.12C870.4 173.568 800.9728 102.4 715.5712 102.4h-310.784C266.3936 102.4 153.6 217.9584 153.6 359.9872V762.88C153.6 850.432 223.0272 921.6 308.4288 921.6h310.784C757.76 921.6 870.4 806.0416 870.4 664.0128V261.12z m-323.2256 223.8464H393.4208c-19.3024 0-35.0208-16.896-35.0208-37.6832C358.4 426.496 374.1184 409.6 393.4208 409.6h153.7536c19.3024 0 35.0208 16.896 35.0208 37.6832 0 20.7872-15.7184 37.6832-35.0208 37.6832zM630.5792 665.6H393.4208C374.1184 665.6 358.4 648.704 358.4 627.9168c0-20.7872 15.7184-37.6832 35.0208-37.6832h237.1584c19.3024 0 35.0208 16.896 35.0208 37.6832 0 20.7872-15.7184 37.6832-35.0208 37.6832z" /></svg>