<?xml version="1.0" standalone="no"?><!DOCTYPE svg PUBLIC "-//W3C//DTD SVG 1.1//EN" "http://www.w3.org/Graphics/SVG/1.1/DTD/svg11.dtd"><svg class="icon" width="200px" height="200.00px" viewBox="0 0 1024 1024" version="1.1" xmlns="http://www.w3.org/2000/svg"><path d="M801.792 222.208c-37.376-37.376-81.408-67.072-130.048-87.552-50.688-21.504-104.448-32.256-159.232-32.256-54.784 0-109.056 10.752-159.232 32.256-48.64 20.48-92.672 50.176-130.048 87.552C145.408 299.008 102.4 403.456 102.4 512c0 108.544 43.008 212.992 119.808 289.792 37.376 37.376 81.408 67.072 130.048 87.552 50.688 21.504 104.448 32.256 159.232 32.256 108.544 0 212.992-43.008 289.28-120.32 76.8-76.8 120.32-180.736 120.32-289.28 0.512-108.544-42.496-212.992-119.296-289.792z m-26.112 322.56h-124.416l-64.512 152.064c-6.656 15.36-21.504 25.088-37.888 25.088h-2.56c-17.408-1.024-32.256-13.312-36.864-30.208l-66.56-243.712-43.52 76.288c-7.168 12.8-20.992 20.48-35.328 20.48H264.704c-22.528 0-40.96-18.432-40.96-40.96s18.432-40.96 40.96-40.96h75.264l80.896-141.824c8.192-14.336 24.064-22.528 40.96-20.48 16.384 2.048 30.208 13.824 34.304 29.696l61.44 225.28 29.184-68.096c6.656-15.36 21.504-25.088 37.888-25.088h151.552c22.528 0 40.96 18.432 40.96 40.96s-18.944 41.472-41.472 41.472z" /></svg>