<?xml version="1.0" standalone="no"?><!DOCTYPE svg PUBLIC "-//W3C//DTD SVG 1.1//EN" "http://www.w3.org/Graphics/SVG/1.1/DTD/svg11.dtd"><svg class="icon" width="200px" height="200.00px" viewBox="0 0 1024 1024" version="1.1" xmlns="http://www.w3.org/2000/svg"><path d="M852.48 284.16c-45.056-67.584-109.056-119.808-183.808-151.04-74.752-30.72-157.184-38.912-236.544-23.04-79.36 15.872-152.576 54.784-209.92 112.128a408.88832 408.88832 0 0 0-112.128 209.92c-15.872 79.36-7.68 161.792 23.552 236.544 31.232 74.752 83.456 138.752 151.04 183.808C351.744 897.536 431.104 921.6 512 921.6c108.544 0 212.992-43.52 289.792-120.32s119.808-180.736 120.32-289.792c-0.512-80.384-24.576-159.744-69.632-227.328z m-269.824 311.808c-2.56 14.848-10.24 28.672-21.504 39.424s-25.088 17.408-40.448 18.944c-15.36 2.048-30.72-1.024-44.032-8.192-13.312-7.168-24.064-18.944-30.72-32.768-6.656-13.824-8.704-29.184-5.632-44.544 3.072-14.848 10.24-28.672 21.504-38.912s25.088-16.896 40.448-18.944l108.032-122.368-33.792 162.816c7.168 13.824 9.216 29.184 6.144 44.544zM760.832 368.64c-8.704 8.704-19.968 12.8-31.232 12.8-11.264 0-22.528-4.096-31.232-12.8-24.576-24.576-53.248-44.032-85.504-56.832C564.736 291.84 512 286.72 460.8 296.96c-51.2 10.24-97.792 35.328-134.656 72.192-16.896 16.896-45.056 16.896-61.952 0-16.896-16.896-16.896-45.056 0-61.952 49.152-49.152 111.616-82.432 179.712-96.256 68.096-13.824 138.24-6.656 202.752 19.968 43.008 17.92 80.896 43.52 113.664 76.288 17.92 16.384 17.92 44.032 0.512 61.44z" /></svg>