<?xml version="1.0" standalone="no"?><!DOCTYPE svg PUBLIC "-//W3C//DTD SVG 1.1//EN" "http://www.w3.org/Graphics/SVG/1.1/DTD/svg11.dtd"><svg class="icon" width="200px" height="200.00px" viewBox="0 0 1024 1024" version="1.1" xmlns="http://www.w3.org/2000/svg"><path d="M512 102.4C286.72 102.4 102.4 286.72 102.4 512s184.32 409.6 409.6 409.6 409.6-184.32 409.6-409.6S737.28 102.4 512 102.4z m33.28 647.68c-5.12 7.68-10.24 12.8-17.92 15.36-7.68 2.56-15.36 5.12-23.04 2.56-7.68-2.56-15.36-5.12-20.48-10.24-5.12-5.12-10.24-12.8-10.24-20.48-2.56-7.68 0-15.36 2.56-23.04 2.56-7.68 7.68-12.8 15.36-17.92 7.68-5.12 15.36-7.68 23.04-7.68 5.12 0 10.24 0 15.36 2.56 5.12 2.56 10.24 5.12 12.8 7.68 2.56 2.56 7.68 7.68 7.68 12.8 2.56 5.12 2.56 10.24 2.56 15.36 0 7.68-2.56 17.92-7.68 23.04z m94.72-253.44c-17.92 25.6-40.96 43.52-66.56 53.76-7.68 2.56-12.8 7.68-17.92 15.36-5.12 7.68-7.68 15.36-7.68 23.04v23.04c0 5.12 0 10.24-2.56 15.36-2.56 5.12-5.12 10.24-7.68 12.8-2.56 5.12-7.68 7.68-12.8 10.24-5.12 2.56-10.24 2.56-12.8 2.56-5.12 0-10.24 0-15.36-2.56s-7.68-5.12-12.8-7.68c-7.68-7.68-10.24-17.92-10.24-28.16v-25.6c0-25.6 7.68-48.64 20.48-69.12 12.8-20.48 30.72-35.84 51.2-43.52 12.8-5.12 23.04-12.8 33.28-25.6 7.68-12.8 12.8-25.6 12.8-40.96 0-40.96-35.84-71.68-79.36-71.68s-79.36 33.28-79.36 71.68v10.24c0 10.24-5.12 20.48-10.24 28.16-7.68 7.68-15.36 12.8-25.6 12.8s-17.92-5.12-25.6-12.8c-7.68-7.68-10.24-17.92-10.24-28.16V409.6c0-20.48 5.12-40.96 12.8-61.44 7.68-17.92 20.48-35.84 33.28-48.64C435.2 271.36 473.6 256 512 256c38.4 0 76.8 15.36 107.52 43.52 15.36 12.8 25.6 30.72 33.28 51.2 7.68 20.48 12.8 40.96 12.8 61.44 0 30.72-10.24 58.88-25.6 84.48z" /></svg>