<?xml version="1.0" standalone="no"?><!DOCTYPE svg PUBLIC "-//W3C//DTD SVG 1.1//EN" "http://www.w3.org/Graphics/SVG/1.1/DTD/svg11.dtd"><svg t="1697596403984" class="icon" viewBox="0 0 1024 1024" version="1.1" xmlns="http://www.w3.org/2000/svg" p-id="9017" xmlns:xlink="http://www.w3.org/1999/xlink" width="200" height="200"><path d="M363.52 483.84l-87.04-87.04c-15.36-15.36-40.96-15.36-58.88 0-7.68 7.68-10.24 17.92-12.8 28.16v46.08H143.36c-23.04 0-40.96 17.92-40.96 40.96 0 23.04 17.92 40.96 40.96 40.96h64V601.6c0 10.24 5.12 20.48 12.8 28.16 15.36 15.36 40.96 15.36 58.88 0l87.04-87.04c2.56-2.56 2.56-5.12 5.12-7.68 7.68-15.36 5.12-38.4-7.68-51.2zM660.48 483.84l87.04-87.04c15.36-15.36 40.96-15.36 58.88 0 7.68 7.68 10.24 17.92 12.8 28.16v46.08h64c23.04 0 40.96 17.92 40.96 40.96 0 23.04-17.92 40.96-40.96 40.96H819.2V601.6c0 10.24-5.12 20.48-12.8 28.16-15.36 15.36-40.96 15.36-58.88 0l-87.04-87.04c-2.56-2.56-2.56-5.12-5.12-7.68-10.24-15.36-7.68-38.4 5.12-51.2z" p-id="9018"></path><path d="M450.56 102.4c23.04 0 40.96 17.92 40.96 40.96v737.28c0 23.04-17.92 40.96-40.96 40.96-23.04 0-40.96-17.92-40.96-40.96V143.36c0-23.04 17.92-40.96 40.96-40.96zM532.48 143.36c0-23.04 17.92-40.96 40.96-40.96 23.04 0 40.96 17.92 40.96 40.96v737.28c0 23.04-17.92 40.96-40.96 40.96-23.04 0-40.96-17.92-40.96-40.96V143.36z" p-id="9019"></path></svg>