<?xml version="1.0" standalone="no"?><!DOCTYPE svg PUBLIC "-//W3C//DTD SVG 1.1//EN" "http://www.w3.org/Graphics/SVG/1.1/DTD/svg11.dtd"><svg class="icon" width="32px" height="32.00px" viewBox="0 0 1024 1024" version="1.1" xmlns="http://www.w3.org/2000/svg"><path d="M307.2 102.4m102.4 0l179.2 0q102.4 0 102.4 102.4l0 102.4q0 102.4-102.4 102.4l-179.2 0q-102.4 0-102.4-102.4l0-102.4q0-102.4 102.4-102.4ZM102.4 614.4m102.4 0l179.2 0q102.4 0 102.4 102.4l0 102.4q0 102.4-102.4 102.4l-179.2 0q-102.4 0-102.4-102.4l0-102.4q0-102.4 102.4-102.4ZM537.6 716.8a102.4 102.4 0 0 1 102.4-102.4H819.2a102.4 102.4 0 0 1 102.4 102.4v102.4a102.4 102.4 0 0 1-102.4 102.4h-179.2a102.4 102.4 0 0 1-102.4-102.4v-102.4zM256 524.8a38.4 38.4 0 0 1 38.4-38.4h435.2a38.4 38.4 0 1 1 0 76.8h-435.2a38.4 38.4 0 0 1-38.4-38.4zM294.4 742.4a38.4 38.4 0 0 1-38.4-38.4v-179.2a38.4 38.4 0 0 1 76.8 0v179.2a38.4 38.4 0 0 1-38.4 38.4zM729.6 742.4a38.4 38.4 0 0 1-38.4-38.4v-179.2a38.4 38.4 0 0 1 76.8 0v179.2a38.4 38.4 0 0 1-38.4 38.4zM499.2 563.2a38.4 38.4 0 0 1-38.4-38.4v-128a38.4 38.4 0 0 1 76.8 0v128a38.4 38.4 0 0 1-38.4 38.4z" /></svg>