<?xml version="1.0" standalone="no"?><!DOCTYPE svg PUBLIC "-//W3C//DTD SVG 1.1//EN" "http://www.w3.org/Graphics/SVG/1.1/DTD/svg11.dtd"><svg class="icon" width="32px" height="32.00px" viewBox="0 0 1024 1024" version="1.1" xmlns="http://www.w3.org/2000/svg"><path d="M880.64 102.4H501.76c-25.6 0-40.96 15.36-40.96 40.96s15.36 40.96 40.96 40.96h348.16v348.16c0 20.48 15.36 40.96 40.96 40.96s40.96-15.36 40.96-40.96V143.36c-10.24-25.6-25.6-40.96-51.2-40.96zM665.6 256H204.8c-56.32 0-102.4 46.08-102.4 102.4v460.8c0 56.32 46.08 102.4 102.4 102.4h460.8c56.32 0 102.4-46.08 102.4-102.4V358.4c0-56.32-46.08-102.4-102.4-102.4z m-5.12 312.32H430.08l-10.24 35.84h184.32c-25.6 40.96-56.32 76.8-97.28 112.64 20.48 5.12 46.08 15.36 76.8 25.6-5.12 5.12-10.24 15.36-20.48 30.72-10.24 10.24-15.36 20.48-15.36 25.6-112.64-51.2-184.32-71.68-215.04-66.56-10.24 0-15.36 0-15.36-5.12 5.12-25.6 15.36-40.96 25.6-51.2 0 0 5.12 0 20.48 5.12 40.96 5.12 71.68 10.24 81.92 15.36l46.08-46.08h-153.6l25.6-87.04H230.4v-51.2h143.36l10.24-35.84H271.36v-51.2h122.88c0-10.24 5.12-25.6 10.24-40.96 0-5.12 5.12-10.24 5.12-10.24 10.24 0 30.72 0 61.44 5.12 10.24 0 15.36 5.12 5.12 15.36 0 5.12-5.12 5.12-5.12 5.12s0 5.12-5.12 10.24c0 5.12-5.12 10.24-5.12 15.36h153.6v51.2H450.56l-10.24 35.84h220.16v56.32z" /></svg>