<?xml version="1.0" standalone="no"?><!DOCTYPE svg PUBLIC "-//W3C//DTD SVG 1.1//EN" "http://www.w3.org/Graphics/SVG/1.1/DTD/svg11.dtd"><svg t="1691565708316" class="icon" viewBox="0 0 1025 1024" version="1.1" xmlns="http://www.w3.org/2000/svg" p-id="3902" xmlns:xlink="http://www.w3.org/1999/xlink" width="32.03125" height="32"><path d="M171.82577804 500.89329111a329.31013567 329.31013567 0 1 0 658.62027219 0 329.31013567 329.31013567 0 0 0-658.62027219 0z m656.35461805 248.53694622l89.67773639 89.67773557a55.48217129 55.48217129 0 0 1-78.50753614 78.50753696l-89.67773638-89.67773639A410.82098098 410.82098098 0 1 1 501.13591373 90.125a410.71560123 410.71560123 0 0 1 410.76829111 410.76829111 409.18760293 409.18760293 0 0 1-83.72380875 248.53694622z m-330.10047977-291.37360884L555.722362 400.46687186a34.88052942 34.88052942 0 1 1 49.37017565 49.37017565L547.45009198 507.42680414l57.64244567 57.6424465a34.88052942 34.88052942 0 1 1-49.37017565 49.37017565L498.07991632 556.84966968 440.43746982 614.43942629a34.88052942 34.88052942 0 1 1-49.37017566-49.37017565L448.65705078 507.42680414 391.06729416 449.78435846a34.88052942 34.88052942 0 1 1 49.37017566-49.37017566l57.64244651 57.64244568z" p-id="3903"></path></svg>