<?xml version="1.0" standalone="no"?><!DOCTYPE svg PUBLIC "-//W3C//DTD SVG 1.1//EN" "http://www.w3.org/Graphics/SVG/1.1/DTD/svg11.dtd"><svg t="1690355856409" class="icon" viewBox="0 0 1024 1024" version="1.1" xmlns="http://www.w3.org/2000/svg" p-id="6532" xmlns:xlink="http://www.w3.org/1999/xlink" width="32" height="32"><path d="M101.06177106 218.44428775h827.11260627c29.2959189 0 53.02428761-23.26440619 53.02428761-52.03008221a52.56032509 52.56032509 0 0 0-53.02428761-52.09636257H101.06177106c-29.2959189 0-53.02428761 23.33068654-53.02428759 52.09636257 0 28.76567603 23.72836869 52.03008222 53.02428759 52.03008221z m0 345.65207482h402.91830544c29.2959189 0 53.02428761-23.33068654 53.02428761-52.09636257a52.56032509 52.56032509 0 0 0-53.02428761-52.09636257H101.06177106c-29.2959189 0-53.02428761 23.33068654-53.02428759 52.09636257 0 28.76567603 23.72836869 52.09636257 53.02428759 52.09636257zM101.06177106 909.68215703h261.54229861c29.22963854 0 53.02428761-23.33068654 53.02428761-52.09636257a52.56032509 52.56032509 0 0 0-53.02428761-52.03008221H101.06177106c-29.2959189 0-53.02428761 23.26440619-53.02428759 52.03008221 0 28.76567603 23.72836869 52.09636257 53.02428759 52.09636257z m676.58990985-397.68215703c27.44006883 0 49.71026963 24.25861157 49.71026962 54.21733408v95.70883913h86.76099059c26.8435456 0 49.04746604 18.69106139 52.49404473 42.94967296l0.53024288 6.76059666c0 27.44006883-23.79464907 49.71026963-53.02428761 49.71026963h-86.76099059v94.11811049c0 27.44006883-18.69106139 50.10795179-42.94967296 53.6870912l-6.76059666 0.53024288c-27.44006883 0-49.71026963-24.25861157-49.71026964-54.21733408v-94.11811049H631.30464711c-26.8435456 0-49.04746604-18.69106139-52.56032508-42.94967296L578.2803595 711.63644283c0-27.44006883 23.72836869-49.71026963 53.02428761-49.71026962h96.63676416v-95.70883913c0-27.44006883 18.69106139-50.10795179 42.94967296-53.6870912z" p-id="6533"></path></svg>