<?xml version="1.0" standalone="no"?><!DOCTYPE svg PUBLIC "-//W3C//DTD SVG 1.1//EN" "http://www.w3.org/Graphics/SVG/1.1/DTD/svg11.dtd"><svg t="1687768283712" class="icon" viewBox="0 0 5171 1024" version="1.1" xmlns="http://www.w3.org/2000/svg" p-id="2805" xmlns:xlink="http://www.w3.org/1999/xlink" width="1009.9609375" height="200"><path d="M4456.155429 691.492571C4418.608762 819.687619 4335.37219 1024 4013.543619 1024H877.714286c-321.828571 0-405.065143-204.312381-442.61181-332.507429-24.185905-82.505143-80.798476-216.990476-99.669333-275.699809C272.14019 218.307048 48.761905 48.761905 48.761905 48.761905h4793.734095s-223.378286 169.593905-286.671238 367.030857c-18.870857 58.758095-75.483429 193.194667-99.669333 275.699809z" fill="#E7F0F8" p-id="2806"></path><path d="M4504.917333 642.730667C4467.370667 770.925714 4335.37219 975.238095 4013.543619 975.238095H877.714286c-321.828571 0-453.827048-204.312381-491.373715-332.507428-24.185905-82.505143-80.798476-216.990476-99.669333-275.69981C223.378286 169.545143 0 0 0 0h4891.257905s-223.378286 169.593905-286.671238 367.030857c-18.870857 58.758095-75.483429 193.194667-99.669334 275.69981z" fill="#F3FAFC" p-id="2807"></path><path d="M1317.936762 288.52419v114.102858h-61.001143v35.108571h65.828571v36.864h-65.828571v36.864h80.749714v37.741714h-43.885714l25.453714 25.014857a202.410667 202.410667 0 0 1-44.324571 40.813715c22.381714 12.726857 47.835429 21.942857 76.8 27.648l-19.748572 39.497143c-78.994286-20.626286-135.168-64.950857-168.96-132.973715h-54.418285v83.382857a478.256762 478.256762 0 0 0 69.339428-22.381714l7.899429 38.180572c-35.547429 12.288-77.677714 22.820571-126.390857 31.597714l-11.410286-36.425143c13.165714-5.266286 19.748571-14.482286 19.748571-28.525714v-65.828572h-53.101714a484.352 484.352 0 0 1-40.813714 129.901715l-33.792-30.281143c27.648-55.296 41.691429-125.952 42.130286-212.845715V288.52419h335.725714z m896.146286 0.438858v39.058285h-169.837715v30.281143h134.290286v180.370286h-140.434286c-4.827429 25.453714-12.288 46.08-22.381714 62.317714 60.562286 23.698286 131.218286 36.425143 212.845714 39.058286l-10.532571 40.374857c-87.771429-3.949714-164.132571-20.187429-229.083429-49.152-31.597714 24.576-81.188571 40.813714-149.211428 48.713143l-17.993143-38.180572c56.173714-3.510857 98.304-13.604571 126.390857-30.72a407.844571 407.844571 0 0 1-64.512-44.324571l32.036571-21.942857c18.870857 14.921143 39.497143 27.648 61.44 39.058286 7.899429-12.288 14.482286-27.648 18.870858-45.202286H1870.019048V358.302476h132.973714v-30.281143h-169.398857v-39.058285h380.489143z m772.388571-12.288v158.427428h60.562286v-34.669714h-40.813715V366.201905h40.813715v-37.302857h-42.569143v-35.108572h79.872v176.859429h-97.865143v32.475428h95.670857v35.108572c-14.043429 28.525714-36.864 53.540571-68.461714 75.044571a516.388571 516.388571 0 0 0 91.721143 27.209143l-15.36 39.058286c-46.518857-10.093714-86.016-24.137143-119.369143-41.691429-35.986286 17.115429-79.433143 31.158857-130.340572 42.130286l-20.626285-37.302857c42.569143-7.899429 79.433143-17.554286 111.030857-29.842286a232.838095 232.838095 0 0 1-64.073143-72.411429h-20.187429v-37.302857h100.937143v-32.475428H2848.670476V306.517333a244.394667 244.394667 0 0 0 66.267429-26.770285l23.259428 31.158857a477.037714 477.037714 0 0 1-51.785143 21.504v33.792h42.569143v34.230857h-42.569143v34.669714h61.001143V276.675048h39.058286z m374.784-2.633143v31.158857h144.384v37.741714h-144.384v30.281143h165.888v85.577143h-40.374857V409.209905H3331.413333l19.309715 9.654857c-24.137143 18.432-48.713143 35.108571-74.166858 49.152a2465.889524 2465.889524 0 0 0 84.260572-3.510857c14.921143-10.093714 29.842286-20.626286 45.202286-32.036572l33.353142 22.381715a620.348952 620.348952 0 0 1-150.089142 81.627428c48.713143-1.755429 96.548571-4.388571 143.506285-7.021714-8.338286-9.216-16.676571-18.432-25.453714-27.209143l30.281143-18.870857c30.72 30.72 54.857143 57.929143 71.972571 81.188571l-31.597714 22.381715a416.329143 416.329143 0 0 0-21.504-29.403429c-32.475429 1.755429-63.195429 3.510857-93.037714 5.266286v76.8c0 25.892571-14.043429 39.058286-41.252572 39.058285h-39.936l-8.338285-38.619428c11.849143 1.755429 23.259429 2.633143 34.669714 2.633143 8.777143 0 13.604571-4.388571 13.604571-12.726857v-64.950858c-46.518857 2.194286-89.965714 3.949714-130.340571 4.827429l-8.338286-37.302857c12.288 0.877714 24.137143 1.316571 35.547429 1.316571a436.809143 436.809143 0 0 0 93.476571-39.497143c-26.331429 0.877714-55.296 1.755429-87.771428 2.633143l-7.899429-30.72c6.144-1.316571 12.726857-3.949714 19.309714-7.460571 25.014857-14.482286 48.274286-31.158857 70.217143-49.590857h-112.786286V458.361905h-40.374857V373.223619h165.888v-30.281143h-144.384v-37.741714h144.384V274.041905h42.130286z m-1603.145143 23.259428v40.374857h-70.217143v105.325715h92.598857v40.374857h-92.598857v190.025143h-41.691428V483.376762h-117.613715c-4.388571 43.885714-12.726857 80.310857-25.892571 109.714286-16.676571 36.864-44.763429 65.389714-83.821714 85.138285l-22.381715-35.108571c35.108571-20.626286 59.245714-46.957714 71.972572-78.555429 8.338286-22.820571 14.043429-50.029714 17.554286-81.188571h-96.548572v-40.374857h99.620572c0-3.510857 0.438857-7.021714 0.438857-9.654857V337.67619h-77.238857v-40.374857h345.819428z m1037.019429-21.065143v78.555429h36.425143v39.936h-36.425143v76.361143c13.604571-6.144 26.770286-12.726857 39.936-19.748572v40.813715c-13.165714 6.582857-26.331429 12.726857-39.936 18.870857v121.124571c0 28.525714-13.604571 43.008-40.374857 43.008h-41.252572l-8.777143-39.497143c12.726857 1.755429 24.576 3.072 35.986286 3.072 9.216 0 14.043429-5.705143 14.043429-17.115428v-93.915429c-14.921143 5.266286-29.403429 10.532571-44.324572 15.36l-9.654857-39.497143c18.432-4.388571 36.425143-10.093714 53.979429-16.237714V394.727619h-45.202286v-39.936h45.202286V276.23619h40.374857z m-266.386286 161.938286l35.547429 19.309714a253.659429 253.659429 0 0 1-25.453715 23.259429h111.908572v32.475429c-62.756571 102.692571-179.492571 156.233143-350.646857 160.621714L2283.422476 633.904762c66.267429 0 123.318857-7.460571 171.154286-22.381714a454.948571 454.948571 0 0 0-42.130286-47.835429l36.864-17.554286c15.798857 15.798857 30.72 32.475429 44.763429 50.468572 43.008-19.309714 77.677714-45.202286 103.131428-78.116572h-120.246857c-38.180571 17.554286-82.944 31.597714-134.290286 41.691429l-25.014857-37.302857c95.670857-9.216 166.326857-37.302857 211.090286-84.699429z m878.592 141.750857c45.641143 16.237714 86.893714 35.986286 124.196571 59.245715l-21.065142 33.353142a582.509714 582.509714 0 0 0-123.757715-61.878857z m-143.506286-0.877714l24.576 27.648c-34.230857 25.892571-75.922286 47.396571-125.513143 64.512l-17.115428-36.864c48.274286-14.043429 87.332571-32.475429 118.052571-55.296z m675.108572-84.163048a22.430476 22.430476 0 0 1 28.184381 34.523429l-87.137524 87.137524-3.510857 2.876952a22.479238 22.479238 0 0 1-28.184381-2.876952l-87.088762-87.137524-2.876952-3.510857a22.479238 22.479238 0 0 1 2.876952-28.135619 22.430476 22.430476 0 0 1 31.695238 0l71.241143 71.289905 71.289905-71.289905z m-901.997715 45.543619h-125.952c15.798857 20.187429 36.425143 37.741714 62.317715 52.662858 27.209143-14.921143 48.713143-32.475429 63.634285-52.662858z m-1748.845714 8.777143h-82.944c10.532571 16.237714 22.820571 30.281143 36.864 42.569143 16.676571-10.093714 32.036571-24.137143 46.08-42.569143z m-71.533714-74.605714h-78.994286v36.864h78.994286v-36.864zM1097.630476 402.627048h-73.289143v33.353142c0 26.331429-1.755429 51.785143-4.388571 75.483429h77.677714v-36.864h-60.562286v-36.864h60.562286v-35.108571z m2841.307429-19.651048a22.430476 22.430476 0 0 1 28.184381 34.523429l-87.137524 87.137523-3.510857 2.828191a22.479238 22.479238 0 0 1-28.184381-2.828191l-87.088762-87.137523-2.876952-3.510858a22.479238 22.479238 0 0 1 2.876952-28.184381 22.430476 22.430476 0 0 1 31.695238 0l71.241143 71.289905 71.289905-71.289905zM2002.992762 464.944762h-91.721143v37.302857h90.404571c0.877714-8.777143 1.316571-17.993143 1.316572-26.770286v-10.532571z m134.290286 0h-93.037715v10.532571c0 9.654857-0.438857 18.432-1.316571 26.770286h94.354286v-37.302857z m319.049142-193.097143l37.302858 19.309714c-6.144 6.582857-11.849143 12.726857-17.554286 18.432h117.174857v32.475429c-47.396571 84.260571-135.168 132.096-263.753143 142.628571l-17.554286-37.741714c36.864-2.194286 69.778286-7.021714 98.742858-14.921143a430.372571 430.372571 0 0 0-38.619429-40.813714l35.986286-17.115429c14.482286 14.043429 28.525714 28.964571 41.691428 44.763429 40.374857-17.115429 72.411429-41.252571 95.670857-72.411429H2427.367619c-34.230857 20.187429-74.166857 35.108571-120.246857 45.202286l-24.576-38.180571c77.677714-14.043429 135.606857-41.252571 173.787428-81.627429zM1646.201905 337.67619h-114.541715v95.670858c0 3.510857-0.438857 6.582857-0.438857 9.654857h114.980572v-105.325715z m-429.641143 64.950858h-78.994286v35.108571h78.994286v-35.108571z m920.722286-8.777143h-93.037715v36.864h93.037715v-36.864z m-134.290286 0h-91.721143v36.864h91.721143v-36.864zM1275.806476 326.704762h-251.465143v38.619428h251.465143V326.704762z" fill="#5B748B" p-id="2808"></path></svg>