<?xml version="1.0" standalone="no"?><!DOCTYPE svg PUBLIC "-//W3C//DTD SVG 1.1//EN" "http://www.w3.org/Graphics/SVG/1.1/DTD/svg11.dtd"><svg t="1687768368763" class="icon" viewBox="0 0 4924 1024" version="1.1" xmlns="http://www.w3.org/2000/svg" p-id="2942" xmlns:xlink="http://www.w3.org/1999/xlink" width="961.71875" height="200"><path d="M4456.155429 332.507429C4418.608762 204.312381 4335.37219 0 4013.543619 0H877.714286c-321.828571 0-405.065143 204.312381-442.61181 332.507429-24.185905 82.505143-80.798476 216.990476-99.669333 275.699809C272.14019 805.692952 48.761905 975.238095 48.761905 975.238095h4793.734095s-223.378286-169.593905-286.671238-367.030857c-18.870857-58.758095-75.483429-193.194667-99.669333-275.699809z" fill="#E7F0F8" p-id="2943"></path><path d="M4504.917333 381.269333C4467.370667 253.074286 4335.37219 48.761905 4013.543619 48.761905H877.714286C555.885714 48.761905 423.887238 253.074286 386.340571 381.269333c-24.185905 82.505143-80.798476 216.990476-99.669333 275.69981C223.378286 854.454857 0 1024 0 1024h4891.257905s-223.378286-169.593905-286.671238-367.030857c-18.870857-58.758095-75.483429-193.194667-99.669334-275.69981z" fill="#F3FAFC" p-id="2944"></path><path d="M3777.974857 522.727619a22.430476 22.430476 0 0 0 31.695238 0l87.137524-87.137524a22.430476 22.430476 0 0 0 0-31.695238 22.479238 22.479238 0 0 0-31.695238 0l-71.289905 71.338667-71.289905-71.289905a22.430476 22.430476 0 0 0-31.695238 0 22.430476 22.430476 0 0 0 0 31.695238z m0 111.957333a22.430476 22.430476 0 0 0 31.695238 0l87.137524-87.137523a22.430476 22.430476 0 0 0 0-31.695239 22.479238 22.479238 0 0 0-31.695238 0l-71.289905 71.338667-71.289905-71.289905a22.430476 22.430476 0 0 0-31.695238 0 22.430476 22.430476 0 0 0 0 31.646477zM1261.665524 738.255238l19.748571-39.497143a252.68419 252.68419 0 0 1-76.8-27.648c15.798857-10.532571 30.72-24.137143 44.324572-40.813714l-25.453715-25.014857h43.885715v-37.741714h-80.749715v-36.864h65.828572v-36.864h-65.828572v-35.108572h61.001143v-114.102857h-335.725714v147.456c-0.438857 86.893714-14.482286 157.549714-42.130286 212.845714l33.792 30.281143a484.352 484.352 0 0 0 40.813715-129.901714h53.101714v65.828571c0 14.043429-6.582857 23.259429-19.748572 28.525715l11.410286 36.425142c48.713143-8.777143 90.843429-19.309714 126.390857-31.597714l-7.899428-38.180571a478.256762 478.256762 0 0 1-69.339429 22.381714v-83.382857h54.418286c33.792 68.022857 89.965714 112.347429 168.96 132.973714z m-56.173714-316.854857h-251.465143V382.780952h251.465143v38.619429z m-178.176 146.139429h-77.677715c2.633143-23.698286 4.388571-49.152 4.388572-75.483429v-33.353143h73.289143v35.108572h-60.562286v36.864h60.562286v36.864z m118.930285-73.728h-78.994285v-35.108572h78.994285v35.108572z m0 73.728h-78.994285v-36.864h78.994285v36.864z m25.453715 80.310857a202.703238 202.703238 0 0 1-36.864-42.569143h82.944a166.960762 166.960762 0 0 1-46.08 42.569143z m176.859428 86.454857c39.058286-19.748571 67.145143-48.274286 83.821714-85.138286 13.165714-29.403429 21.504-65.828571 25.892572-109.714286h117.613714v190.025143h41.691429v-190.025143h92.598857v-40.374857h-92.598857v-105.325714h70.217143v-40.374857h-345.819429v40.374857h77.238857v95.670857c0 2.633143-0.438857 6.144-0.438857 9.654857h-99.620571v40.374857h96.548571c-3.510857 31.158857-9.216 58.368-17.554286 81.188572-12.726857 31.597714-36.864 57.929143-71.972571 78.555428l22.381714 35.108572z m227.328-235.227429H1460.906667c0-3.072 0.438857-6.144 0.438857-9.654857V393.752381h114.541714v105.325714z m571.830857 237.421715l10.532572-40.374858c-81.627429-2.633143-152.283429-15.36-212.845715-39.058285 10.093714-16.237714 17.554286-36.864 22.381715-62.317715h140.434285V414.378667h-134.290285v-30.281143h169.837714v-39.058286h-380.489143v39.058286h169.398857v30.281143h-132.973714v180.370285h125.952c-4.388571 17.554286-10.971429 32.914286-18.870857 45.202286a384 384 0 0 1-61.44-39.058286l-32.036572 21.942858c19.309714 16.237714 40.813714 31.158857 64.512 44.324571-28.086857 17.115429-70.217143 27.209143-126.390857 30.72l17.993143 38.180571c68.022857-7.899429 117.613714-24.137143 149.211429-48.713142 64.950857 28.964571 141.312 45.202286 229.083428 49.152z m-215.04-249.709715h-91.721143v-36.864h91.721143v36.864z m134.290286 0h-93.037714v-36.864h93.037714v36.864z m0 71.533715h-94.354286c0.877714-8.338286 1.316571-17.115429 1.316572-26.770286v-10.532572h93.037714v37.302858z m-135.606857 0h-90.404572v-37.302858h91.721143v10.532572c0 8.777143-0.438857 17.993143-1.316571 26.770286z m327.826286-17.554286c128.585143-10.532571 216.356571-58.368 263.753142-142.628572v-32.475428h-117.174857c5.705143-5.705143 11.410286-11.849143 17.554286-18.432l-37.302857-19.309714c-38.180571 40.374857-96.109714 67.584-173.787429 81.627428l24.576 38.180572c46.08-10.093714 86.016-25.014857 120.246857-45.202286h118.052572c-23.259429 31.158857-55.296 55.296-95.670857 72.411428-13.165714-15.798857-27.209143-30.72-41.691429-44.763428l-35.986286 17.115428c13.165714 12.288 26.331429 25.892571 38.619429 40.813715-28.964571 7.899429-61.878857 12.726857-98.742857 14.921143l17.554286 37.741714z m-29.403429 189.147428c171.154286-4.388571 287.890286-57.929143 350.646857-160.621714v-32.475428h-111.908571c8.777143-7.021714 17.554286-14.921143 25.453714-23.259429l-35.547429-19.309714c-44.763429 47.396571-115.419429 75.483429-211.090285 84.699428l25.014857 37.302857c51.346286-10.093714 96.109714-24.137143 134.290286-41.691428h120.246857c-25.453714 32.914286-60.123429 58.806857-103.131429 78.116571a548.278857 548.278857 0 0 0-44.763428-50.468571l-36.864 17.554286c14.482286 14.043429 28.525714 30.281143 42.130285 47.835428-47.835429 14.921143-104.886857 22.381714-171.154285 22.381714l16.676571 39.936z m454.656 1.316572c26.770286 0 40.374857-14.482286 40.374857-43.008V567.100952c13.604571-6.144 26.770286-12.288 39.936-18.870857v-40.813714c-13.165714 7.021714-26.331429 13.604571-39.936 19.748571V450.80381h36.425143v-39.936h-36.425143V332.312381h-40.374857v78.555429h-45.202286v39.936h45.202286v92.598857c-17.554286 6.144-35.547429 11.849143-53.979429 16.237714l9.654858 39.497143c14.921143-4.827429 29.403429-10.093714 44.324571-15.36v93.915428c0 11.410286-4.827429 17.115429-14.043429 17.115429-11.410286 0-23.259429-1.316571-35.986285-3.072l8.777143 39.497143h41.252571z m85.577143 4.827428c50.907429-10.971429 94.354286-25.014857 130.340571-42.130285 33.353143 17.554286 72.850286 31.597714 119.369143 41.691428l15.36-39.058285a516.388571 516.388571 0 0 1-91.721143-27.209143c31.597714-21.504 54.418286-46.518857 68.461715-75.044572v-35.108571h-95.670858v-32.475429h97.865143V349.866667h-79.872v35.108571h42.569143v37.302857h-40.813714v34.230857h40.813714v34.669715h-60.562286V332.751238h-39.058285v158.427429h-61.001143v-34.669715h42.569143V422.278095h-42.569143v-33.792a477.037714 477.037714 0 0 0 51.785143-21.504l-23.259429-31.158857a244.394667 244.394667 0 0 1-66.267428 26.770286v164.132571h98.742857v32.475429h-100.937143v37.302857h20.187428a232.838095 232.838095 0 0 0 64.073143 72.411429c-31.597714 12.288-68.461714 21.942857-111.030857 29.842285l20.626286 37.302857z m132.973714-86.893714a212.21181 212.21181 0 0 1-62.317714-52.662857h125.952c-14.921143 20.187429-36.425143 37.741714-63.634286 52.662857z m348.891429 85.577143c27.209143 0 41.252571-13.165714 41.252571-39.058286v-76.8c29.842286-1.755429 60.562286-3.510857 93.037714-5.266285 7.899429 9.654857 14.921143 19.748571 21.504 29.403428l31.597715-22.381714c-17.115429-23.259429-41.252571-50.468571-71.972572-81.188572l-30.281143 18.870858c8.777143 8.777143 17.115429 17.993143 25.453715 27.209142-46.957714 2.633143-94.793143 5.266286-143.506286 7.021715a620.348952 620.348952 0 0 0 150.089143-81.627429l-33.353143-22.381714c-15.36 11.410286-30.281143 21.942857-45.202286 32.036571a2465.889524 2465.889524 0 0 1-84.260571 3.510857c25.453714-14.043429 50.029714-30.72 74.166857-49.152l-19.309714-9.654857h155.355428v49.590857h40.374857V429.29981H3290.940952v-30.281143h144.384v-37.741715H3290.940952V330.118095h-42.130285v31.158857h-144.384v37.741715h144.384v30.281143h-165.888v85.138285h40.374857V465.286095h112.786286c-21.942857 18.432-45.202286 35.108571-70.217143 49.590857-6.582857 3.510857-13.165714 6.144-19.309715 7.460572l7.899429 30.72c32.475429-0.877714 61.44-1.755429 87.771429-2.633143a436.809143 436.809143 0 0 1-93.476572 39.497143c-11.410286 0-23.259429-0.438857-35.547428-1.316572l8.338285 37.302858a5204.358095 5204.358095 0 0 0 130.340572-4.827429v64.950857c0 8.338286-4.827429 12.726857-13.604572 12.726857-11.410286 0-22.820571-0.877714-34.669714-2.633143l8.338286 38.619429h39.936z m-159.305143-7.460571c49.590857-17.115429 91.282286-38.619429 125.513143-64.512l-24.576-27.648c-30.72 22.820571-69.778286 41.252571-118.052572 55.296l17.115429 36.864z m347.574857 1.316571l21.065143-33.353143a637.220571 637.220571 0 0 0-124.196572-59.245714l-20.626285 30.72c42.130286 14.921143 83.382857 35.547429 123.757714 61.878857z" fill="#5B748B" p-id="2945"></path></svg>