<?xml version="1.0" standalone="no"?><!DOCTYPE svg PUBLIC "-//W3C//DTD SVG 1.1//EN" "http://www.w3.org/Graphics/SVG/1.1/DTD/svg11.dtd"><svg t="1687768272736" class="icon" viewBox="0 0 5171 1024" version="1.1" xmlns="http://www.w3.org/2000/svg" p-id="2668" xmlns:xlink="http://www.w3.org/1999/xlink" width="1009.9609375" height="200"><path d="M4456.155429 332.507429C4418.608762 204.312381 4335.37219 0 4013.543619 0H877.714286c-321.828571 0-405.065143 204.312381-442.61181 332.507429-24.185905 82.505143-80.798476 216.990476-99.669333 275.699809C272.14019 805.692952 48.761905 975.238095 48.761905 975.238095h4793.734095s-223.378286-169.593905-286.671238-367.030857c-18.870857-58.758095-75.483429-193.194667-99.669333-275.699809z" fill="#E7F0F8" p-id="2669"></path><path d="M4604.586667 656.969143c-18.870857-58.758095-75.483429-193.194667-99.669334-275.69981C4467.370667 253.074286 4335.37219 48.761905 4013.543619 48.761905H877.714286C555.885714 48.761905 423.887238 253.074286 386.340571 381.269333c-24.185905 82.505143-80.798476 216.990476-99.669333 275.69981C223.378286 854.454857 0 1024 0 1024h4891.257905s-223.378286-169.593905-286.671238-367.030857" fill="#F3FAFC" p-id="2670"></path><path d="M2049.072762 321.487238l41.691428 7.021714c-3.510857 20.187429-7.899429 39.497143-12.288 57.490286h138.678858v40.813714h-34.669715c-3.510857 68.461714-20.626286 127.707429-50.468571 177.737143a507.708952 507.708952 0 0 0 96.548571 92.16l-28.525714 33.792a523.215238 523.215238 0 0 1-93.476571-90.404571c-28.525714 34.230857-64.512 63.195429-108.397715 86.893714l-21.942857-35.547428v33.353142h-40.813714v-109.714285c-29.842286 10.532571-61.44 20.187429-93.915429 28.525714l-12.288-35.108571c7.021714-2.633143 10.971429-7.021714 10.971429-12.726858V361.423238h40.813714v232.594286c18.432-5.705143 36.425143-11.849143 54.418286-18.870857v-250.148572h40.813714v362.934857c43.446857-21.065143 78.555429-48.713143 104.886857-82.066285a532.772571 532.772571 0 0 1-53.979428-99.620572 359.619048 359.619048 0 0 1-23.259429 31.158857l-25.453714-31.597714c34.669714-45.641143 58.368-107.081143 70.656-184.32z m341.430857-0.438857v57.051429h64.950857v37.741714h-64.950857v55.296h70.656v38.619428h-61.44v52.662858h58.368v37.741714h-58.368v73.289143c28.086857 5.705143 77.677714 8.777143 149.650286 8.777143h15.11619a1686.723048 1686.723048 0 0 0 101.180953-2.633143l-7.021715 39.936h-100.059428c-103.131429 0-167.643429-6.144-193.536-17.554286-19.748571-9.216-37.302857-24.137143-52.224-45.202286a487.716571 487.716571 0 0 1-23.259429 71.533715l-32.036571-28.086858c20.187429-50.029714 31.158857-105.764571 33.792-167.204571l37.302857 4.388571a662.332952 662.332952 0 0 1-7.021714 74.605715c11.410286 18.432 23.698286 32.475429 37.741714 43.008v-145.261715h-86.893714v-38.619428h76.8V415.841524h-68.900572v-37.741714h68.900572v-57.051429h41.252571z m580.071619 225.475048a22.430476 22.430476 0 0 1 31.695238 0l87.137524 87.137523a22.430476 22.430476 0 0 1 0 31.695238 22.479238 22.479238 0 0 1-31.695238 0l-71.289905-71.338666-71.289905 71.289905a22.430476 22.430476 0 0 1-31.695238 0 22.430476 22.430476 0 0 1 0-31.695239zM2638.019048 348.257524v152.283428h-115.419429v92.16c0 9.654857 5.266286 14.482286 15.798857 14.921143h53.540572c10.532571 0 17.115429-4.388571 20.187428-13.165714 2.633143-7.899429 4.388571-23.259429 5.705143-46.08l39.497143 13.165714c-3.510857 35.986286-8.338286 59.245714-15.36 70.217143-6.582857 10.532571-21.065143 16.237714-43.008 16.237714h-78.555429c-26.331429 0-39.058286-13.165714-39.058285-39.058285V461.04381h115.858285V387.31581H2475.641905v-39.058286h162.377143zM2142.98819 426.812952h-77.238857c-4.388571 12.288-9.216 23.698286-14.482285 35.108572 14.043429 38.619429 32.475429 74.166857 54.418285 106.642286 21.942857-40.374857 34.230857-87.771429 37.302857-141.750858z m827.587048 7.801905a22.430476 22.430476 0 0 1 31.695238 0l87.137524 87.088762a22.430476 22.430476 0 0 1 0 31.695238 22.479238 22.479238 0 0 1-31.695238 0l-71.289905-71.289905-71.289905 71.289905a22.430476 22.430476 0 0 1-31.695238 0 22.430476 22.430476 0 0 1 0-31.695238z" fill="#5B748B" p-id="2671"></path></svg>