<?xml version="1.0" standalone="no"?><!DOCTYPE svg PUBLIC "-//W3C//DTD SVG 1.1//EN" "http://www.w3.org/Graphics/SVG/1.1/DTD/svg11.dtd"><svg t="1687658769490" class="icon" viewBox="0 0 1024 1024" version="1.1" xmlns="http://www.w3.org/2000/svg" p-id="2913" xmlns:xlink="http://www.w3.org/1999/xlink" width="32" height="32"><path d="M512 75.09333333c240.29866667 0 436.90666667 196.608 436.90666667 436.90666667s-196.608 436.90666667-436.90666667 436.90666667-436.90666667-196.608-436.90666667-436.90666667 196.608-436.90666667 436.90666667-436.90666667z m163.84 294.912l-218.45333333 218.45333334-98.304-98.304c-16.384-16.384-38.22933333-16.384-54.61333334-5.46133334l-5.46133333 5.46133334c-16.384 16.384-16.384 43.69066667 0 60.07466666l131.072 131.072c16.384 16.384 43.69066667 16.384 60.07466667 0l245.76-245.76c16.384-16.384 16.384-43.69066667 0-60.07466666-16.384-21.84533333-43.69066667-21.84533333-60.07466667-5.46133334z" fill="#17C8C9" p-id="2914"></path></svg>