<?xml version="1.0" standalone="no"?><!DOCTYPE svg PUBLIC "-//W3C//DTD SVG 1.1//EN" "http://www.w3.org/Graphics/SVG/1.1/DTD/svg11.dtd"><svg t="1687658778974" class="icon" viewBox="0 0 1024 1024" version="1.1" xmlns="http://www.w3.org/2000/svg" p-id="3059" xmlns:xlink="http://www.w3.org/1999/xlink" width="32" height="32"><path d="M512 75.09333333c240.29866667 0 436.90666667 196.608 436.90666667 436.90666667s-196.608 436.90666667-436.90666667 436.90666667-436.90666667-196.608-436.90666667-436.90666667 196.608-436.90666667 436.90666667-436.90666667zM391.85066667 326.31466667c-16.384-16.384-43.69066667-16.384-60.07466667 0-21.84533333 21.84533333-21.84533333 49.152-5.46133333 65.536L451.92533333 512l-120.14933333 120.14933333c-16.384 16.384-16.384 38.22933333-5.46133333 54.61333334l5.46133333 5.46133333c16.384 16.384 43.69066667 16.384 60.07466667 0l120.14933333-120.14933333 120.14933333 120.14933333c16.384 16.384 38.22933333 16.384 54.61333334 5.46133333l5.46133333-5.46133333c16.384-16.384 16.384-43.69066667 0-60.07466667L572.07466667 512l120.14933333-120.14933333c16.384-16.384 16.384-38.22933333 5.46133333-54.61333334l-5.46133333-5.46133333c-16.384-16.384-43.69066667-16.384-60.07466667 0L512 451.92533333 391.85066667 326.31466667z" fill="#FF8080" p-id="3060"></path></svg>