<?xml version="1.0" standalone="no"?><!DOCTYPE svg PUBLIC "-//W3C//DTD SVG 1.1//EN" "http://www.w3.org/Graphics/SVG/1.1/DTD/svg11.dtd"><svg t="1687658716549" class="icon" viewBox="0 0 1024 1024" version="1.1" xmlns="http://www.w3.org/2000/svg" p-id="2641" width="32" height="32" xmlns:xlink="http://www.w3.org/1999/xlink"><path d="M512 75.09333333c240.29866667 0 436.90666667 196.608 436.90666667 436.90666667s-196.608 436.90666667-436.90666667 436.90666667-436.90666667-196.608-436.90666667-436.90666667 196.608-436.90666667 436.90666667-436.90666667z m0 349.52533334H457.38666667c-16.384 0-32.768 16.384-32.768 32.768s16.384 32.768 32.768 32.768h10.92266666v196.608H457.38666667c-16.384 0-32.768 16.384-32.768 32.768s16.384 32.768 32.768 32.768h109.22666666c16.384 0 32.768-16.384 32.768-32.768s-16.384-32.768-32.768-32.768h-10.92266666v-218.45333334c0-21.84533333-21.84533333-43.69066667-43.69066667-43.69066666z m0-174.76266667c-38.22933333 0-65.536 27.30666667-65.536 65.536s27.30666667 65.536 65.536 65.536 65.536-27.30666667 65.536-65.536-27.30666667-65.536-65.536-65.536z" fill="#0082D3" p-id="2642"></path></svg>