<?xml version="1.0" standalone="no"?><!DOCTYPE svg PUBLIC "-//W3C//DTD SVG 1.1//EN" "http://www.w3.org/Graphics/SVG/1.1/DTD/svg11.dtd"><svg t="1687658787547" class="icon" viewBox="0 0 1024 1024" version="1.1" xmlns="http://www.w3.org/2000/svg" p-id="3205" xmlns:xlink="http://www.w3.org/1999/xlink" width="32" height="32"><path d="M512 75.09333333c-240.29866667 0-436.90666667 196.608-436.90666667 436.90666667s196.608 436.90666667 436.90666667 436.90666667 436.90666667-196.608 436.90666667-436.90666667-196.608-436.90666667-436.90666667-436.90666667z m0 709.97333334c-32.768 0-54.61333333-21.84533333-54.61333333-54.61333334s21.84533333-54.61333333 54.61333333-54.61333333 54.61333333 21.84533333 54.61333333 54.61333333-21.84533333 54.61333333-54.61333333 54.61333334z m54.61333333-218.45333334c0 32.768-21.84533333 54.61333333-54.61333333 54.61333334s-54.61333333-21.84533333-54.61333333-54.61333334V293.54666667c0-32.768 21.84533333-54.61333333 54.61333333-54.61333334s54.61333333 21.84533333 54.61333333 54.61333334v273.06666666z" fill="#EFAC15" p-id="3206"></path></svg>