<svg xmlns="http://www.w3.org/2000/svg" xmlns:xlink="http://www.w3.org/1999/xlink" viewBox="0 0 242.37 135.62"><defs><style>.cls-1{fill:url(#未命名的渐变);}.cls-2{fill:url(#未命名的渐变_9);}.cls-3{fill:url(#未命名的渐变_8);}</style><linearGradient id="未命名的渐变" x1="233.25" y1="114.96" x2="120" y2="15.87" gradientTransform="matrix(1, 0, 0, -1, 0, 136.62)" gradientUnits="userSpaceOnUse"><stop offset="0" stop-color="#0ab7e0"/><stop offset="0.62" stop-color="#3fcbed"/><stop offset="0.82" stop-color="#57d5f2"/></linearGradient><linearGradient id="未命名的渐变_9" x1="62.11" y1="121.4" x2="174.36" y2="15.59" gradientTransform="matrix(1, 0, 0, -1, 0, 136.62)" gradientUnits="userSpaceOnUse"><stop offset="0.19" stop-color="#57ebe7"/><stop offset="0.72" stop-color="#21ceef"/><stop offset="1" stop-color="#27ccf0"/></linearGradient><linearGradient id="未命名的渐变_8" x1="7.61" y1="24.76" x2="120.45" y2="122.67" gradientTransform="matrix(1, 0, 0, -1, 0, 136.62)" gradientUnits="userSpaceOnUse"><stop offset="0.22" stop-color="#6debec"/><stop offset="0.94" stop-color="#38daec"/></linearGradient></defs><g id="图层_2" data-name="图层 2"><g id="图层_1-2" data-name="图层 1"><path class="cls-1" d="M90.88,92.88l6.85-1.14a28.53,28.53,0,0,0,14.83-7.54l65.69-66.29a37.5,37.5,0,0,1,53.14-.12h0a37.49,37.49,0,0,1-.28,53.3l-54.7,53.57c-15.1,14.79-38.48,14.65-54.41-.66Z"/><path class="cls-2" d="M177,124.12c-15,15-38.79,15.79-55.37-.53L56.41,58.41c-4.8-4.8-13.18-8.82-20-8.82l-9.53.4L64,12.16c15-16,40.38-17,57.28,1.76l63.54,68.89c4.83,5.08,11.42,6.5,18.43,6.5l9.41-.14Z"/><path class="cls-3" d="M146.11,40.85h0a20.58,20.58,0,0,0-16.57,6.07L60.76,116.67a35.49,35.49,0,0,1-50.37.18h0a35.49,35.49,0,0,1-.11-50.07L64.89,11.23c15.34-15.48,40.44-14.62,55.44,1.26Z"/></g></g></svg>