<svg xmlns="http://www.w3.org/2000/svg" viewBox="0 0 341.92 97.03"><defs><style>.cls-1{fill:#102748;}</style></defs><g id="图层_2" data-name="图层 2"><g id="图层_1-2" data-name="图层 1"><path class="cls-1" d="M165.1,97,120.48,21.2V96.47H99.28V0h24.54L169,77V0h20.64V97Z"/><path class="cls-1" d="M341.91,31.79H315.14V84.2q-.57,7.26,6.13,6.7h20.65V97h-31.8q-16.74,0-16.74-19V31.79H280V25.66h13.38V0h21.76V25.66h26.77Z"/><path class="cls-1" d="M219.78,67.47h41.27q16.17-1.11,17.85-15.06v-10q0-17.85-16.73-17.85h-46.3q-17.85,0-17.29,17.85V79.18Q198,97,215.87,97h60.8V91.45H224.24q-5,0-4.46-5Zm.49-33.41a4,4,0,0,1,3.94-3.94h30.14a4,4,0,0,1,3.94,3.94v24A4,4,0,0,1,254.35,62H224.21a4,4,0,0,1-3.94-3.94Z"/><path class="cls-1" d="M35.14,97H72.51q17.83,0,17.85-18.41V19Q89.79,0,72.51,0H4.06A4.06,4.06,0,0,0,0,4.06V92.62A4.41,4.41,0,0,0,4.41,97H35.14Zm32.91-9.47c0,2.17-2.11,3.94-4.68,3.94H27.55c-2.58,0-4.68-1.77-4.68-3.94V10.63c0-2.16,2.1-3.94,4.68-3.94H63.37c2.57,0,4.68,1.78,4.68,3.94Z"/></g></g></svg>